<?xml version="1.0" encoding="UTF-8"?>
<svg version="1.1" xmlns="http://www.w3.org/2000/svg" width="612" height="408">
<path d="M0 0 C3.14677641 1.52135346 3.14677641 1.52135346 6.23046875 2.48828125 C8.75135549 1.4664584 11.1198494 0.393228 13.54296875 -0.82421875 C21.01553544 -4.51245888 27.79844512 -6.81868435 36.10546875 -7.76171875 C36.86988281 -7.86484375 37.63429688 -7.96796875 38.421875 -8.07421875 C43.86392259 -8.70250268 47.98944126 -8.11148568 53.23046875 -6.51171875 C53.72546875 -3.04671875 53.72546875 -3.04671875 54.23046875 0.48828125 C55.19984375 0.61203125 56.16921875 0.73578125 57.16796875 0.86328125 C58.17859375 1.06953125 59.18921875 1.27578125 60.23046875 1.48828125 C61.71812245 4.46358864 61.36602985 7.15702583 61.37573242 10.4765625 C61.37909103 11.19540619 61.38244965 11.91424988 61.38591003 12.65487671 C61.3954282 15.03686234 61.39736345 17.41877777 61.3984375 19.80078125 C61.40164903 21.45223012 61.40501302 23.10367869 61.40852356 24.75512695 C61.41451668 28.21859395 61.41636323 31.68203599 61.41577148 35.14550781 C61.41566975 39.59121662 61.429333 44.03676613 61.44654369 48.48243713 C61.45764138 51.89327739 61.4596914 55.30407883 61.45916176 58.7149353 C61.46034483 60.35444692 61.46478479 61.99395945 61.47249413 63.63345337 C61.48225101 65.92241714 61.47943346 68.21103104 61.47338867 70.5 C61.47481369 71.80412842 61.47623871 73.10825684 61.47770691 74.4519043 C61.23046875 77.48828125 61.23046875 77.48828125 59.23046875 79.48828125 C56.15775555 79.68586273 53.16763427 79.76517614 50.09375 79.76171875 C48.21809312 79.78201939 46.34244213 79.80287038 44.46679688 79.82421875 C41.50882006 79.84676318 38.55107617 79.86326515 35.59301758 79.86914062 C32.73866549 79.87870214 29.88536489 79.91253737 27.03125 79.94921875 C26.15495438 79.94417328 25.27865875 79.93912781 24.37580872 79.93392944 C18.45616977 80.02808318 15.18156967 81.25853083 10.23046875 84.48828125 C7.38671875 85.01953125 7.38671875 85.01953125 4.73046875 84.98828125 C3.415625 85.00375 3.415625 85.00375 2.07421875 85.01953125 C-0.76953125 84.48828125 -0.76953125 84.48828125 -3.83032227 82.49316406 C-8.33425952 79.86098626 -12.52330553 79.88603014 -17.640625 79.87890625 C-18.56295425 79.86237 -19.48528351 79.84583374 -20.43556213 79.82879639 C-23.3594542 79.78050678 -26.28282688 79.75898784 -29.20703125 79.73828125 C-31.19859357 79.71010564 -33.1901319 79.68017599 -35.18164062 79.6484375 C-40.04422804 79.57475293 -44.90653035 79.52506211 -49.76953125 79.48828125 C-52.07780591 75.8306489 -52.01725822 72.72095448 -52.01245117 68.45654297 C-52.01434952 67.75691437 -52.01624786 67.05728577 -52.01820374 66.3364563 C-52.0219004 64.03017882 -52.01122485 61.72421811 -52 59.41796875 C-51.99880765 57.81421953 -51.99835515 56.21046961 -51.99861145 54.60671997 C-51.9970486 51.2493247 -51.98877279 47.89203635 -51.9753418 44.53466797 C-51.95832486 40.22581554 -51.95452836 35.91708027 -51.95528698 31.60819817 C-51.95501545 28.29858273 -51.94953746 24.98899303 -51.94228554 21.67938614 C-51.93909855 20.09012166 -51.93713139 18.50085426 -51.93639183 16.91158676 C-51.93423013 14.69475044 -51.92549043 12.47803988 -51.91479492 10.26123047 C-51.91098312 8.99866425 -51.90717133 7.73609802 -51.90324402 6.43527222 C-51.76953125 3.48828125 -51.76953125 3.48828125 -50.76953125 1.48828125 C-46.29412141 0.22598617 -46.29412141 0.22598617 -43.76953125 1.48828125 C-43.83140625 0.39515625 -43.89328125 -0.69796875 -43.95703125 -1.82421875 C-43.76953125 -5.51171875 -43.76953125 -5.51171875 -42.51953125 -7.38671875 C-30.70749644 -14.9801697 -11.23517033 -5.21407253 0 0 Z M-34.76953125 -0.51171875 C-34.76953125 20.60828125 -34.76953125 41.72828125 -34.76953125 63.48828125 C-31.79953125 63.48828125 -28.82953125 63.48828125 -25.76953125 63.48828125 C-23.20020664 60.55702545 -23.20020664 60.55702545 -21.94921875 58.30859375 C-19.84061493 55.0549203 -16.6439378 53.11308343 -13.00292969 51.89941406 C-8.10633869 50.99803024 -3.05367652 51.26220229 1.91015625 51.24804688 C3.96005402 51.23837755 6.00893245 51.20734485 8.05859375 51.17578125 C16.57477505 51.14225298 23.35730976 51.13154346 30.04296875 56.92578125 C32.23046875 59.48828125 32.23046875 59.48828125 33.48046875 61.80078125 C35.90505498 64.52948461 35.90505498 64.52948461 44.23046875 63.48828125 C44.23046875 42.69828125 44.23046875 21.90828125 44.23046875 0.48828125 C30.00939758 1.43635266 21.33465533 2.40287671 10.1796875 10.2734375 C8.23046875 11.48828125 8.23046875 11.48828125 5.16796875 12.17578125 C1.69092248 11.36200446 -0.57602559 9.88867349 -3.5234375 7.921875 C-12.17896808 2.39738852 -24.49941401 -3.07924806 -34.76953125 -0.51171875 Z " fill="#048BF9" transform="translate(175.76953125,159.51171875)"/>
<path d="M0 0 C5.06021721 4.19890365 7.96870789 8.51223512 9 15 C9.08895063 16.91505483 9.13018139 18.83288749 9.125 20.75 C9.12886719 22.19632813 9.12886719 22.19632813 9.1328125 23.671875 C9 26 9 26 8 27 C5.62661361 27.15971977 3.27881728 27.2592433 0.90234375 27.31640625 C0.19348526 27.33718735 -0.51537323 27.35796844 -1.24571228 27.37937927 C-3.51787305 27.44494598 -5.79015264 27.5037923 -8.0625 27.5625 C-9.59962183 27.60567849 -11.1367315 27.64929255 -12.67382812 27.69335938 C-16.4490959 27.80063449 -20.2244836 27.90188137 -24 28 C-21.41889311 32.58544817 -21.41889311 32.58544817 -17 35 C-12.94743454 35.4096126 -12.94743454 35.4096126 -9 35 C-8.39542969 34.33871094 -7.79085938 33.67742187 -7.16796875 32.99609375 C-4.17314604 30.23869843 -2.24475595 30.59020976 1.75 30.75 C2.92046875 30.78609375 4.0909375 30.8221875 5.296875 30.859375 C6.18890625 30.90578125 7.0809375 30.9521875 8 31 C8.22854914 36.07093396 7.72000201 38.49389861 4.578125 42.38671875 C-0.59821385 47.67837208 -6.11602369 48.45068361 -13.375 48.625 C-20.65727548 48.6162882 -26.53668838 47.18142084 -32 42 C-32 41.34 -32 40.68 -32 40 C-32.66 40 -33.32 40 -34 40 C-38.53621563 29.89661064 -40.65290694 21.20936981 -37.09765625 10.4609375 C-34.47843645 4.58866536 -30.41319799 0.39831792 -24.6875 -2.5 C-16.02016823 -5.79064799 -8.01271654 -4.39131084 0 0 Z M-22 10 C-24.2773501 12.81509993 -24.2773501 12.81509993 -24 16 C-17.73 16 -11.46 16 -5 16 C-6.29755587 10.32166588 -6.29755587 10.32166588 -8.6875 8.625 C-13.32828369 7.37073414 -17.96043427 7.15734263 -22 10 Z " fill="#068AF8" transform="translate(338,180)"/>
<path d="M0 0 C4.00318801 2.90231131 5.05052658 6.29397334 6 11 C6.24533874 13.85846042 6.23470572 16.69136327 6.1953125 19.55859375 C6.1924826 20.34774673 6.18965271 21.13689972 6.18673706 21.94996643 C6.17563057 24.44597172 6.15054455 26.94160498 6.125 29.4375 C6.11495785 31.13996874 6.10583417 32.84244316 6.09765625 34.54492188 C6.0757226 38.69675576 6.04125977 42.84831502 6 47 C2.42846574 47.63371339 -0.59372696 48.14352917 -4.1875 47.5625 C-8.08209326 46.98788788 -10.27951066 46.75983689 -14 48 C-28.33785668 49.17799292 -28.33785668 49.17799292 -33.25 45.875 C-37.23754449 41.70620349 -38.75998713 38.86009978 -39.5 33.125 C-39.25557648 28.21772787 -37.46904989 24.46904989 -34 21 C-30.78549753 19.19800912 -27.53446866 18.01723732 -24 17 C-23.05060547 16.70609375 -23.05060547 16.70609375 -22.08203125 16.40625 C-19.28034863 15.85958022 -16.60152475 15.90650517 -13.75 15.9375 C-12.67234375 15.94652344 -11.5946875 15.95554688 -10.484375 15.96484375 C-9.66453125 15.97644531 -8.8446875 15.98804688 -8 16 C-8.66 14.02 -9.32 12.04 -10 10 C-15.02847985 8.90923606 -15.02847985 8.90923606 -19.875 10.25 C-22.26175558 11.89978501 -22.26175558 11.89978501 -23 15 C-27.29 15 -31.58 15 -36 15 C-37.05798244 11.82605267 -36.97794449 10.08111807 -35.98828125 6.91015625 C-33.51576518 2.13126156 -28.87688531 -1.04070306 -24.1875 -3.4375 C-15.33460511 -4.99977557 -7.97755606 -4.2933216 0 0 Z M-23 29 C-24.05167527 31.57732914 -24.05167527 31.57732914 -24 34 C-22.16675303 35.90963226 -20.78031196 36.95203 -18.09375 37.1171875 C-14.62190724 36.81923084 -12.45901103 36.31777687 -9.5625 34.3125 C-7.68542079 31.53442277 -7.30107544 29.3118298 -7 26 C-13.0838562 25.62751901 -17.70089702 25.79845862 -23 29 Z " fill="#058BFA" transform="translate(475,180)"/>
<path d="M0 0 C4.16642847 2.87681966 6.8978748 5.81451479 8.57202148 10.65332031 C9.2022981 14.10923521 9.12190369 17.5472006 9.09765625 21.046875 C9.0962413 21.81807678 9.09482635 22.58927856 9.09336853 23.3838501 C9.08778534 25.83927338 9.07523595 28.29460442 9.0625 30.75 C9.05748283 32.41796743 9.0529203 34.08593629 9.04882812 35.75390625 C9.03782141 39.83597287 9.02056836 43.91797081 9 48 C5.55824478 50.14699969 3.2279708 50.09856795 -0.75 49.625 C-1.73484375 49.51414063 -2.7196875 49.40328125 -3.734375 49.2890625 C-4.48203125 49.19367188 -5.2296875 49.09828125 -6 49 C-6.01981934 48.08710205 -6.03963867 47.1742041 -6.06005859 46.23364258 C-6.13836264 42.83217528 -6.22506225 39.43113396 -6.31738281 36.0300293 C-6.35555952 34.56071138 -6.39043182 33.09130361 -6.421875 31.62182617 C-6.46777289 29.50406886 -6.52572372 27.3869241 -6.5859375 25.26953125 C-6.63306885 23.36071167 -6.63306885 23.36071167 -6.68115234 21.41333008 C-6.985617 18.153973 -7.43867477 15.86686454 -9 13 C-13.62413664 11.42358978 -16.53138892 12.39604323 -21 14 C-21.01981934 14.98395752 -21.03963867 15.96791504 -21.06005859 16.98168945 C-21.13613987 20.63282839 -21.224853 24.28357009 -21.31738281 27.93432617 C-21.35566221 29.51432451 -21.39051697 31.09440969 -21.421875 32.67456055 C-21.46754876 34.94611645 -21.52553784 37.21707509 -21.5859375 39.48828125 C-21.60326431 40.54780754 -21.60326431 40.54780754 -21.62094116 41.6287384 C-21.73071048 45.27741393 -21.92142364 46.88213546 -24 50 C-26.8203125 50.29296875 -26.8203125 50.29296875 -30.125 50.1875 C-31.76855469 50.14689453 -31.76855469 50.14689453 -33.4453125 50.10546875 C-34.28835938 50.07066406 -35.13140625 50.03585938 -36 50 C-37.87280572 44.44063108 -38.29425989 39.55129107 -38.265625 33.70703125 C-38.26753845 32.83858078 -38.2694519 31.97013031 -38.27142334 31.07536316 C-38.27277737 29.25084135 -38.2691359 27.42630965 -38.26074219 25.60180664 C-38.24999226 22.8104906 -38.26068401 20.01981238 -38.2734375 17.22851562 C-38.27211653 15.45051942 -38.26955543 13.6725236 -38.265625 11.89453125 C-38.26967346 11.0621846 -38.27372192 10.22983795 -38.27789307 9.37226868 C-38.27158875 8.59433456 -38.26528442 7.81640045 -38.25878906 7.01489258 C-38.25719788 6.33429276 -38.25560669 5.65369293 -38.25396729 4.95246887 C-38 3 -38 3 -36 -1 C-31.71 -1 -27.42 -1 -23 -1 C-22.67 -0.34 -22.34 0.32 -22 1 C-21.443125 0.7834375 -20.88625 0.566875 -20.3125 0.34375 C-13.39151539 -2.18147411 -6.85543374 -3.70563986 0 0 Z " fill="#1192F8" transform="translate(423,178)"/>
<path d="M0 0 C0.99 0.66 1.98 1.32 3 2 C4.02910439 7.4530704 4.158889 12.83838501 4.125 18.375 C4.12306641 19.16430908 4.12113281 19.95361816 4.11914062 20.7668457 C4.04065497 32.18541833 3.48282505 43.59325828 3 55 C12.9 55 22.8 55 33 55 C34.24377393 57.48754786 34.13306235 59.22655301 34.125 62 C34.12886719 63.3303125 34.12886719 63.3303125 34.1328125 64.6875 C34 67 34 67 33 69 C25.67741443 70.24151829 18.30037461 70.18620821 10.88818359 70.18530273 C8.87185982 70.18750343 6.85607231 70.20576383 4.83984375 70.22460938 C3.54949219 70.22654297 2.25914062 70.22847656 0.9296875 70.23046875 C-0.81465576 70.23663208 -0.81465576 70.23663208 -2.59423828 70.24291992 C-6.36779824 69.97376636 -9.40946527 69.15387587 -13 68 C-13.1157928 59.57695357 -13.20466267 51.15423897 -13.25906086 42.73059368 C-13.28516804 38.81921489 -13.32058464 34.90838011 -13.37719727 30.99731445 C-13.43147998 27.22364259 -13.4614121 23.45049428 -13.47438622 19.67646217 C-13.4836331 18.23586595 -13.50169059 16.79529877 -13.52865028 15.35492516 C-13.56487938 13.33935816 -13.56704183 11.32326553 -13.56762695 9.30737305 C-13.57873001 8.15931686 -13.58983307 7.01126068 -13.60127258 5.82841492 C-13 3 -13 3 -10.5978241 1.12849426 C-6.72173539 -0.55527789 -4.20900487 -0.33943588 0 0 Z " fill="#038BFA" transform="translate(265,158)"/>
<path d="M0 0 C3.14677641 1.52135346 3.14677641 1.52135346 6.23046875 2.48828125 C8.75135549 1.4664584 11.1198494 0.393228 13.54296875 -0.82421875 C21.01553544 -4.51245888 27.79844512 -6.81868435 36.10546875 -7.76171875 C36.86988281 -7.86484375 37.63429688 -7.96796875 38.421875 -8.07421875 C43.86392259 -8.70250268 47.98944126 -8.11148568 53.23046875 -6.51171875 C53.72546875 -3.04671875 53.72546875 -3.04671875 54.23046875 0.48828125 C55.19984375 0.61203125 56.16921875 0.73578125 57.16796875 0.86328125 C58.17859375 1.06953125 59.18921875 1.27578125 60.23046875 1.48828125 C61.71812245 4.46358864 61.36602985 7.15702583 61.37573242 10.4765625 C61.37909103 11.19540619 61.38244965 11.91424988 61.38591003 12.65487671 C61.3954282 15.03686234 61.39736345 17.41877777 61.3984375 19.80078125 C61.40164903 21.45223012 61.40501302 23.10367869 61.40852356 24.75512695 C61.41451668 28.21859395 61.41636323 31.68203599 61.41577148 35.14550781 C61.41566975 39.59121662 61.429333 44.03676613 61.44654369 48.48243713 C61.45764138 51.89327739 61.4596914 55.30407883 61.45916176 58.7149353 C61.46034483 60.35444692 61.46478479 61.99395945 61.47249413 63.63345337 C61.48225101 65.92241714 61.47943346 68.21103104 61.47338867 70.5 C61.47481369 71.80412842 61.47623871 73.10825684 61.47770691 74.4519043 C61.23046875 77.48828125 61.23046875 77.48828125 59.23046875 79.48828125 C56.15775555 79.68586273 53.16763427 79.76517614 50.09375 79.76171875 C48.21809312 79.78201939 46.34244213 79.80287038 44.46679688 79.82421875 C41.50882006 79.84676318 38.55107617 79.86326515 35.59301758 79.86914062 C32.73866549 79.87870214 29.88536489 79.91253737 27.03125 79.94921875 C26.15495438 79.94417328 25.27865875 79.93912781 24.37580872 79.93392944 C18.45616977 80.02808318 15.18156967 81.25853083 10.23046875 84.48828125 C7.38671875 85.01953125 7.38671875 85.01953125 4.73046875 84.98828125 C3.415625 85.00375 3.415625 85.00375 2.07421875 85.01953125 C-0.76953125 84.48828125 -0.76953125 84.48828125 -3.83032227 82.49316406 C-8.33425952 79.86098626 -12.52330553 79.88603014 -17.640625 79.87890625 C-18.56295425 79.86237 -19.48528351 79.84583374 -20.43556213 79.82879639 C-23.3594542 79.78050678 -26.28282688 79.75898784 -29.20703125 79.73828125 C-31.19859357 79.71010564 -33.1901319 79.68017599 -35.18164062 79.6484375 C-40.04422804 79.57475293 -44.90653035 79.52506211 -49.76953125 79.48828125 C-52.07780591 75.8306489 -52.01725822 72.72095448 -52.01245117 68.45654297 C-52.01434952 67.75691437 -52.01624786 67.05728577 -52.01820374 66.3364563 C-52.0219004 64.03017882 -52.01122485 61.72421811 -52 59.41796875 C-51.99880765 57.81421953 -51.99835515 56.21046961 -51.99861145 54.60671997 C-51.9970486 51.2493247 -51.98877279 47.89203635 -51.9753418 44.53466797 C-51.95832486 40.22581554 -51.95452836 35.91708027 -51.95528698 31.60819817 C-51.95501545 28.29858273 -51.94953746 24.98899303 -51.94228554 21.67938614 C-51.93909855 20.09012166 -51.93713139 18.50085426 -51.93639183 16.91158676 C-51.93423013 14.69475044 -51.92549043 12.47803988 -51.91479492 10.26123047 C-51.91098312 8.99866425 -51.90717133 7.73609802 -51.90324402 6.43527222 C-51.76953125 3.48828125 -51.76953125 3.48828125 -50.76953125 1.48828125 C-46.29412141 0.22598617 -46.29412141 0.22598617 -43.76953125 1.48828125 C-43.83140625 0.39515625 -43.89328125 -0.69796875 -43.95703125 -1.82421875 C-43.76953125 -5.51171875 -43.76953125 -5.51171875 -42.51953125 -7.38671875 C-30.70749644 -14.9801697 -11.23517033 -5.21407253 0 0 Z M-41.76953125 -5.51171875 C-41.76953125 -3.20171875 -41.76953125 -0.89171875 -41.76953125 1.48828125 C-44.40953125 2.47828125 -47.04953125 3.46828125 -49.76953125 4.48828125 C-49.76953125 28.57828125 -49.76953125 52.66828125 -49.76953125 77.48828125 C-46.75379868 78.24221439 -44.72104631 78.62033212 -41.72290039 78.66186523 C-40.93851089 78.67535507 -40.1541214 78.68884491 -39.34596252 78.70274353 C-38.50734177 78.71318192 -37.66872101 78.7236203 -36.8046875 78.734375 C-35.0175731 78.76730677 -33.23046385 78.80051852 -31.44335938 78.83398438 C-28.63455654 78.88140796 -25.82577555 78.92586859 -23.0168457 78.96508789 C-20.30007808 79.00486871 -17.5837252 79.05638846 -14.8671875 79.109375 C-14.03059097 79.11778915 -13.19399445 79.12620331 -12.33204651 79.13487244 C-7.99087263 79.22660829 -4.76605555 79.62999842 -0.76953125 81.48828125 C2.35626069 81.72841044 2.35626069 81.72841044 5.54296875 81.61328125 C7.14591797 81.58621094 7.14591797 81.58621094 8.78125 81.55859375 C9.58949219 81.53539062 10.39773437 81.5121875 11.23046875 81.48828125 C11.23046875 80.82828125 11.23046875 80.16828125 11.23046875 79.48828125 C12.06612114 79.47282005 12.06612114 79.47282005 12.9186554 79.45704651 C18.70980567 79.34898105 24.50080036 79.23438298 30.29174805 79.1159668 C32.45382435 79.07261812 34.61593488 79.030943 36.77807617 78.9909668 C39.88340577 78.93326281 42.98856311 78.86956853 46.09375 78.8046875 C47.06258621 78.78797501 48.03142242 78.77126251 49.02961731 78.75404358 C50.38067818 78.72412575 50.38067818 78.72412575 51.7590332 78.69360352 C52.55179153 78.67805923 53.34454987 78.66251495 54.16133118 78.64649963 C56.42786649 78.55746899 56.42786649 78.55746899 59.23046875 77.48828125 C60.37967086 74.04067492 60.35751802 71.37499857 60.35986328 67.73779297 C60.3616156 67.05621124 60.36336792 66.37462952 60.36517334 65.6723938 C60.36957266 63.42089285 60.36666128 61.16947049 60.36328125 58.91796875 C60.36395468 57.35523463 60.36492504 55.79250061 60.36618042 54.22976685 C60.36765466 50.9563904 60.36551104 47.68304125 60.36083984 44.40966797 C60.35513328 40.20494867 60.35842914 36.00029307 60.36441231 31.7955761 C60.36801727 28.5700736 60.3668798 25.34458634 60.36428452 22.1190834 C60.36361555 20.56806557 60.3644426 19.01704636 60.36676407 17.46603012 C60.36929055 15.303976 60.36545054 13.14202674 60.35986328 10.97998047 C60.35906769 9.74770721 60.35827209 8.51543396 60.35745239 7.24581909 C60.54494957 4.57815184 60.54494957 4.57815184 59.23046875 3.48828125 C56.90228911 3.12067394 54.56863025 2.78586544 52.23046875 2.48828125 C51.73546875 -1.47171875 51.73546875 -1.47171875 51.23046875 -5.51171875 C43.96090661 -7.32910929 37.26473858 -6.85647536 30.23046875 -4.51171875 C29.90046875 -3.52171875 29.57046875 -2.53171875 29.23046875 -1.51171875 C30.39323907 -0.12015391 30.39323907 -0.12015391 33.609375 -0.4140625 C35.00393952 -0.42073506 36.39848618 -0.43269343 37.79296875 -0.44921875 C38.50388672 -0.45373047 39.21480469 -0.45824219 39.94726562 -0.46289062 C41.70836888 -0.47471011 43.46942911 -0.49264612 45.23046875 -0.51171875 C43.34558723 1.37316277 39.93442886 0.71154508 37.41796875 0.80078125 C26.91165818 1.36831746 18.78878437 4.19915551 10.1796875 10.2734375 C8.23046875 11.48828125 8.23046875 11.48828125 5.16796875 12.17578125 C1.69092248 11.36200446 -0.57602559 9.88867349 -3.5234375 7.921875 C-11.82096 2.62589108 -21.02276766 -0.29492533 -30.76953125 -1.51171875 C-32.08953125 -1.18171875 -33.40953125 -0.85171875 -34.76953125 -0.51171875 C-34.76953125 20.60828125 -34.76953125 41.72828125 -34.76953125 63.48828125 C-31.79953125 63.48828125 -28.82953125 63.48828125 -25.76953125 63.48828125 C-23.20020664 60.55702545 -23.20020664 60.55702545 -21.94921875 58.30859375 C-19.84061493 55.0549203 -16.6439378 53.11308343 -13.00292969 51.89941406 C-8.10633869 50.99803024 -3.05367652 51.26220229 1.91015625 51.24804688 C3.96005402 51.23837755 6.00893245 51.20734485 8.05859375 51.17578125 C23.37583549 51.11547715 23.37583549 51.11547715 29.73046875 56.67578125 C30.22546875 57.27390625 30.72046875 57.87203125 31.23046875 58.48828125 C28.23046875 57.48828125 28.23046875 57.48828125 26.23046875 54.48828125 C18.94487048 51.85663485 11.46122825 52.12103088 3.79296875 52.11328125 C2.52130859 52.08878906 1.24964844 52.06429687 -0.06054688 52.0390625 C-7.29740731 52.01655283 -13.63947091 52.29753634 -19.76953125 56.48828125 C-21.98791367 58.85101048 -23.76953125 61.12199632 -23.76953125 64.48828125 C-29.70953125 64.98328125 -29.70953125 64.98328125 -35.76953125 65.48828125 C-35.76953125 43.37828125 -35.76953125 21.26828125 -35.76953125 -1.51171875 C-29.82953125 -1.51171875 -23.88953125 -1.51171875 -17.76953125 -1.51171875 C-16.77953125 -2.17171875 -15.78953125 -2.83171875 -14.76953125 -3.51171875 C-15.95377451 -4.92749352 -15.95377451 -4.92749352 -19.33203125 -4.57421875 C-20.46640625 -4.55359375 -21.60078125 -4.53296875 -22.76953125 -4.51171875 C-22.76953125 -5.17171875 -22.76953125 -5.83171875 -22.76953125 -6.51171875 C-24.80954098 -6.73569608 -26.85169314 -6.94020412 -28.89453125 -7.13671875 C-30.03148437 -7.25273437 -31.1684375 -7.36875 -32.33984375 -7.48828125 C-35.93464924 -7.51284712 -38.45020225 -6.83339686 -41.76953125 -5.51171875 Z " fill="#1C8CE6" transform="translate(175.76953125,159.51171875)"/>
<path d="M0 0 C4.62549864 3.13174073 6.79549775 7.49942271 8.41796875 12.70703125 C9.1834502 18.35913269 6.83288629 23.56902994 3.75390625 28.1875 C3.09390625 28.1875 2.43390625 28.1875 1.75390625 28.1875 C1.42390625 29.1775 1.09390625 30.1675 0.75390625 31.1875 C-5.22048189 34.12228716 -10.84773532 34.70575454 -17.24609375 33.1875 C-21.35134858 31.27807915 -24.22767735 28.54129601 -27.24609375 25.1875 C-29.20556321 19.30909161 -29.03939752 12.61148374 -27.12109375 6.75 C-20.18194024 -2.73350979 -10.31252642 -5.81214796 0 0 Z " fill="#038BFB" transform="translate(191.24609375,175.8125)"/>
<path d="M0 0 C4.29 0 8.58 0 13 0 C13.66 1.32 14.32 2.64 15 4 C15.804375 3.34 16.60875 2.68 17.4375 2 C21.37948523 -0.66885603 25.38266643 -0.59296284 30 0 C31 1 31 1 31.1328125 2.9609375 C31.13023437 3.75757813 31.12765625 4.55421875 31.125 5.375 C31.12886719 6.56222656 31.12886719 6.56222656 31.1328125 7.7734375 C31 10 31 10 30 13 C26.71250189 14.17634286 23.38733504 14.98191614 20.00390625 15.83984375 C16.99484007 16.68229623 16.99484007 16.68229623 15.83813477 18.65161133 C14.73686801 21.73727544 14.67211351 24.45968678 14.5859375 27.734375 C14.52792969 29.67763672 14.52792969 29.67763672 14.46875 31.66015625 C14.43729733 33.02343284 14.40604993 34.38671418 14.375 35.75 C14.33679531 37.12893028 14.29774213 38.50783734 14.2578125 39.88671875 C14.16351996 43.25767718 14.0779178 46.62862978 14 50 C8.58855858 50.83970643 5.62652838 50.93775473 0 50 C0 33.5 0 17 0 0 Z " fill="#028BFB" transform="translate(352,177)"/>
<path d="M0 0 C0.33 0 0.66 0 1 0 C1 11.88 1 23.76 1 36 C-5.72948328 37.12158055 -5.72948328 37.12158055 -9.1875 36.5625 C-13.08209326 35.98788788 -15.27951066 35.75983689 -19 37 C-33.33785668 38.17799292 -33.33785668 38.17799292 -38.25 34.875 C-42.23754449 30.70620349 -43.75998713 27.86009978 -44.5 22.125 C-44.25557648 17.21772787 -42.46904989 13.46904989 -39 10 C-35.78549753 8.19800912 -32.53446866 7.01723732 -29 6 C-28.36707031 5.8040625 -27.73414063 5.608125 -27.08203125 5.40625 C-24.28034863 4.85958022 -21.60152475 4.90650517 -18.75 4.9375 C-17.67234375 4.94652344 -16.5946875 4.95554688 -15.484375 4.96484375 C-14.66453125 4.97644531 -13.8446875 4.98804688 -13 5 C-13 5.33 -13 5.66 -13 6 C-14.65 6.33 -16.3 6.66 -18 7 C-18.33 8.32 -18.66 9.64 -19 11 C-19.66 11 -20.32 11 -21 11 C-21 11.66 -21 12.32 -21 13 C-17.7 13.33 -14.4 13.66 -11 14 C-11.33 14.66 -11.66 15.32 -12 16 C-12.56847656 15.96519531 -13.13695312 15.93039063 -13.72265625 15.89453125 C-19.33720226 15.69769408 -22.99655005 16.44504683 -28 19 C-27.67 20.65 -27.34 22.3 -27 24 C-20.72654564 25.27260494 -20.72654564 25.27260494 -15 23 C-13.62810173 19.97017694 -13.62810173 19.97017694 -13 17 C-10.68138122 20.47792817 -10.75727073 21.90299252 -10.8125 26 C-10.81894531 27.051875 -10.82539063 28.10375 -10.83203125 29.1875 C-11 32 -11 32 -12 35 C-8.04 35 -4.08 35 0 35 C0 23.45 0 11.9 0 0 Z " fill="#048BF9" transform="translate(480,191)"/>
<path d="M0 0 C0.495 3.465 0.495 3.465 1 7 C1.969375 7.12375 2.93875 7.2475 3.9375 7.375 C4.948125 7.58125 5.95875 7.7875 7 8 C8.4876537 10.97530739 8.1355611 13.66874458 8.14526367 16.98828125 C8.14862228 17.70712494 8.1519809 18.42596863 8.15544128 19.16659546 C8.16495945 21.54858109 8.1668947 23.93049652 8.16796875 26.3125 C8.17118028 27.96394887 8.17454427 29.61539744 8.17805481 31.2668457 C8.18404793 34.7303127 8.18589448 38.19375474 8.18530273 41.65722656 C8.185201 46.10293537 8.19886425 50.54848488 8.21607494 54.99415588 C8.22717263 58.40499614 8.22922265 61.81579758 8.22869301 65.22665405 C8.22987608 66.86616567 8.23431604 68.5056782 8.24202538 70.14517212 C8.25178226 72.43413589 8.24896471 74.72274979 8.24291992 77.01171875 C8.24434494 78.31584717 8.24576996 79.61997559 8.24723816 80.96362305 C8 84 8 84 6 86 C5.01 86 4.02 86 3 86 C3 85.34 3 84.68 3 84 C3.99 84 4.98 84 6 84 C6 59.91 6 35.82 6 11 C3.69 10.67 1.38 10.34 -1 10 C-2 9 -2 9 -2.09765625 7.15234375 C-2.06510417 5.1015625 -2.03255208 3.05078125 -2 1 C-4.12493141 0.97306425 -6.24995912 0.95363372 -8.375 0.9375 C-9.55835938 0.92589844 -10.74171875 0.91429687 -11.9609375 0.90234375 C-14.91921521 0.78533407 -14.91921521 0.78533407 -17 2 C-18.99960012 2.039992 -21.00047242 2.04346799 -23 2 C-23 2.99 -23 3.98 -23 5 C-18.05 5.33 -13.1 5.66 -8 6 C-8 27.12 -8 48.24 -8 70 C-8.33 70 -8.66 70 -9 70 C-9 49.21 -9 28.42 -9 7 C-27.40821827 9.44062014 -27.40821827 9.44062014 -43.04296875 17.7890625 C-45.91088121 19.56361911 -47.72605955 19.72754232 -51 19 C-54.375 17 -54.375 17 -57 15 C-55.0625 14.4375 -55.0625 14.4375 -53 14 C-52.67 14.33 -52.34 14.66 -52 15 C-49.67182036 15.36760731 -47.3381615 15.70241581 -45 16 C-44.67 14.35 -44.34 12.7 -44 11 C-45.65 11 -47.3 11 -49 11 C-45.76830437 8.3594682 -42.41582727 6.66502152 -38.625 4.9375 C-37.52414063 4.43089844 -36.42328125 3.92429688 -35.2890625 3.40234375 C-29.43184109 0.90502488 -23.97556472 -0.50167064 -17.6875 -1.25 C-16.93927979 -1.34007324 -16.19105957 -1.43014648 -15.42016602 -1.52294922 C-9.84898903 -2.10493122 -5.36953611 -1.75730273 0 0 Z " fill="#6FBEEB" transform="translate(229,153)"/>
<path d="M0 0 C0.71027344 0.17402344 1.42054688 0.34804687 2.15234375 0.52734375 C7.3618463 1.8618463 7.3618463 1.8618463 9.625 4.125 C5.665 3.795 1.705 3.465 -2.375 3.125 C-2.375 2.465 -2.375 1.805 -2.375 1.125 C-4.41659095 1.0977384 -6.45828963 1.07848655 -8.5 1.0625 C-10.20542969 1.04509766 -10.20542969 1.04509766 -11.9453125 1.02734375 C-15.1879156 1.119673 -18.19432612 1.51110094 -21.375 2.125 C-21.16875 3.23875 -20.9625 4.3525 -20.75 5.5 C-20.62625 6.69625 -20.5025 7.8925 -20.375 9.125 C-22.375 11.125 -22.375 11.125 -28.375 12.125 C-28.705 36.215 -29.035 60.305 -29.375 85.125 C-15.11991955 85.37442238 -15.11991955 85.37442238 -0.86450195 85.60302734 C0.92758655 85.6382453 2.71966141 85.67416788 4.51171875 85.7109375 C5.43617798 85.72229736 6.36063721 85.73365723 7.31311035 85.74536133 C11.91057925 85.84867524 15.40089688 86.14515244 19.625 88.125 C21.9579614 88.16666002 24.2920386 88.16666002 26.625 88.125 C28.30057379 88.41020405 29.97317245 88.72455696 31.625 89.125 C31.625 88.465 31.625 87.805 31.625 87.125 C36.37537667 85.90468102 40.99666264 85.99776339 45.86328125 86.02734375 C46.74404831 86.0287587 47.62481537 86.03017365 48.53227234 86.03163147 C51.33405003 86.03721063 54.13574662 86.04975929 56.9375 86.0625 C58.84179572 86.06751769 60.74609269 86.07208013 62.65039062 86.07617188 C67.30862481 86.08717323 71.96679867 86.10442351 76.625 86.125 C76.625 86.455 76.625 86.785 76.625 87.125 C75.48023193 87.1343457 74.33546387 87.14369141 73.15600586 87.15332031 C68.8859242 87.19336199 64.6165523 87.25915952 60.34692383 87.33251953 C58.50326697 87.36064722 56.65949137 87.38190239 54.81567383 87.39599609 C52.15644903 87.41753991 49.49863966 87.4642467 46.83984375 87.515625 C45.61442116 87.51746796 45.61442116 87.51746796 44.36424255 87.51934814 C38.63900556 87.66403176 35.43203507 89.03306056 30.625 92.125 C27.78125 92.65625 27.78125 92.65625 25.125 92.625 C23.81015625 92.64046875 23.81015625 92.64046875 22.46875 92.65625 C19.625 92.125 19.625 92.125 16.56420898 90.12988281 C12.06027173 87.49770501 7.87122572 87.52274889 2.75390625 87.515625 C1.831577 87.49908875 0.90924774 87.48255249 -0.04103088 87.46551514 C-2.96492295 87.41722553 -5.88829563 87.39570659 -8.8125 87.375 C-10.80406232 87.34682439 -12.79560065 87.31689474 -14.78710938 87.28515625 C-19.64969679 87.21147168 -24.5119991 87.16178086 -29.375 87.125 C-31.68327466 83.46736765 -31.62272697 80.35767323 -31.61791992 76.09326172 C-31.61981827 75.39363312 -31.62171661 74.69400452 -31.62367249 73.97317505 C-31.62736915 71.66689757 -31.6166936 69.36093686 -31.60546875 67.0546875 C-31.6042764 65.45093828 -31.6038239 63.84718836 -31.6040802 62.24343872 C-31.60251735 58.88604345 -31.59424154 55.5287551 -31.58081055 52.17138672 C-31.56379361 47.86253429 -31.55999711 43.55379902 -31.56075573 39.24491692 C-31.5604842 35.93530148 -31.55500621 32.62571178 -31.54775429 29.31610489 C-31.5445673 27.72684041 -31.54260014 26.13757301 -31.54186058 24.54830551 C-31.53969888 22.33146919 -31.53095918 20.11475863 -31.52026367 17.89794922 C-31.51645187 16.635383 -31.51264008 15.37281677 -31.50871277 14.07199097 C-31.375 11.125 -31.375 11.125 -30.375 9.125 C-25.89959016 7.86270492 -25.89959016 7.86270492 -23.375 9.125 C-23.436875 8.031875 -23.49875 6.93875 -23.5625 5.8125 C-23.375 2.125 -23.375 2.125 -22.125 0.25 C-15.61694326 -3.93375076 -7.00653668 -1.85351158 0 0 Z " fill="#3698E6" transform="translate(155.375,151.875)"/>
<path d="M0 0 C1.35575333 0.96938676 2.69652209 1.96138404 4 3 C2.125 6.875 2.125 6.875 1 8 C-0.66617115 8.04063832 -2.33388095 8.042721 -4 8 C-3.98839844 8.71027344 -3.97679687 9.42054688 -3.96484375 10.15234375 C-3.95582031 11.07144531 -3.94679688 11.99054688 -3.9375 12.9375 C-3.92589844 13.85402344 -3.91429687 14.77054688 -3.90234375 15.71484375 C-4 18 -4 18 -5 19 C-7.86267567 19.07325168 -10.700719 19.09238205 -13.5625 19.0625 C-14.36880859 19.05798828 -15.17511719 19.05347656 -16.00585938 19.04882812 C-18.00393756 19.03700518 -20.00197783 19.01906914 -22 19 C-22 19.66 -22 20.32 -22 21 C-22.66 21 -23.32 21 -24 21 C-25.49498913 18.01002175 -25.11577446 15.29957225 -25 12 C-24.67 11.01 -24.34 10.02 -24 9 C-23.34 9 -22.68 9 -22 9 C-22 8.34 -22 7.68 -22 7 C-22.99 7 -23.98 7 -25 7 C-25 5.35 -25 3.7 -25 2 C-27.31 2.66 -29.62 3.32 -32 4 C-22.83885645 -6.27158519 -11.55764937 -6.06269677 0 0 Z M-22 10 C-24.2773501 12.81509993 -24.2773501 12.81509993 -24 16 C-17.73 16 -11.46 16 -5 16 C-6.29755587 10.32166588 -6.29755587 10.32166588 -8.6875 8.625 C-13.32828369 7.37073414 -17.96043427 7.15734263 -22 10 Z " fill="#1F95F3" transform="translate(338,180)"/>
<path d="M0 0 C0 0.33 0 0.66 0 1 C-2.97 0.67 -5.94 0.34 -9 0 C-8.01 1.485 -8.01 1.485 -7 3 C-7 6.51716303 -7.82445585 7.37121748 -10 10 C-11.051875 9.773125 -12.10375 9.54625 -13.1875 9.3125 C-17.4103555 8.9663643 -18.78084418 9.3489305 -22 12 C-22.33 12.99 -22.66 13.98 -23 15 C-27.29 15 -31.58 15 -36 15 C-37.05798244 11.82605267 -36.97794449 10.08111807 -35.98828125 6.91015625 C-33.51576518 2.13126156 -28.87688531 -1.04070306 -24.1875 -3.4375 C-15.16183212 -5.03026492 -8.23444774 -4.00111994 0 0 Z " fill="#1893F5" transform="translate(475,180)"/>
<path d="M0 0 C0.99 0.66 1.98 1.32 3 2 C4.02910439 7.4530704 4.158889 12.83838501 4.125 18.375 C4.12306641 19.16430908 4.12113281 19.95361816 4.11914062 20.7668457 C4.04065497 32.18541833 3.48282505 43.59325828 3 55 C12.9 55 22.8 55 33 55 C34.24377393 57.48754786 34.13306235 59.22655301 34.125 62 C34.12886719 63.3303125 34.12886719 63.3303125 34.1328125 64.6875 C34 67 34 67 33 69 C25.67741443 70.24151829 18.30037461 70.18620821 10.88818359 70.18530273 C8.87185982 70.18750343 6.85607231 70.20576383 4.83984375 70.22460938 C3.54949219 70.22654297 2.25914062 70.22847656 0.9296875 70.23046875 C-0.81465576 70.23663208 -0.81465576 70.23663208 -2.59423828 70.24291992 C-6.36779824 69.97376636 -9.40946527 69.15387587 -13 68 C-13.1157928 59.57695357 -13.20466267 51.15423897 -13.25906086 42.73059368 C-13.28516804 38.81921489 -13.32058464 34.90838011 -13.37719727 30.99731445 C-13.43147998 27.22364259 -13.4614121 23.45049428 -13.47438622 19.67646217 C-13.4836331 18.23586595 -13.50169059 16.79529877 -13.52865028 15.35492516 C-13.56487938 13.33935816 -13.56704183 11.32326553 -13.56762695 9.30737305 C-13.57873001 8.15931686 -13.58983307 7.01126068 -13.60127258 5.82841492 C-13 3 -13 3 -10.5978241 1.12849426 C-6.72173539 -0.55527789 -4.20900487 -0.33943588 0 0 Z M-10.63275146 4.26144409 C-12.30922724 6.39320492 -12.36997477 7.42404073 -12.35644531 10.10986328 C-12.35944641 10.93567902 -12.36244751 11.76149475 -12.36553955 12.61233521 C-12.35319275 13.50596771 -12.34084595 14.39960022 -12.328125 15.3203125 C-12.32625183 16.25237518 -12.32437866 17.18443787 -12.32244873 18.14474487 C-12.31571694 20.12696892 -12.30178023 22.10917944 -12.28125 24.09130859 C-12.25061898 27.06491023 -12.24032546 30.03797628 -12.234375 33.01171875 C-12.18729443 44.37169058 -11.81624525 55.66937699 -11 67 C-5.19761976 67.07401964 0.60448722 67.12853989 6.40722656 67.16479492 C8.38221013 67.17990462 10.35716004 67.20039328 12.33203125 67.22631836 C15.16675106 67.26260619 18.00102826 67.27970416 20.8359375 67.29296875 C21.72243988 67.30845261 22.60894226 67.32393646 23.52230835 67.33988953 C24.753358 67.34022942 24.753358 67.34022942 26.00927734 67.34057617 C27.0951564 67.35056892 27.0951564 67.35056892 28.20297241 67.36076355 C30.41971982 67.13589586 30.41971982 67.13589586 32 64 C32 61.36 32 58.72 32 56 C22.1 56 12.2 56 2 56 C2.01160156 52.42542969 2.02320313 48.85085937 2.03515625 45.16796875 C2.04295098 41.71281015 2.04902538 38.25765252 2.05493164 34.80249023 C2.05996598 32.39786339 2.06679386 29.99323962 2.07543945 27.58862305 C2.08754429 24.13589725 2.09323726 20.68321186 2.09765625 17.23046875 C2.10281754 16.15226364 2.10797882 15.07405853 2.11329651 13.96318054 C2.11337204 12.96236954 2.11344757 11.96155853 2.11352539 10.93041992 C2.11685631 9.60804573 2.11685631 9.60804573 2.12025452 8.25895691 C2.09120867 5.83137713 2.09120867 5.83137713 1 3 C-0.60332791 2.91878076 -2.20784026 2.86070866 -3.8125 2.8125 C-4.70582031 2.77769531 -5.59914063 2.74289063 -6.51953125 2.70703125 C-9.01208371 2.78582766 -9.01208371 2.78582766 -10.63275146 4.26144409 Z " fill="#4EA6E2" transform="translate(265,158)"/>
<path d="M0 0 C4.29 0 8.58 0 13 0 C13.66 1.32 14.32 2.64 15 4 C15.804375 3.34 16.60875 2.68 17.4375 2 C21.37948523 -0.66885603 25.38266643 -0.59296284 30 0 C31 1 31 1 31.1328125 2.9609375 C31.13023437 3.75757813 31.12765625 4.55421875 31.125 5.375 C31.12886719 6.56222656 31.12886719 6.56222656 31.1328125 7.7734375 C31 10 31 10 30 13 C26.71250189 14.17634286 23.38733504 14.98191614 20.00390625 15.83984375 C16.99484007 16.68229623 16.99484007 16.68229623 15.83813477 18.65161133 C14.73686801 21.73727544 14.67211351 24.45968678 14.5859375 27.734375 C14.52792969 29.67763672 14.52792969 29.67763672 14.46875 31.66015625 C14.43729733 33.02343284 14.40604993 34.38671418 14.375 35.75 C14.33679531 37.12893028 14.29774213 38.50783734 14.2578125 39.88671875 C14.16351996 43.25767718 14.0779178 46.62862978 14 50 C8.58855858 50.83970643 5.62652838 50.93775473 0 50 C0 33.5 0 17 0 0 Z M2 2 C2 17.18 2 32.36 2 48 C5.3 48 8.6 48 12 48 C12.01981934 47.16750732 12.03963867 46.33501465 12.06005859 45.47729492 C12.13820742 42.385235 12.22490206 39.29356617 12.31738281 36.2019043 C12.37444092 34.2070464 12.42164442 32.2119146 12.46875 30.21679688 C12.50742187 28.96318359 12.54609375 27.70957031 12.5859375 26.41796875 C12.6173584 25.26063232 12.6487793 24.1032959 12.68115234 22.91088867 C13 20 13 20 15 17 C15.16713569 14.37468476 15.16713569 14.37468476 15 12 C15.66 11.67 16.32 11.34 17 11 C17 11.99 17 12.98 17 14 C17.99 14 18.98 14 20 14 C20 13.34 20 12.68 20 12 C22.64 11.67 25.28 11.34 28 11 C28 8.03 28 5.06 28 2 C26.02 2 24.04 2 22 2 C22 2.66 22 3.32 22 4 C17.545 4.495 17.545 4.495 13 5 C12.67 4.01 12.34 3.02 12 2 C8.7 2 5.4 2 2 2 Z " fill="#3A99E3" transform="translate(352,177)"/>
<path d="M0 0 C0.4640625 0.9590625 0.4640625 0.9590625 0.9375 1.9375 C1.8345163 3.93610821 1.8345163 3.93610821 3 5 C3.23671983 7.52793394 3.4214325 10.02934966 3.5625 12.5625 C3.706875 15.016875 3.85125 17.47125 4 20 C-5.57 20 -15.14 20 -25 20 C-25 18.02 -25 16.04 -25 14 C-16.585 13.505 -16.585 13.505 -8 13 C-7.67 9.7 -7.34 6.4 -7 3 C-5.35 3 -3.7 3 -2 3 C-1.67 2.34 -1.34 1.68 -1 1 C-0.67 0.67 -0.34 0.34 0 0 Z " fill="#028BFB" transform="translate(341,185)"/>
<path d="M0 0 C0.33 0 0.66 0 1 0 C1 21.12 1 42.24 1 64 C3.97 64 6.94 64 10 64 C10.66 62.68 11.32 61.36 12 60 C17.01365522 54.5905299 20.61534162 51.2293086 28.08105469 50.83886719 C31.28060871 50.80145059 34.47991355 50.76889046 37.6796875 50.75976562 C39.72958527 50.7500963 41.7784637 50.7190636 43.828125 50.6875 C53.55494332 50.64920544 60.5295501 51.22990478 68 58 C67.505 58.99 67.505 58.99 67 60 C63.125 58.25 63.125 58.25 62 56 C54.66653356 53.44371133 47.25852089 53.63277769 39.5625 53.625 C38.29083984 53.60050781 37.01917969 53.57601562 35.70898438 53.55078125 C28.58118996 53.52861082 21.96926026 53.68076513 16 58 C14.32973106 60.24628769 13.24187335 62.46848894 12 65 C9 66 9 66 0 66 C0 44.22 0 22.44 0 0 Z " fill="#7ACBF0" transform="translate(140,159)"/>
<path d="M0 0 C0.33 0.66 0.66 1.32 1 2 C2.30670654 2.01981934 3.61341309 2.03963867 4.9597168 2.06005859 C9.8147282 2.13621719 14.66944392 2.22491906 19.52416992 2.31738281 C21.62404537 2.35563014 23.72398538 2.3904904 25.82397461 2.421875 C28.84512381 2.4676175 31.86583016 2.52559723 34.88671875 2.5859375 C35.82335861 2.59748871 36.75999847 2.60903992 37.72502136 2.62094116 C42.30846175 2.72436862 45.78864596 3.02612796 50 5 C52.3329614 5.04166002 54.6670386 5.04166002 57 5 C58.67557379 5.28520405 60.34817245 5.59955696 62 6 C62 5.34 62 4.68 62 4 C66.75037667 2.77968102 71.37166264 2.87276339 76.23828125 2.90234375 C77.11904831 2.9037587 77.99981537 2.90517365 78.90727234 2.90663147 C81.70905003 2.91221063 84.51074662 2.92475929 87.3125 2.9375 C89.21679572 2.94251769 91.12109269 2.94708013 93.02539062 2.95117188 C97.68362481 2.96217323 102.34179867 2.97942351 107 3 C107 3.33 107 3.66 107 4 C105.85523193 4.0093457 104.71046387 4.01869141 103.53100586 4.02832031 C99.2609242 4.06836199 94.9915523 4.13415952 90.72192383 4.20751953 C88.87826697 4.23564722 87.03449137 4.25690239 85.19067383 4.27099609 C82.53144903 4.29253991 79.87363966 4.3392467 77.21484375 4.390625 C75.98942116 4.39246796 75.98942116 4.39246796 74.73924255 4.39434814 C69.01400556 4.53903176 65.80703507 5.90806056 61 9 C58.15625 9.53125 58.15625 9.53125 55.5 9.5 C54.6234375 9.5103125 53.746875 9.520625 52.84375 9.53125 C50 9 50 9 46.93920898 7.00488281 C42.43527173 4.37270501 38.24622572 4.39774889 33.12890625 4.390625 C31.74541237 4.36582062 31.74541237 4.36582062 30.33396912 4.34051514 C27.41007705 4.29222553 24.48670437 4.27070659 21.5625 4.25 C19.57093768 4.22182439 17.57939935 4.19189474 15.58789062 4.16015625 C10.72530321 4.08647168 5.8630009 4.03678086 1 4 C0.67 2.68 0.34 1.36 0 0 Z " fill="#469BDB" transform="translate(125,235)"/>
<path d="M0 0 C0.33 0 0.66 0 1 0 C1 11.88 1 23.76 1 36 C-5.72948328 37.12158055 -5.72948328 37.12158055 -9.1875 36.5625 C-13.08209326 35.98788788 -15.27951066 35.75983689 -19 37 C-33.33785668 38.17799292 -33.33785668 38.17799292 -38.25 34.875 C-42.28502813 30.6565615 -44.14630429 27.46449178 -44.1875 21.625 C-44.125625 20.42875 -44.06375 19.2325 -44 18 C-43.690625 18.639375 -43.38125 19.27875 -43.0625 19.9375 C-42.1654837 21.93610821 -42.1654837 21.93610821 -41 23 C-40.95919217 24.99958364 -40.95745644 27.00045254 -41 29 C-40.34 29 -39.68 29 -39 29 C-39 29.99 -39 30.98 -39 32 C-37.68 32 -36.36 32 -35 32 C-35 32.66 -35 33.32 -35 34 C-28.73 34 -22.46 34 -16 34 C-16 33.34 -16 32.68 -16 32 C-14.68 32 -13.36 32 -12 32 C-12 32.99 -12 33.98 -12 35 C-8.04 35 -4.08 35 0 35 C0 23.45 0 11.9 0 0 Z " fill="#56ABE8" transform="translate(480,191)"/>
<path d="M0 0 C0.33 0 0.66 0 1 0 C1.77928871 5.50449964 2.15900519 10.81940166 2.125 16.375 C2.12306641 17.16430908 2.12113281 17.95361816 2.11914062 18.7668457 C2.04065497 30.18541833 1.48282505 41.59325828 1 53 C10.9 53 20.8 53 31 53 C32.24377393 55.48754786 32.13306235 57.22655301 32.125 60 C32.12886719 61.3303125 32.12886719 61.3303125 32.1328125 62.6875 C32 65 32 65 31 67 C28.36 67 25.72 67 23 67 C23 66.67 23 66.34 23 66 C24.98 66 26.96 66 29 66 C29.33 62.04 29.66 58.08 30 54 C20.1 54 10.2 54 0 54 C0 36.18 0 18.36 0 0 Z " fill="#7CBCEC" transform="translate(267,160)"/>
<path d="M0 0 C2.57854277 2.24221111 3.42794522 3.64768379 4 7 C4.08332859 9.6916032 4.11629936 12.3560833 4.09765625 15.046875 C4.0962413 15.81807678 4.09482635 16.58927856 4.09336853 17.3838501 C4.08778534 19.83927338 4.07523595 22.29460442 4.0625 24.75 C4.05748283 26.41796743 4.0529203 28.08593629 4.04882812 29.75390625 C4.03782141 33.83597287 4.02056836 37.91797081 4 42 C0 44 0 44 -11 43 C-11 32.77 -11 22.54 -11 12 C-10.67 12 -10.34 12 -10 12 C-10 21.9 -10 31.8 -10 42 C-6.04 42 -2.08 42 2 42 C1.88092069 37.30421641 1.7566255 32.60860913 1.62768555 27.91308594 C1.58461643 26.31872216 1.54292424 24.72432053 1.50268555 23.12988281 C1.44429695 20.82605625 1.38080789 18.52241541 1.31640625 16.21875 C1.29969376 15.51633179 1.28298126 14.81391357 1.26576233 14.09020996 C1.12638411 9.33762717 0.64888703 4.71078129 0 0 Z " fill="#88C5E8" transform="translate(428,184)"/>
<path d="M0 0 C0.33 1.65 0.66 3.3 1 5 C5.455 4.505 5.455 4.505 10 4 C7.51541618 5.65638921 5.40948793 6.73731247 2.6875 7.875 C-0.27644099 9.15074159 -2.51845021 10.36596485 -5.1875 12.25 C-8.54810466 14.3410429 -10.11082323 14.64819613 -14 14 C-17.375 12 -17.375 12 -20 10 C-18.0625 9.4375 -18.0625 9.4375 -16 9 C-15.67 9.33 -15.34 9.66 -15 10 C-12.67182036 10.36760731 -10.3381615 10.70241581 -8 11 C-7.67 9.35 -7.34 7.7 -7 6 C-8.65 6 -10.3 6 -12 6 C-8.59780735 3.25207517 -4.51535412 0 0 0 Z " fill="#44A2E9" transform="translate(192,158)"/>
<path d="M0 0 C3.3 0 6.6 0 10 0 C10 0.33 10 0.66 10 1 C9.38511719 1.07476562 8.77023437 1.14953125 8.13671875 1.2265625 C7.32847656 1.35804688 6.52023437 1.48953125 5.6875 1.625 C4.88699219 1.74101562 4.08648437 1.85703125 3.26171875 1.9765625 C0.16643204 3.09085305 0.16643204 3.09085305 -2 9 C4.27 9 10.54 9 17 9 C14.66151858 3.08268982 14.66151858 3.08268982 11 1 C16.875 1.875 16.875 1.875 18 3 C18.1328125 4.8125 18.1328125 4.8125 18.125 7 C18.12886719 8.0828125 18.12886719 8.0828125 18.1328125 9.1875 C18 11 18 11 17 12 C14.13732433 12.07325168 11.299281 12.09238205 8.4375 12.0625 C7.63119141 12.05798828 6.82488281 12.05347656 5.99414062 12.04882812 C3.99606244 12.03700518 1.99802217 12.01906914 0 12 C0 12.66 0 13.32 0 14 C-0.66 14 -1.32 14 -2 14 C-3.49498913 11.01002175 -3.11577446 8.29957225 -3 5 C-2.67 4.01 -2.34 3.02 -2 2 C-1.34 2 -0.68 2 0 2 C0 1.34 0 0.68 0 0 Z " fill="#4DA7E5" transform="translate(316,187)"/>
<path d="M0 0 C2.35119399 3.52679099 2.21443452 5.02879485 2.125 9.1875 C2.10695313 10.27417969 2.08890625 11.36085937 2.0703125 12.48046875 C2.03550781 13.72763672 2.03550781 13.72763672 2 15 C-5.625 16.25 -5.625 16.25 -9 14 C-9.99 13.67 -10.98 13.34 -12 13 C-12 11.68 -12 10.36 -12 9 C-10.95199219 8.77957031 -10.95199219 8.77957031 -9.8828125 8.5546875 C-7.12149286 7.87413563 -4.59363365 7.17228806 -2 6 C-0.23902514 2.98226415 -0.23902514 2.98226415 0 0 Z " fill="#0F8EF5" transform="translate(467,208)"/>
<path d="M0 0 C0.33 0 0.66 0 1 0 C1 5.61 1 11.22 1 17 C14.53 17 28.06 17 42 17 C42.33 16.34 42.66 15.68 43 15 C43 15.99 43 16.98 43 18 C39.3342549 20.34973213 35.81263702 20.27481253 31.6015625 20.23046875 C30.88898285 20.23001053 30.1764032 20.22955231 29.44223022 20.2290802 C27.93770682 20.2260656 26.43318632 20.21820299 24.92871094 20.20581055 C22.63985986 20.18761811 20.35141569 20.18530065 18.0625 20.18554688 C16.59635071 20.18062839 15.13020413 20.17479863 13.6640625 20.16796875 C12.98574371 20.16685593 12.30742493 20.1657431 11.60855103 20.16459656 C7.5574716 20.12467001 4.05483812 19.67580635 0 19 C0 12.73 0 6.46 0 0 Z " fill="#2E8FDB" transform="translate(253,208)"/>
<path d="M0 0 C0 0.66 0 1.32 0 2 C-0.99 2.495 -0.99 2.495 -2 3 C-2.90725434 5.11327425 -2.90725434 5.11327425 -3.625 7.5625 C-4.01558594 8.80193359 -4.01558594 8.80193359 -4.4140625 10.06640625 C-4.60742188 10.70449219 -4.80078125 11.34257812 -5 12 C-2.36 12.33 0.28 12.66 3 13 C3 12.01 3 11.02 3 10 C3.99 10 4.98 10 6 10 C5.67 9.01 5.34 8.02 5 7 C6.95825873 6.97305149 8.91662226 6.95362782 10.875 6.9375 C12.51082031 6.92009766 12.51082031 6.92009766 14.1796875 6.90234375 C17 7 17 7 19 8 C18.67 8.66 18.34 9.32 18 10 C16.948125 9.773125 15.89625 9.54625 14.8125 9.3125 C10.5896445 8.9663643 9.21915582 9.3489305 6 12 C5.67 12.99 5.34 13.98 5 15 C0.71 15 -3.58 15 -8 15 C-9.35462193 10.9361342 -8.5066082 8.97196708 -7 5 C-2.74468085 0 -2.74468085 0 0 0 Z " fill="#248EE4" transform="translate(447,180)"/>
<path d="M0 0 C2 3.75 2 3.75 2 6 C3.98 6.66 5.96 7.32 8 8 C8 8.66 8 9.32 8 10 C8.9590625 10.2165625 8.9590625 10.2165625 9.9375 10.4375 C12 11 12 11 13 12 C14.4887186 12.08669432 15.981445 12.10703494 17.47265625 12.09765625 C18.82133789 12.09282227 18.82133789 12.09282227 20.19726562 12.08789062 C21.61555664 12.07532227 21.61555664 12.07532227 23.0625 12.0625 C24.01189453 12.05798828 24.96128906 12.05347656 25.93945312 12.04882812 C28.29303065 12.0370011 30.64648477 12.02052025 33 12 C33 11.34 33 10.68 33 10 C34.32 10 35.64 10 37 10 C37.33 8.68 37.66 7.36 38 6 C38.99 6.33 39.98 6.66 41 7 C36.48264585 11.91594422 32.77098092 14.64678208 26.046875 15.50390625 C24.61512589 15.547899 23.18241877 15.56666447 21.75 15.5625 C20.63153687 15.5632251 20.63153687 15.5632251 19.49047852 15.56396484 C12.99436799 15.3682013 7.80854716 13.5604403 3 9 C3 8.34 3 7.68 3 7 C2.34 7 1.68 7 1 7 C-0.0625 4.625 -0.0625 4.625 -1 2 C-0.67 1.34 -0.34 0.68 0 0 Z " fill="#4DA4E5" transform="translate(303,213)"/>
<path d="M0 0 C0.71027344 0.17402344 1.42054688 0.34804687 2.15234375 0.52734375 C7.3618463 1.8618463 7.3618463 1.8618463 9.625 4.125 C5.665 3.795 1.705 3.465 -2.375 3.125 C-2.375 2.465 -2.375 1.805 -2.375 1.125 C-4.41659095 1.0977384 -6.45828963 1.07848655 -8.5 1.0625 C-10.20542969 1.04509766 -10.20542969 1.04509766 -11.9453125 1.02734375 C-15.1879156 1.119673 -18.19432612 1.51110094 -21.375 2.125 C-21.16875 3.23875 -20.9625 4.3525 -20.75 5.5 C-20.62625 6.69625 -20.5025 7.8925 -20.375 9.125 C-22.375 11.125 -22.375 11.125 -24.3203125 11.3203125 C-26.33854167 11.25520833 -28.35677083 11.19010417 -30.375 11.125 C-30.375 10.465 -30.375 9.805 -30.375 9.125 C-25.625 8 -25.625 8 -23.375 9.125 C-23.436875 8.031875 -23.49875 6.93875 -23.5625 5.8125 C-23.375 2.125 -23.375 2.125 -22.125 0.25 C-15.61694326 -3.93375076 -7.00653668 -1.85351158 0 0 Z " fill="#53A5E5" transform="translate(155.375,151.875)"/>
<path d="M0 0 C3.38130533 2.61282685 4.35763617 5.92682937 5 10 C5.20031774 13.67583059 5.27325784 17.32690627 5 21 C3.0769111 22.9230889 -0.47070485 22.25321838 -3.09765625 22.31640625 C-3.80651474 22.33718735 -4.51537323 22.35796844 -5.24571228 22.37937927 C-7.51787305 22.44494598 -9.79015264 22.5037923 -12.0625 22.5625 C-13.59962183 22.60567849 -15.1367315 22.64929255 -16.67382812 22.69335938 C-20.4490959 22.80063449 -24.2244836 22.90188137 -28 23 C-28 22.34 -28 21.68 -28 21 C-12.655 20.505 -12.655 20.505 3 20 C2.67 19.01 2.34 18.02 2 17 C1.79947117 15.04484389 1.63690247 13.08563891 1.5 11.125 C1.2338471 7.33232124 0.82228007 3.71396497 0 0 Z " fill="#66ABDF" transform="translate(342,185)"/>
<path d="M0 0 C1 1 1 1 1.1328125 2.9609375 C1.13023437 3.75757813 1.12765625 4.55421875 1.125 5.375 C1.12886719 6.56222656 1.12886719 6.56222656 1.1328125 7.7734375 C1 10 1 10 0 13 C-2.38066801 13.87987606 -4.61481901 14.57258894 -7.0625 15.1875 C-7.72572266 15.36474609 -8.38894531 15.54199219 -9.07226562 15.72460938 C-10.71187426 16.16105196 -12.35559238 16.58200219 -14 17 C-14 16.01 -14 15.02 -14 14 C-12.68 14 -11.36 14 -10 14 C-10 13.34 -10 12.68 -10 12 C-7.36 11.67 -4.72 11.34 -2 11 C-2 8.03 -2 5.06 -2 2 C-3.98 2 -5.96 2 -8 2 C-8 2.66 -8 3.32 -8 4 C-10.97 4.66 -13.94 5.32 -17 6 C-16.67 4.68 -16.34 3.36 -16 2 C-15.67 2.66 -15.34 3.32 -15 4 C-14.195625 3.34 -13.39125 2.68 -12.5625 2 C-8.62051477 -0.66885603 -4.61733357 -0.59296284 0 0 Z " fill="#3E99E4" transform="translate(382,177)"/>
<path d="M0 0 C3.875 2.625 3.875 2.625 5 6 C5.085409 8.94964113 5.11582927 11.87503019 5.09765625 14.82421875 C5.0962413 15.68561966 5.09482635 16.54702057 5.09336853 17.43452454 C5.0877714 20.18555169 5.07521946 22.93649744 5.0625 25.6875 C5.05748463 27.5527332 5.05292179 29.41796767 5.04882812 31.28320312 C5.03780292 35.85550011 5.02054027 40.42773625 5 45 C1.04 45 -2.92 45 -7 45 C-7 44.67 -7 44.34 -7 44 C-3.7 44 -0.4 44 3 44 C3.07479497 39.46512356 3.12890262 34.93061518 3.16479492 30.39526367 C3.17977543 28.85613745 3.2001671 27.31705312 3.22631836 25.77807617 C3.36627816 17.32285772 3.31999378 9.93835783 0 2 C0 1.34 0 0.68 0 0 Z " fill="#1487E5" transform="translate(475,181)"/>
<path d="M0 0 C0.66 0 1.32 0 2 0 C1.76120117 1.08112061 1.76120117 1.08112061 1.51757812 2.18408203 C1.02738279 4.85102215 0.81509919 7.34819785 0.71875 10.0546875 C0.68136719 10.99957031 0.64398438 11.94445312 0.60546875 12.91796875 C0.57066406 13.89378906 0.53585937 14.86960938 0.5 15.875 C0.28032372 21.98525493 0.00876266 27.96423676 -1 34 C-4.96 34 -8.92 34 -13 34 C-13 32.02 -13 30.04 -13 28 C-12.67 28 -12.34 28 -12 28 C-12 29.65 -12 31.3 -12 33 C-8.7 33 -5.4 33 -2 33 C-2.00523682 32.2793335 -2.01047363 31.55866699 -2.01586914 30.81616211 C-2.03676875 27.52328375 -2.04970131 24.23041941 -2.0625 20.9375 C-2.07087891 19.80376953 -2.07925781 18.67003906 -2.08789062 17.50195312 C-2.10420493 11.90614513 -2.11490805 6.49657465 -1 1 C-0.67 0.67 -0.34 0.34 0 0 Z " fill="#0C88EC" transform="translate(400,192)"/>
<path d="M0 0 C0.99 0 1.98 0 3 0 C2.67 0.99 2.34 1.98 2 3 C1.34 3 0.68 3 0 3 C-0.33 3.99 -0.66 4.98 -1 6 C-6.97438814 8.93478716 -12.60164157 9.51825454 -19 8 C-22.2163817 6.42754672 -24.60244248 4.649932 -27 2 C-26.01 1.67 -25.02 1.34 -24 1 C-23.2471875 1.63292969 -22.494375 2.26585937 -21.71875 2.91796875 C-18.36339965 5.48751148 -16.66704018 5.45367309 -12.5 5.3125 C-11.3965625 5.28800781 -10.293125 5.26351562 -9.15625 5.23828125 C-6.35151994 5.02653802 -3.7376248 4.6282236 -1 4 C-0.67 2.68 -0.34 1.36 0 0 Z " fill="#3E9CE3" transform="translate(193,201)"/>
<path d="M0 0 C1.70294787 1.28667172 3.37946188 2.61096733 5 4 C4.67 4.66 4.34 5.32 4 6 C3.113125 5.360625 2.22625 4.72125 1.3125 4.0625 C-4.07066878 0.71071567 -9.74406914 0.29576763 -16 1 C-18.34261608 2.37926773 -18.34261608 2.37926773 -20 4 C-20.99 4 -21.98 4 -23 4 C-23.33 3.34 -23.66 2.68 -24 2 C-26.80980673 1.30772968 -26.80980673 1.30772968 -30.0625 0.875 C-31.71958984 0.62363281 -31.71958984 0.62363281 -33.41015625 0.3671875 C-34.26480469 0.24601563 -35.11945313 0.12484375 -36 0 C-36 -0.33 -36 -0.66 -36 -1 C-31.71 -1 -27.42 -1 -23 -1 C-22.67 -0.34 -22.34 0.32 -22 1 C-21.443125 0.7834375 -20.88625 0.566875 -20.3125 0.34375 C-13.39151539 -2.18147411 -6.85543374 -3.70563986 0 0 Z " fill="#77BBE9" transform="translate(423,178)"/>
<path d="M0 0 C2.67114878 1.41413759 4.62792601 2.97583439 6.6875 5.1875 C6.0275 6.5075 5.3675 7.8275 4.6875 9.1875 C4.6875 8.1975 4.6875 7.2075 4.6875 6.1875 C1.7175 5.6925 1.7175 5.6925 -1.3125 5.1875 C-1.6425 4.1975 -1.9725 3.2075 -2.3125 2.1875 C-5.9425 1.5275 -9.5725 0.8675 -13.3125 0.1875 C-13.3125 0.8475 -13.3125 1.5075 -13.3125 2.1875 C-15.2925 2.1875 -17.2725 2.1875 -19.3125 2.1875 C-13.28551484 -2.59252271 -6.9197272 -3.34496038 0 0 Z " fill="#3296E8" transform="translate(189.3125,174.8125)"/>
<path d="M0 0 C0.33 0 0.66 0 1 0 C1 11.88 1 23.76 1 36 C-5.72948328 37.12158055 -5.72948328 37.12158055 -9.1875 36.5625 C-12.85234976 35.92701956 -12.85234976 35.92701956 -16 36 C-17.33981486 35.6937566 -18.67511887 35.36548445 -20 35 C-18.02 34.505 -18.02 34.505 -16 34 C-16 33.34 -16 32.68 -16 32 C-14.68 32 -13.36 32 -12 32 C-12 32.99 -12 33.98 -12 35 C-8.04 35 -4.08 35 0 35 C0 23.45 0 11.9 0 0 Z " fill="#59A0D7" transform="translate(480,191)"/>
<path d="M0 0 C0 2.97 0 5.94 0 9 C1.98 9 3.96 9 6 9 C6 9.33 6 9.66 6 10 C3.66705225 10.04241723 1.33297433 10.04092937 -1 10 C-2 9 -2 9 -2.09765625 7.15234375 C-2.06510417 5.1015625 -2.03255208 3.05078125 -2 1 C-4.12493141 0.97306425 -6.24995912 0.95363372 -8.375 0.9375 C-9.55835938 0.92589844 -10.74171875 0.91429687 -11.9609375 0.90234375 C-14.91921521 0.78533407 -14.91921521 0.78533407 -17 2 C-18.54023996 2.06950541 -20.08334988 2.08452357 -21.625 2.0625 C-22.85089844 2.04896484 -22.85089844 2.04896484 -24.1015625 2.03515625 C-25.04128906 2.01775391 -25.04128906 2.01775391 -26 2 C-26 1.34 -26 0.68 -26 0 C-8.14350797 -2.66514806 -8.14350797 -2.66514806 0 0 Z " fill="#3997DF" transform="translate(229,153)"/>
<path d="M0 0 C4.62 0.66 9.24 1.32 14 2 C13.67 2.66 13.34 3.32 13 4 C12.43152344 3.96519531 11.86304688 3.93039063 11.27734375 3.89453125 C5.66279774 3.69769408 2.00344995 4.44504683 -3 7 C-2.42547254 10.93075644 -2.42547254 10.93075644 0 14 C-1.98 14.33 -3.96 14.66 -6 15 C-6.25 7.375 -6.25 7.375 -4 4 C-3.01 4 -2.02 4 -1 4 C-0.67 2.68 -0.34 1.36 0 0 Z " fill="#58A9E9" transform="translate(455,203)"/>
<path d="M0 0 C1.74627478 2.61941217 2.38722388 4.03824877 3 7 C1.68 7.33 0.36 7.66 -1 8 C-1.33 9.98 -1.66 11.96 -2 14 C-2.33 14 -2.66 14 -3 14 C-3.33 17.96 -3.66 21.92 -4 26 C-7.46755605 19.06488791 -6.09438566 13.42473118 -3.94921875 6.296875 C-2.93911712 3.85267847 -1.66991 2.03944191 0 0 Z " fill="#42A5F0" transform="translate(305,184)"/>
<path d="M0 0 C3.0390625 -0.29296875 3.0390625 -0.29296875 6.625 -0.1875 C7.81351562 -0.16042969 9.00203125 -0.13335937 10.2265625 -0.10546875 C11.14179688 -0.07066406 12.05703125 -0.03585938 13 0 C13.125 2.875 13.125 2.875 13 6 C12.34 6.66 11.68 7.32 11 8 C11.33 6.02 11.66 4.04 12 2 C10.20741442 2.08693141 8.41584856 2.19510504 6.625 2.3125 C5.12839844 2.39951172 5.12839844 2.39951172 3.6015625 2.48828125 C2.74304688 2.65714844 1.88453125 2.82601562 1 3 C0.01 4.485 0.01 4.485 -1 6 C-3.6015625 6.29296875 -3.6015625 6.29296875 -6.625 6.1875 C-8.12933594 6.14689453 -8.12933594 6.14689453 -9.6640625 6.10546875 C-10.82035156 6.05326172 -10.82035156 6.05326172 -12 6 C-12 5.67 -12 5.34 -12 5 C-10.95199219 4.83564453 -10.95199219 4.83564453 -9.8828125 4.66796875 C-8.51769531 4.43013672 -8.51769531 4.43013672 -7.125 4.1875 C-5.76761719 3.96126953 -5.76761719 3.96126953 -4.3828125 3.73046875 C-1.65587522 3.16948699 -1.65587522 3.16948699 0 0 Z " fill="#54A6E0" transform="translate(333,211)"/>
<path d="M0 0 C-0.125 1.8125 -0.125 1.8125 -1 4 C-3.8125 5.875 -3.8125 5.875 -7 7 C-9.375 6.1875 -9.375 6.1875 -11 5 C-10.875 3.125 -10.875 3.125 -10 1 C-6.36961463 -0.69417984 -3.80522763 -1.46354909 0 0 Z " fill="#078AF4" transform="translate(202,157)"/>
<path d="M0 0 C2.475 0.495 2.475 0.495 5 1 C5 2.32 5 3.64 5 5 C5.66 5 6.32 5 7 5 C7.33 15.56 7.66 26.12 8 37 C7.34 37 6.68 37 6 37 C6 27.1 6 17.2 6 7 C5.34 7 4.68 7 4 7 C3.566875 5.824375 3.566875 5.824375 3.125 4.625 C2.15087746 1.90328368 2.15087746 1.90328368 0 0 Z " fill="#3293DF" transform="translate(412,189)"/>
<path d="M0 0 C0.66 0.33 1.32 0.66 2 1 C2 2.65 2 4.3 2 6 C1.67 5.01 1.34 4.02 1 3 C-0.62600941 3.0870005 -2.25089678 3.1951781 -3.875 3.3125 C-4.77992188 3.37050781 -5.68484375 3.42851562 -6.6171875 3.48828125 C-9.36221601 3.7882039 -9.36221601 3.7882039 -11 7 C-11 5.02 -11 3.04 -11 1 C-7.10835652 -0.29721449 -4.10570774 -0.13033993 0 0 Z " fill="#3E9CE3" transform="translate(265,158)"/>
<path d="M0 0 C0 0.33 0 0.66 0 1 C-4.87070187 2.88989379 -9.22391338 3.4014447 -14.375 3.625 C-15.47908203 3.68300781 -15.47908203 3.68300781 -16.60546875 3.7421875 C-18.40327406 3.83557998 -20.20160108 3.9188371 -22 4 C-16.5412381 -1.4587619 -7.12857604 -0.21385728 0 0 Z " fill="#55A9E4" transform="translate(467,196)"/>
<path d="M0 0 C2.00720923 0.28674418 4.0085944 0.61866701 6 1 C3 2 3 2 1 2 C0.67 3.32 0.34 4.64 0 6 C-2.31 6 -4.62 6 -7 6 C-7.33 4.68 -7.66 3.36 -8 2 C-6.865625 1.855625 -5.73125 1.71125 -4.5625 1.5625 C-1.19222799 1.38828522 -1.19222799 1.38828522 0 0 Z " fill="#048BF8" transform="translate(184,163)"/>
<path d="M0 0 C1.53445094 3.06890187 0.54984289 5.70094266 0 9 C3.3 9.33 6.6 9.66 10 10 C10.33 9.34 10.66 8.68 11 8 C11 8.99 11 9.98 11 11 C6.71 11 2.42 11 -2 11 C-3.31826804 7.04519588 -2.29536133 4.88608399 -1 1 C-0.67 0.67 -0.34 0.34 0 0 Z " fill="#6BB5E5" transform="translate(441,184)"/>
<path d="M0 0 C5.28 0.33 10.56 0.66 16 1 C16 1.66 16 2.32 16 3 C11.05 3 6.1 3 1 3 C0.67 2.01 0.34 1.02 0 0 Z " fill="#439FE5" transform="translate(445,225)"/>
<path d="M0 0 C0.66 0 1.32 0 2 0 C2.02698189 1.62490954 2.04638757 3.24994633 2.0625 4.875 C2.07410156 5.77992188 2.08570313 6.68484375 2.09765625 7.6171875 C2 10 2 10 1 12 C-1.64 12 -4.28 12 -7 12 C-7 11.67 -7 11.34 -7 11 C-5.02 11 -3.04 11 -1 11 C-0.67 7.37 -0.34 3.74 0 0 Z " fill="#67AFE1" transform="translate(297,215)"/>
<path d="M0 0 C0.66 0 1.32 0 2 0 C1.84152588 0.71567139 1.68305176 1.43134277 1.51977539 2.16870117 C1.01543043 4.91594802 0.79773833 7.5123923 0.68359375 10.30078125 C0.64169922 11.27724609 0.59980469 12.25371094 0.55664062 13.25976562 C0.51732422 14.26716797 0.47800781 15.27457031 0.4375 16.3125 C0.39431641 17.33923828 0.35113281 18.36597656 0.30664062 19.42382812 C0.20093175 21.94909569 0.09883532 24.47445562 0 27 C-0.33 27 -0.66 27 -1 27 C-1.02886537 22.68751391 -1.04675255 18.37505238 -1.0625 14.0625 C-1.07087891 12.83080078 -1.07925781 11.59910156 -1.08789062 10.33007812 C-1.09111328 9.16025391 -1.09433594 7.99042969 -1.09765625 6.78515625 C-1.10289307 5.70113525 -1.10812988 4.61711426 -1.11352539 3.50024414 C-1 1 -1 1 0 0 Z " fill="#2E8DD6" transform="translate(400,192)"/>
<path d="M0 0 C2.70931527 3.43424017 3.83155967 5.53633138 4 10 C3.20706422 13.08588384 2.16559262 16.03662894 1 19 C-0.25433458 15.23699626 -0.10695422 11.72789091 -0.0625 7.8125 C-0.05798828 7.06291016 -0.05347656 6.31332031 -0.04882812 5.54101562 C-0.03706354 3.69397617 -0.01912865 1.84697787 0 0 Z " fill="#5CA8E4" transform="translate(196,182)"/>
<path d="M0 0 C1.6875 1.375 1.6875 1.375 3 3 C3 3.66 3 4.32 3 5 C-1.29 4.34 -5.58 3.68 -10 3 C-10 2.34 -10 1.68 -10 1 C-3.375 0 -3.375 0 0 0 Z " fill="#1188E9" transform="translate(330,184)"/>
<path d="M0 0 C0.33 0.99 0.66 1.98 1 3 C-1 6 -1 6 -4 7 C-5.56118428 7.06740865 -7.1250252 7.08514456 -8.6875 7.0625 C-9.89986328 7.04896484 -9.89986328 7.04896484 -11.13671875 7.03515625 C-12.05904297 7.01775391 -12.05904297 7.01775391 -13 7 C-13 6.34 -13 5.68 -13 5 C-9.7 5 -6.4 5 -3 5 C-2.34 3.68 -1.68 2.36 -1 1 C-0.67 0.67 -0.34 0.34 0 0 Z " fill="#3D96DD" transform="translate(153,218)"/>
<path d="M0 0 C1.13050781 0.06703125 2.26101562 0.1340625 3.42578125 0.203125 C6.8404778 0.77564897 8.87098108 1.78424946 11.6875 3.75 C8.57268088 5.30740956 6.14953845 4.13121038 2.8125 3.375 C1.57757813 3.09914062 0.34265625 2.82328125 -0.9296875 2.5390625 C-3.39704355 1.96353603 -5.85839674 1.37894104 -8.3125 0.75 C-5.44817463 -0.68216269 -3.17903036 -0.21601565 0 0 Z " fill="#51ABE7" transform="translate(149.3125,157.25)"/>
<path d="M0 0 C1.06478766 3.83323559 1.38134967 7.61009612 1.71875 11.5625 C1.97564479 13.78892155 2.40104489 15.84376162 3 18 C2.01 18 1.02 18 0 18 C-1.07427471 14.77717587 -1.1332963 12.38488847 -1.125 9 C-1.12757813 7.948125 -1.13015625 6.89625 -1.1328125 5.8125 C-1 3 -1 3 0 0 Z " fill="#63ABE2" transform="translate(164,183)"/>
<path d="M0 0 C0.33 0.99 0.66 1.98 1 3 C-3.62 4.32 -8.24 5.64 -13 7 C-13 6.01 -13 5.02 -13 4 C-11.68 4 -10.36 4 -9 4 C-9 3.34 -9 2.68 -9 2 C-6.03 2 -3.06 2 0 2 C0 1.34 0 0.68 0 0 Z " fill="#5EACE5" transform="translate(381,187)"/>
<path d="M0 0 C1.95825873 -0.02694851 3.91662226 -0.04637218 5.875 -0.0625 C6.96554687 -0.07410156 8.05609375 -0.08570313 9.1796875 -0.09765625 C12 0 12 0 14 1 C13.67 1.66 13.34 2.32 13 3 C11.96875 2.773125 10.9375 2.54625 9.875 2.3125 C5.5162183 1.96098535 3.67269225 2.76055351 0 5 C0 3.35 0 1.7 0 0 Z " fill="#61B2E4" transform="translate(452,187)"/>
<path d="M0 0 C2.57982415 1.90682654 3.01377977 3.05971233 3.75 6.25 C4.00160974 10.02414612 3.68161328 13.28899434 3 17 C2.67 17 2.34 17 2 17 C1.93941406 16.19175781 1.87882812 15.38351563 1.81640625 14.55078125 C1.73261719 13.48214844 1.64882813 12.41351563 1.5625 11.3125 C1.48128906 10.25675781 1.40007812 9.20101562 1.31640625 8.11328125 C1.03548319 5.34913703 0.59843148 2.71054259 0 0 Z " fill="#43A1E8" transform="translate(342,185)"/>
<path d="M0 0 C4.05281712 1.22527029 7.44360764 2.69880494 11 5 C10.34 5.66 9.68 6.32 9 7 C7.68176698 6.40844669 6.37052949 5.80128537 5.0625 5.1875 C4.33160156 4.85105469 3.60070312 4.51460937 2.84765625 4.16796875 C1 3 1 3 0 0 Z " fill="#56ACEA" transform="translate(169,157)"/>
<path d="M0 0 C2 3 2 3 1.75 5.625 C1.5025 6.40875 1.255 7.1925 1 8 C-1.70879335 9.35439668 -4.00933268 9.06501451 -7 9 C-6.01 8.34 -5.02 7.68 -4 7 C-1.4559154 4.84731303 -0.56692701 3.28817667 0 0 Z " fill="#63B2ED" transform="translate(467,208)"/>
<path d="M0 0 C5.7097955 0.41778991 8.60957142 2.57546571 13 6 C12.67 6.66 12.34 7.32 12 8 C8.125 6.25 8.125 6.25 7 4 C4.69034152 2.94647157 2.3570226 1.94280904 0 1 C0 0.67 0 0.34 0 0 Z " fill="#67AEE4" transform="translate(195,211)"/>
<path d="M0 0 C3 3 3 3 3.29296875 6.57421875 C3.27309338 7.94561913 3.23741111 9.31686405 3.1875 10.6875 C3.17396484 11.38939453 3.16042969 12.09128906 3.14648438 12.81445312 C3.11120182 14.54329829 3.05739583 16.27174765 3 18 C2.67 18 2.34 18 2 18 C1.34 12.06 0.68 6.12 0 0 Z " fill="#469DDA" transform="translate(428,184)"/>
<path d="M0 0 C0 0.66 0 1.32 0 2 C-0.66 2 -1.32 2 -2 2 C-2 2.66 -2 3.32 -2 4 C-4.97 4.66 -7.94 5.32 -11 6 C-10.67 4.68 -10.34 3.36 -10 2 C-9.67 2.66 -9.34 3.32 -9 4 C-8.071875 3.34 -7.14375 2.68 -6.1875 2 C-3 0 -3 0 0 0 Z " fill="#5CAFE8" transform="translate(376,177)"/>
<path d="M0 0 C4.62 0.66 9.24 1.32 14 2 C13.67 2.66 13.34 3.32 13 4 C6.07 3.505 6.07 3.505 -1 3 C-0.67 2.01 -0.34 1.02 0 0 Z " fill="#379FF1" transform="translate(455,203)"/>
<path d="M0 0 C1.9375 1.0625 1.9375 1.0625 4 3 C4.75 6.6875 4.75 6.6875 5 10 C4.01 10.495 4.01 10.495 3 11 C2.49632243 9.54293274 1.99717444 8.08429904 1.5 6.625 C1.2215625 5.81289062 0.943125 5.00078125 0.65625 4.1640625 C0 2 0 2 0 0 Z " fill="#48A3EA" transform="translate(475,181)"/>
<path d="M0 0 C-1.36983503 3.16115776 -1.9890638 3.9927092 -5 6 C-5.33 6.99 -5.66 7.98 -6 9 C-6.66 9 -7.32 9 -8 9 C-6.53333333 3.5 -6.53333333 3.5 -4 1.125 C-2 0 -2 0 0 0 Z " fill="#56A8E2" transform="translate(445,200)"/>
<path d="M0 0 C0.33 0 0.66 0 1 0 C1.625 2.875 1.625 2.875 2 6 C0 8 0 8 -1.9453125 8.1953125 C-3.96354167 8.13020833 -5.98177083 8.06510417 -8 8 C-8 7.34 -8 6.68 -8 6 C-4.71303767 5.20046862 -3.28976808 4.90341064 0 6 C0 4.02 0 2.04 0 0 Z " fill="#429AE2" transform="translate(133,155)"/>
<path d="M0 0 C0.99 0.33 1.98 0.66 3 1 C0.42215154 3.64752004 -1.91648098 5.94432065 -5 8 C-5.99 7.67 -6.98 7.34 -8 7 C-6.75 5.5 -6.75 5.5 -5 4 C-3.68 4 -2.36 4 -1 4 C-0.67 2.68 -0.34 1.36 0 0 Z " fill="#6EB4E7" transform="translate(341,219)"/>
<path d="M0 0 C1.8871875 0.0309375 1.8871875 0.0309375 3.8125 0.0625 C3.8125 0.3925 3.8125 0.7225 3.8125 1.0625 C-0.6425 1.5575 -0.6425 1.5575 -5.1875 2.0625 C-5.1875 2.7225 -5.1875 3.3825 -5.1875 4.0625 C-7.1675 4.0625 -9.1475 4.0625 -11.1875 4.0625 C-7.47611183 1.11898524 -4.747758 -0.0778321 0 0 Z " fill="#73B7EE" transform="translate(181.1875,172.9375)"/>
<path d="M0 0 C0.99 0 1.98 0 3 0 C2.67 0.99 2.34 1.98 2 3 C1.34 3 0.68 3 0 3 C-0.33 3.99 -0.66 4.98 -1 6 C-3.0625 6.6875 -3.0625 6.6875 -5 7 C-5 6.01 -5 5.02 -5 4 C-3.68 4 -2.36 4 -1 4 C-0.67 2.68 -0.34 1.36 0 0 Z " fill="#60AEE5" transform="translate(193,201)"/>
<path d="M0 0 C1.58246707 -0.08153933 3.16616273 -0.13943557 4.75 -0.1875 C6.07257813 -0.23970703 6.07257813 -0.23970703 7.421875 -0.29296875 C10.44671583 0.05076316 11.75583602 1.00227459 14 3 C4.58997722 2.03644647 4.58997722 2.03644647 0 1 C0 0.67 0 0.34 0 0 Z " fill="#499EE3" transform="translate(178,174)"/>
<path d="M0 0 C2.97 0 5.94 0 9 0 C9.33 1.65 9.66 3.3 10 5 C9.34 5 8.68 5 8 5 C7.67 5.66 7.34 6.32 7 7 C7.33 5.02 7.66 3.04 8 1 C5.36 1 2.72 1 0 1 C0 0.67 0 0.34 0 0 Z " fill="#1886DF" transform="translate(461,204)"/>
<path d="M0 0 C-1.2065625 0.4021875 -1.2065625 0.4021875 -2.4375 0.8125 C-3.283125 1.204375 -4.12875 1.59625 -5 2 C-5.33 2.99 -5.66 3.98 -6 5 C-6.99 4.67 -7.98 4.34 -9 4 C-8.67 2.68 -8.34 1.36 -8 0 C-4.94736336 -0.98120464 -3.05263664 -0.98120464 0 0 Z " fill="#0B89EE" transform="translate(453,200)"/>
<path d="M0 0 C1.32 0 2.64 0 4 0 C3.67 1.32 3.34 2.64 3 4 C0.37886292 4 -1.50935112 3.68707555 -4 3 C-2.68 2.67 -1.36 2.34 0 2 C0 1.34 0 0.68 0 0 Z " fill="#6AB9ED" transform="translate(464,223)"/>
<path d="M0 0 C0.66 0 1.32 0 2 0 C1.34 3.3 0.68 6.6 0 10 C-0.66 10 -1.32 10 -2 10 C-1.85950482 8.52031676 -1.71245174 7.04125484 -1.5625 5.5625 C-1.48128906 4.73878906 -1.40007812 3.91507813 -1.31640625 3.06640625 C-1 1 -1 1 0 0 Z " fill="#2692EA" transform="translate(367,188)"/>
<path d="M0 0 C0.66 1.32 1.32 2.64 2 4 C0.68 4.99 -0.64 5.98 -2 7 C-2.66 6.67 -3.32 6.34 -4 6 C-2.84826645 3.53199953 -1.95216435 1.95216435 0 0 Z " fill="#43A0EB" transform="translate(169,177)"/>
<path d="M0 0 C0 0.99 0 1.98 0 3 C-3 5 -3 5 -5.1875 4.625 C-5.785625 4.41875 -6.38375 4.2125 -7 4 C-6.01 3.67 -5.02 3.34 -4 3 C-4 2.34 -4 1.68 -4 1 C-2.68 0.67 -1.36 0.34 0 0 Z " fill="#0B88EE" transform="translate(451,179)"/>
<path d="M0 0 C0.33 0 0.66 0 1 0 C1 3.3 1 6.6 1 10 C0.01 10 -0.98 10 -2 10 C-1.46274105 6.62294375 -0.88935377 3.303314 0 0 Z " fill="#40A0EA" transform="translate(302,188)"/>
<path d="M0 0 C2.64 0 5.28 0 8 0 C4.77484237 1.73662334 1.48670834 2.8905928 -2 4 C-1.34 2.68 -0.68 1.36 0 0 Z " fill="#439AE5" transform="translate(404,188)"/>
<path d="M0 0 C0.598125 0.61875 1.19625 1.2375 1.8125 1.875 C4.00811144 4.13676954 4.00811144 4.13676954 7 6 C4.625 6.125 4.625 6.125 2 6 C1.34 5.34 0.68 4.68 0 4 C0 2.68 0 1.36 0 0 Z " fill="#6DB4EB" transform="translate(314,210)"/>
<path d="M0 0 C2.5 1.3125 2.5 1.3125 5 3 C5 3.99 5 4.98 5 6 C4.401875 5.67 3.80375 5.34 3.1875 5 C0.94613529 3.79212012 0.94613529 3.79212012 -2 4 C-2 3.34 -2 2.68 -2 2 C-1.34 2 -0.68 2 0 2 C0 1.34 0 0.68 0 0 Z " fill="#1087EA" transform="translate(422,180)"/>
</svg>
