<?xml version="1.0" encoding="UTF-8"?>
<svg version="1.1" xmlns="http://www.w3.org/2000/svg" width="1536" height="1024">
<path d="M0 0 C0.87809326 0.42676025 1.75618652 0.85352051 2.66088867 1.29321289 C5.171875 2.6484375 5.171875 2.6484375 7.39575195 4.31420898 C9.71414767 5.98911659 11.37427776 7.01769002 14.171875 7.6484375 C18.84024738 6.36350623 22.73103026 3.9446739 26.859375 1.4609375 C29.26152687 0.10313874 31.68086453 -1.22248731 34.1015625 -2.546875 C34.70291519 -2.87959915 35.30426788 -3.2123233 35.92384338 -3.55513 C61.60603591 -17.62461118 95.03235583 -23.78582209 124.171875 -21.3515625 C127.2905882 -20.36121903 128.85368987 -19.66974763 131.171875 -17.3515625 C132.60063721 -13.57747364 132.2832125 -9.57618369 132.234375 -5.6015625 C132.22986328 -4.90417969 132.22535156 -4.20679688 132.22070312 -3.48828125 C132.2089752 -1.77600447 132.19104153 -0.06377217 132.171875 1.6484375 C132.96851563 1.62523437 133.76515625 1.60203125 134.5859375 1.578125 C145.53298248 1.39167898 145.53298248 1.39167898 150.171875 3.6484375 C151.54906689 6.40282128 151.38729971 8.71087755 151.48388672 11.79370117 C151.52522736 13.10212479 151.56656799 14.4105484 151.60916138 15.75862122 C151.64890695 17.21536633 151.68801945 18.67212882 151.7265625 20.12890625 C151.74749844 20.87591482 151.76843437 21.62292339 151.79000473 22.39256859 C152.31191192 41.30604744 152.3296373 60.22006558 152.30105209 79.13940811 C152.29681652 82.00043964 152.29388692 84.86147032 152.29116821 87.72250366 C152.26547028 111.64919651 152.21007418 135.57751162 151.90740967 159.50253296 C151.87554619 162.12831404 151.84835826 164.75415628 151.82598877 167.3800354 C151.79339764 170.9555711 151.74168766 174.53026914 151.68359375 178.10546875 C151.67719376 179.14481567 151.67079376 180.1841626 151.66419983 181.25500488 C151.6345237 182.66562195 151.6345237 182.66562195 151.60424805 184.10473633 C151.59314499 184.91630692 151.58204193 185.7278775 151.57060242 186.56404114 C151.07103951 189.17556736 150.25874619 190.04160748 148.171875 191.6484375 C145.43035074 192.56227892 143.81498485 192.77670674 140.99263 192.78646851 C140.14182358 192.79192184 139.29101715 192.79737518 138.41442871 192.80299377 C137.48400757 192.8040361 136.55358643 192.80507843 135.5949707 192.80615234 C134.61251877 192.81123306 133.63006683 192.81631378 132.61784363 192.82154846 C130.48164578 192.83225703 128.34543668 192.8408753 126.20922279 192.84766769 C122.8252285 192.85945311 119.44136203 192.87890636 116.05741882 192.90078735 C106.43488841 192.96240701 96.81237024 193.01640439 87.18969727 193.04980469 C81.30522412 193.07078041 75.42098264 193.10611026 69.53664207 193.15056229 C67.29645711 193.16470256 65.05623114 193.17344025 62.8160038 193.17661667 C59.67567438 193.18153957 56.53595656 193.20473483 53.39575195 193.23193359 C52.47545197 193.22892746 51.55515198 193.22592133 50.60696411 193.2228241 C43.18913768 193.31796264 36.9021466 194.78171825 31.046875 199.6484375 C25.13481426 204.52017854 20.25697793 206.14316062 12.734375 206.0234375 C12.00927734 206.03503906 11.28417969 206.04664063 10.53710938 206.05859375 C2.29517474 206.01416284 -2.57020692 202.97432523 -8.828125 197.6484375 C-13.62100964 194.9644221 -17.5894578 193.53275405 -23.06515503 193.50367737 C-23.90339813 193.49677887 -24.74164124 193.48988037 -25.60528564 193.48277283 C-26.51655212 193.48015945 -27.4278186 193.47754608 -28.36669922 193.47485352 C-29.81615433 193.464823 -29.81615433 193.464823 -31.29489136 193.45458984 C-33.39233011 193.44054746 -35.48978407 193.42865083 -37.58724594 193.41864204 C-40.90775835 193.40222038 -44.2281581 193.37898202 -47.5486145 193.35374451 C-56.98922099 193.28299978 -66.42987322 193.2228499 -75.87060547 193.17163086 C-81.64595383 193.1398198 -87.42117206 193.09853986 -93.19641495 193.05143547 C-95.39639061 193.03542978 -97.59639624 193.02310161 -99.79641342 193.01452827 C-102.87466379 193.00235906 -105.95260876 192.9782023 -109.03076172 192.95141602 C-109.93797974 192.95082687 -110.84519775 192.95023773 -111.77990723 192.94963074 C-120.93891048 192.84415382 -120.93891048 192.84415382 -124.828125 190.6484375 C-126.51843607 185.96607018 -127.07546911 181.8194568 -127.06190491 176.86460876 C-127.06290819 176.21922089 -127.06391147 175.57383301 -127.06494516 174.90888792 C-127.06589082 172.7658734 -127.05260286 170.62319436 -127.03930664 168.48022461 C-127.03710317 166.93542581 -127.03579947 165.3906255 -127.0353241 163.8458252 C-127.03239782 160.52720374 -127.02317409 157.20868143 -127.00901985 153.89008904 C-126.98666568 148.63071196 -126.97864813 143.37137118 -126.97251892 138.11195374 C-126.96114717 129.7812936 -126.94043515 121.45068763 -126.91562122 113.12005764 C-126.87133597 98.23246845 -126.83798137 83.34486175 -126.81537718 68.45722395 C-126.80702749 63.24180621 -126.79306048 58.02644385 -126.77440464 52.81105316 C-126.76366226 49.54794645 -126.75714254 46.28484016 -126.75160408 43.02172089 C-126.74817168 41.52307427 -126.74300089 40.02443031 -126.73583603 38.52579689 C-126.69675831 30.1584055 -126.92966857 21.89725294 -127.72821712 13.56087589 C-127.87243582 9.35672205 -127.13438663 7.14759307 -124.828125 3.6484375 C-121.25667748 1.14422253 -117.82841945 1.44472834 -113.578125 1.5234375 C-112.31484375 1.54148437 -111.0515625 1.55953125 -109.75 1.578125 C-108.78578125 1.60132813 -107.8215625 1.62453125 -106.828125 1.6484375 C-106.87453125 0.39546875 -106.9209375 -0.8575 -106.96875 -2.1484375 C-107.00627313 -3.79945531 -107.04267271 -5.45049892 -107.078125 -7.1015625 C-107.11164063 -7.9265625 -107.14515625 -8.7515625 -107.1796875 -9.6015625 C-107.27856119 -15.7317315 -107.27856119 -15.7317315 -105 -18.8671875 C-80.66946659 -35.49596932 -22.56563405 -11.14050759 0 0 Z M-90.828125 -4.3515625 C-90.92713597 -2.29092415 -90.95444818 -0.22683391 -90.95510864 1.83618164 C-90.95666863 2.48969888 -90.95822862 3.14321611 -90.95983589 3.8165369 C-90.96384761 6.02224497 -90.9606556 8.22788508 -90.95751953 10.43359375 C-90.9588735 12.00845378 -90.9606534 13.5833135 -90.96282959 15.15817261 C-90.96740449 19.44730779 -90.96561413 23.73641903 -90.9624505 28.02555466 C-90.95992719 32.50409766 -90.96226436 36.98263856 -90.96383667 41.46118164 C-90.96565845 48.98356496 -90.96325183 56.50593848 -90.95849609 64.02832031 C-90.95305346 72.73804415 -90.95481611 81.44774458 -90.9603225 90.15746784 C-90.96485339 97.62156278 -90.9655043 105.08565065 -90.96288383 112.54974651 C-90.96132092 117.01380993 -90.96112767 121.47786233 -90.96442032 125.94192505 C-90.96729868 130.13775865 -90.96532399 134.33356193 -90.95952606 138.52939224 C-90.95819828 140.07380243 -90.95859289 141.61821516 -90.96078873 143.16262436 C-90.96349952 145.26201572 -90.96012002 147.36130838 -90.95510864 149.46069336 C-90.95473162 150.63836777 -90.95435459 151.81604218 -90.95396614 153.02940369 C-91.12582505 155.57485597 -91.12582505 155.57485597 -89.828125 156.6484375 C-85.56479996 156.95811696 -81.28880998 156.92689726 -77.015625 156.9609375 C-75.81357422 156.98994141 -74.61152344 157.01894531 -73.37304688 157.04882812 C-72.21740234 157.05720703 -71.06175781 157.06558594 -69.87109375 157.07421875 C-68.27817505 157.09609253 -68.27817505 157.09609253 -66.65307617 157.1184082 C-63.12081198 156.53076594 -62.00618566 155.43629261 -59.828125 152.6484375 C-58.56028376 149.51493033 -58.56028376 149.51493033 -57.828125 146.6484375 C-57.168125 146.6484375 -56.508125 146.6484375 -55.828125 146.6484375 C-54.78056755 145.50267154 -53.79002783 144.3045019 -52.828125 143.0859375 C-45.06792192 133.98943389 -32.88157008 126.57402286 -20.75708008 125.45776367 C-18.52687868 125.38049566 -16.30947597 125.37183987 -14.078125 125.3984375 C-12.88461426 125.40423828 -12.88461426 125.40423828 -11.66699219 125.41015625 C-6.46196872 125.4863583 -1.6317473 126.09842654 3.4609375 127.1953125 C12.08579648 128.63693158 20.80222096 128.06003273 29.171875 125.6484375 C29.501875 125.3184375 29.831875 124.9884375 30.171875 124.6484375 C43.71772724 122.98586811 56.81887922 127.70167435 68.171875 134.6484375 C69.49791368 135.32949818 70.82883021 136.00155813 72.171875 136.6484375 C72.171875 137.3084375 72.171875 137.9684375 72.171875 138.6484375 C72.92082031 139.23496094 73.66976562 139.82148437 74.44140625 140.42578125 C77.36055659 142.80202809 78.9187615 145.00565454 80.859375 148.2109375 C81.44074219 149.16097656 82.02210938 150.11101562 82.62109375 151.08984375 C83.13285156 151.93417969 83.64460937 152.77851562 84.171875 153.6484375 C84.831875 154.6384375 85.491875 155.6284375 86.171875 156.6484375 C89.06523711 157.08288766 89.06523711 157.08288766 92.45703125 156.9765625 C93.70935547 156.97140625 94.96167969 156.96625 96.25195312 156.9609375 C98.22325195 156.93 98.22325195 156.93 100.234375 156.8984375 C101.55244141 156.89328125 102.87050781 156.888125 104.22851562 156.8828125 C110.08189515 157.40406614 110.08189515 157.40406614 115.171875 155.6484375 C115.26871081 153.57282944 115.29374402 151.49386546 115.29212952 149.41600037 C115.29298394 148.75769401 115.29383837 148.09938766 115.29471868 147.42113262 C115.2963753 145.19926644 115.29084918 142.97747455 115.28540039 140.75561523 C115.28511853 139.16928102 115.28527623 137.58294668 115.2858429 135.99661255 C115.28613092 131.67655028 115.28023337 127.35651553 115.27326894 123.03645968 C115.26703625 118.52675435 115.26643167 114.01704845 115.26524353 109.50733948 C115.26212996 100.96149376 115.25391624 92.41566076 115.24389404 83.86982065 C115.23273369 74.14326117 115.22722265 64.41670108 115.22219861 54.69013679 C115.21173364 34.67622991 115.19413371 14.66233451 115.171875 -5.3515625 C112.29627396 -5.37052623 109.42079966 -5.38435453 106.54516602 -5.39526367 C105.73669472 -5.40112236 104.92822342 -5.40698105 104.09525299 -5.41301727 C97.95203707 -5.43047652 92.13398423 -4.90711552 86.109375 -3.6640625 C85.18729248 -3.48327148 84.26520996 -3.30248047 83.31518555 -3.11621094 C61.24675776 1.36503687 38.32826535 9.24674307 20.16015625 22.9140625 C16.44937228 25.06777241 14.40488837 25.21535893 10.171875 24.6484375 C7.171875 23.1796875 7.171875 23.1796875 4.171875 21.1484375 C3.0362182 20.40782063 1.8980963 19.67097295 0.7578125 18.9375 C0.1709668 18.55754883 -0.41587891 18.17759766 -1.02050781 17.78613281 C-15.42271162 8.72153668 -75.44769242 -19.73199508 -90.828125 -4.3515625 Z " fill="#ffffff" 008BFE" transform="translate(440.828125,404.3515625)"/>
<path d="M0 0 C9.82765535 8.77622498 11.93625006 20.90336882 12.8515625 33.41015625 C13.14812843 39.53128681 13.11093124 45.65473253 13.08203125 51.78125 C13.08083541 53.48234522 13.08038714 55.18344112 13.0806427 56.88453674 C13.07909514 60.40980292 13.07092986 63.93496503 13.05737305 67.46020508 C13.04018827 71.98628415 13.03656518 76.51225174 13.03731823 81.03835964 C13.03704736 84.53234426 13.03158283 88.02630435 13.02431679 91.52028084 C13.02113205 93.19131345 13.01916316 94.86234884 13.01842308 96.53338432 C13.01626853 98.84969803 13.00754958 101.16588997 12.99682617 103.48217773 C12.99301437 104.79959457 12.98920258 106.11701141 12.98527527 107.47434998 C12.8515625 110.41015625 12.8515625 110.41015625 11.8515625 111.41015625 C9.77894174 111.49782737 7.70335956 111.51711498 5.62890625 111.5078125 C3.73881836 111.50297852 3.73881836 111.50297852 1.81054688 111.49804688 C0.47005141 111.48969028 -0.87044338 111.48122532 -2.2109375 111.47265625 C-3.55533692 111.46764285 -4.8997381 111.46307967 -6.24414062 111.45898438 C-9.54561691 111.44715113 -12.84700553 111.43066596 -16.1484375 111.41015625 C-17.43161642 107.56061949 -17.21487387 104.4627749 -17.1484375 100.41015625 C-17.4784375 100.74015625 -17.8084375 101.07015625 -18.1484375 101.41015625 C-30.2245219 112.78617778 -42.23413832 113.98911788 -58.2890625 113.72265625 C-64.79970589 113.47557301 -70.3383225 112.44275286 -76.1484375 109.41015625 C-76.97214844 108.98605469 -77.79585937 108.56195312 -78.64453125 108.125 C-86.29573619 103.61468379 -91.17830304 96.5454339 -93.6796875 88.05859375 C-95.68656681 76.71972566 -94.75702679 66.30093483 -88.2109375 56.78515625 C-73.6472188 39.36342177 -45.23839088 39.27625406 -24.30126953 37.05615234 C-20.60499796 36.68171766 -20.60499796 36.68171766 -17.1484375 35.41015625 C-17.48184604 28.2085317 -18.76752254 21.79107121 -24.0234375 16.53515625 C-31.37365715 12.64386349 -39.55025474 12.28170366 -47.62890625 13.91015625 C-52.16027248 15.40644228 -54.71365509 17.35218557 -57.1484375 21.41015625 C-58.25606407 24.04950065 -59.20185106 26.70562355 -60.1484375 29.41015625 C-61.1484375 30.41015625 -61.1484375 30.41015625 -63.83227539 30.52368164 C-65.00008545 30.51844482 -66.16789551 30.51320801 -67.37109375 30.5078125 C-68.63115234 30.50458984 -69.89121094 30.50136719 -71.18945312 30.49804688 C-72.52994859 30.48969028 -73.87044338 30.48122532 -75.2109375 30.47265625 C-76.55533692 30.46764285 -77.8997381 30.46307967 -79.24414062 30.45898438 C-82.54561691 30.44715113 -85.84700553 30.43066596 -89.1484375 30.41015625 C-90.81134899 23.15166942 -88.17716987 16.9917455 -84.56640625 10.6171875 C-77.59698133 0.2181133 -68.18220015 -6.60260283 -55.9609375 -9.90234375 C-36.06920507 -13.48937747 -16.67793242 -12.34166999 0 0 Z M-61.1484375 68.41015625 C-63.57462686 72.27000296 -63.36661602 75.8777732 -62.76171875 80.2578125 C-61.46915255 84.79414357 -57.88820413 86.9169785 -54.1484375 89.41015625 C-44.66162403 91.83665145 -35.89721197 90.68671374 -27.1484375 86.41015625 C-21.48203106 83.00090756 -18.12790613 78.00154123 -16.3984375 71.66015625 C-16.03290845 66.90827856 -16.07215994 62.17326583 -16.1484375 57.41015625 C-29.84454247 57.03181081 -51.2050557 57.82526595 -61.1484375 68.41015625 Z " fill="#ffffff" 008BFE" transform="translate(1192.1484375,456.58984375)"/>
<path d="M0 0 C15.76197196 -0.60420893 30.63059475 4.12494024 42.81640625 14.1953125 C53.47923891 24.52942585 58.71932855 39.23792476 59.109375 53.87890625 C59.11459745 55.80598955 59.10933243 57.73312888 59.09375 59.66015625 C59.10535156 61.14128906 59.10535156 61.14128906 59.1171875 62.65234375 C59.11460937 63.59335937 59.11203125 64.534375 59.109375 65.50390625 C59.10711914 66.35146484 59.10486328 67.19902344 59.10253906 68.07226562 C58.84375 70.16015625 58.84375 70.16015625 56.84375 72.16015625 C54.28609658 72.37745951 51.83337638 72.47153834 49.27294922 72.47900391 C48.49237152 72.48904953 47.71179382 72.49909515 46.90756226 72.50944519 C44.321195 72.54039618 41.7349318 72.55734517 39.1484375 72.57421875 C37.357667 72.59292084 35.5669054 72.61249352 33.77615356 72.63290405 C29.05797563 72.68433269 24.33976908 72.72390081 19.62145996 72.76104736 C14.80876528 72.80101991 9.99619069 72.85214295 5.18359375 72.90234375 C-4.26293661 72.99923002 -13.7095346 73.08359399 -23.15625 73.16015625 C-22.88878486 74.90019292 -22.60739296 76.63809182 -22.3203125 78.375 C-22.1651416 79.34300537 -22.0099707 80.31101074 -21.85009766 81.30834961 C-20.96217035 84.95784958 -19.35240469 87.58110883 -17.1796875 90.6015625 C-16.15625 92.16015625 -16.15625 92.16015625 -16.15625 94.16015625 C-4.54463135 99.99211787 3.89327446 102.46893159 16.84375 99.16015625 C21.67199344 97.30706282 24.59918401 94.88555834 26.84375 90.16015625 C27.83375 88.18015625 27.83375 88.18015625 28.84375 86.16015625 C38.41375 86.16015625 47.98375 86.16015625 57.84375 86.16015625 C59.24342303 91.75884838 57.26388187 95.08672367 54.84375 100.16015625 C52.84375 103.47265625 52.84375 103.47265625 50.84375 106.16015625 C50.26625 106.98515625 49.68875 107.81015625 49.09375 108.66015625 C40.45422663 118.25962666 27.59880323 124.18205 14.82202148 125.46313477 C11.69775895 125.59630985 8.59564537 125.62720966 5.46875 125.59765625 C4.37256348 125.5922583 3.27637695 125.58686035 2.14697266 125.58129883 C-5.96848522 125.42882513 -12.663191 124.41592629 -20.15625 121.16015625 C-21.39375 120.72703125 -22.63125 120.29390625 -23.90625 119.84765625 C-28.46537607 117.48041772 -32.24605895 114.47092408 -36.15625 111.16015625 C-37.07083984 110.44279297 -37.07083984 110.44279297 -38.00390625 109.7109375 C-46.90626963 101.98474058 -51.95990665 88.45045017 -54.15625 77.16015625 C-54.33800781 76.23460937 -54.51976562 75.3090625 -54.70703125 74.35546875 C-57.24618208 56.29437847 -54.08692956 37.4226532 -43.125 22.60546875 C-33.44227496 10.57890947 -21.55608292 2.78263119 -6.15625 0.47265625 C-4.10576484 0.28144037 -2.05368067 0.15253788 0 0 Z M-17.15625 31.16015625 C-21.06657302 37.47595494 -22.50108605 42.71191846 -24.15625 50.16015625 C-6.66625 50.16015625 10.82375 50.16015625 28.84375 50.16015625 C27.83573116 40.07996788 26.59235405 34.2015214 18.90625 27.66015625 C7.9428815 22.29034311 -8.19891474 21.45637639 -17.15625 31.16015625 Z " fill="#ffffff" 008BFE" transform="translate(809.15625,444.83984375)"/>
<path d="M0 0 C0.69673828 0.04632568 1.39347656 0.09265137 2.11132812 0.14038086 C7.28756494 0.52619107 12.11950814 1.34674325 17.125 2.6875 C17.125 3.3475 17.125 4.0075 17.125 4.6875 C18.115 4.9659375 18.115 4.9659375 19.125 5.25 C27.9319302 9.46998739 33.74129652 17.09644745 37.0244751 26.17459106 C39.59680793 35.55384554 39.62007093 44.71804877 39.671875 54.3671875 C39.69130683 56.15171516 39.71185516 57.93623097 39.73345947 59.72073364 C39.77554772 63.43717201 39.80831442 67.15352644 39.83349609 70.87011719 C39.86588592 75.62467781 39.91557519 80.37885484 39.97141647 85.13319206 C40.01375958 88.80833976 40.05018833 92.48352561 40.0845108 96.15875626 C40.1009881 97.91219249 40.11854792 99.66561892 40.13722992 101.41903305 C40.16178388 103.8664261 40.17914737 106.31376356 40.19433594 108.76123047 C40.20668526 109.83670891 40.20668526 109.83670891 40.21928406 110.93391418 C40.23587378 115.05956614 39.81423279 118.55210325 39.125 122.6875 C29.225 122.6875 19.325 122.6875 9.125 122.6875 C8.47882063 117.51806504 8.00504389 113.09185621 8.04321289 107.98706055 C8.0497438 106.72182053 8.05627472 105.45658051 8.06300354 104.15299988 C8.06874453 103.48875692 8.07448551 102.82451397 8.08040047 102.14014244 C8.09800919 100.03196384 8.1081589 97.92386328 8.11631775 95.81562805 C8.14057516 89.82663609 8.17612861 83.83774962 8.22094727 77.84887695 C8.24796197 74.16974895 8.26485185 70.49068103 8.27581596 66.81147194 C8.28195923 65.42220653 8.29187851 64.0329518 8.30589485 62.64374352 C8.77874575 46.657607 8.77874575 46.657607 2.125 32.6875 C-1.83075137 28.86815385 -6.35548792 27.72215629 -11.71484375 27.6484375 C-18.35071483 27.99989599 -23.21287908 29.27735899 -28.875 32.6875 C-29.58398438 33.01105469 -30.29296875 33.33460938 -31.0234375 33.66796875 C-33.67303706 35.12692547 -33.938527 36.87808101 -34.875 39.6875 C-35.225625 40.326875 -35.57625 40.96625 -35.9375 41.625 C-38.12970055 46.44784122 -38.01275838 51.75173055 -38.06445312 56.9621582 C-38.07274643 57.66368515 -38.08103973 58.3652121 -38.08958435 59.08799744 C-38.10688909 60.60045011 -38.12208135 62.11292815 -38.13536072 63.62542152 C-38.15649856 66.01639703 -38.18350632 68.40724346 -38.21203613 70.79814148 C-38.28163658 76.72939566 -38.34142578 82.66074067 -38.40106201 88.59210205 C-38.45191328 93.61784343 -38.50667444 98.64351108 -38.56687927 103.6691494 C-38.59351101 106.02959913 -38.61428137 108.39005566 -38.6348877 110.75056458 C-38.65148024 112.18698463 -38.66835114 113.6234015 -38.68554688 115.05981445 C-38.70433899 116.94794609 -38.70433899 116.94794609 -38.72351074 118.8742218 C-38.875 121.6875 -38.875 121.6875 -39.875 122.6875 C-42.00853174 122.78753289 -44.14537542 122.81831048 -46.28125 122.8203125 C-47.58191406 122.82160156 -48.88257813 122.82289063 -50.22265625 122.82421875 C-50.90344238 122.82212402 -51.58422852 122.8200293 -52.28564453 122.81787109 C-54.36628515 122.8125224 -56.44670989 122.8178168 -58.52734375 122.82421875 C-60.47833984 122.82228516 -60.47833984 122.82228516 -62.46875 122.8203125 C-63.67208984 122.81918457 -64.87542969 122.81805664 -66.11523438 122.81689453 C-68.875 122.6875 -68.875 122.6875 -69.875 121.6875 C-70.05176256 119.22140861 -70.16078131 116.78258136 -70.2265625 114.3125 C-70.25021378 113.51274246 -70.27386505 112.71298492 -70.29823303 111.88899231 C-70.3738783 109.15530595 -70.43841033 106.42153817 -70.5 103.6875 C-70.53318832 102.26852921 -70.53318832 102.26852921 -70.56704712 100.82089233 C-71.01266196 80.54656737 -70.84166489 60.27820799 -70.59221649 40.00268555 C-70.56242778 37.49391785 -70.53621658 34.98513388 -70.51080322 32.47631836 C-70.46947638 28.4894272 -70.41731652 24.50282036 -70.35650444 20.51618004 C-70.33510048 19.02675306 -70.31691219 17.53727616 -70.30204964 16.04776955 C-70.28064974 13.99893073 -70.24555176 11.95024851 -70.2097168 9.90161133 C-70.19337692 8.74494461 -70.17703705 7.58827789 -70.16020203 6.39656067 C-69.875 3.6875 -69.875 3.6875 -67.875 1.6875 C-65.09350586 1.44458008 -65.09350586 1.44458008 -61.58984375 1.45703125 C-60.33751953 1.45896484 -59.08519531 1.46089844 -57.79492188 1.46289062 C-55.82362305 1.48125977 -55.82362305 1.48125977 -53.8125 1.5 C-52.49443359 1.50064453 -51.17636719 1.50128906 -49.81835938 1.50195312 C-40.01509123 1.54740877 -40.01509123 1.54740877 -38.875 2.6875 C-38.64072222 4.70344582 -38.46163876 6.725974 -38.3125 8.75 C-38.22871094 9.85472656 -38.14492188 10.95945312 -38.05859375 12.09765625 C-37.99800781 12.95230469 -37.93742188 13.80695313 -37.875 14.6875 C-37.545 14.0275 -37.215 13.3675 -36.875 12.6875 C-36.215 12.6875 -35.555 12.6875 -34.875 12.6875 C-34.875 12.0275 -34.875 11.3675 -34.875 10.6875 C-24.29088258 2.47739023 -13.35140599 -0.96401786 0 0 Z " fill="#ffffff" 008BFE" transform="translate(1040.875,445.3125)"/>
<path d="M0 0 C2.07646549 3.1668264 2.24760837 5.75799839 2.24050903 9.49224854 C2.24325836 10.60841553 2.24600769 11.72458252 2.24884033 12.87457275 C2.24164978 14.09448914 2.23445923 15.31440552 2.22705078 16.57128906 C2.22734283 17.85934448 2.22763489 19.1473999 2.22793579 20.4744873 C2.22850954 24.00311939 2.21675173 27.53161547 2.20278788 31.06021595 C2.19028416 34.74910098 2.1891103 38.43798914 2.18673706 42.12689209 C2.18052124 49.1108177 2.16410904 56.09468068 2.14403808 63.07857871 C2.12168227 71.03014377 2.11068645 78.98171183 2.10064721 86.9333005 C2.07974289 103.28890366 2.04456493 119.64444384 2 136 C2.6405451 135.92912957 3.2810902 135.85825914 3.94104576 135.78524113 C8.9822302 135.2502224 13.93499925 134.87636454 19.01025391 134.88647461 C20.93111313 134.88658791 20.93111313 134.88658791 22.89077759 134.88670349 C24.25270631 134.89180733 25.61463461 134.89702328 26.9765625 134.90234375 C28.39716542 134.90421313 29.817769 134.90563457 31.2383728 134.90663147 C34.94380532 134.91041575 38.64919748 134.92021018 42.35461426 134.93133545 C46.14916437 134.94163841 49.94372112 134.94614796 53.73828125 134.95117188 C61.15887239 134.96183689 68.5794305 134.97886301 76 135 C78.25227151 142.42108926 78.25227151 142.42108926 78.265625 146.15625 C78.26949219 147.22552734 78.26949219 147.22552734 78.2734375 148.31640625 C78.26570312 149.03699219 78.25796875 149.75757813 78.25 150.5 C78.26160156 151.58087891 78.26160156 151.58087891 78.2734375 152.68359375 C78.27085937 153.39644531 78.26828125 154.10929688 78.265625 154.84375 C78.26336914 155.47474609 78.26111328 156.10574219 78.25878906 156.75585938 C77.89540555 159.90701147 76.87142508 162.95001222 76 166 C40.36 166 4.72 166 -32 166 C-33.84850647 161.37873383 -34.25352253 159.21978151 -34.26742554 154.42735291 C-34.27195665 153.78070177 -34.27648776 153.13405064 -34.28115618 152.46780401 C-34.29377876 150.30911038 -34.29218127 148.15066973 -34.29052734 145.99194336 C-34.29651374 144.44106218 -34.30331955 142.89018398 -34.31088257 141.33930969 C-34.32853351 137.13284381 -34.33323742 132.92645931 -34.33451414 128.71995997 C-34.33641457 125.20830857 -34.34377333 121.69667607 -34.35085833 118.18503195 C-34.36713468 109.90256036 -34.37202779 101.62013223 -34.37060547 93.33764648 C-34.36940263 84.79026028 -34.39053449 76.243126 -34.4220928 67.69580358 C-34.44822368 60.35726003 -34.45897418 53.01879896 -34.45769465 45.68020922 C-34.45718429 41.2970659 -34.46290883 36.91414674 -34.48405075 32.53104973 C-34.50338086 28.41135576 -34.50359384 24.29210114 -34.48901749 20.17239189 C-34.4869221 18.65987 -34.49167363 17.14732096 -34.5037384 15.63484573 C-34.51913465 13.57126509 -34.509923 11.5092103 -34.49447632 9.44566345 C-34.49556585 8.29069839 -34.49665539 7.13573332 -34.49777794 5.94576931 C-33.88716055 2.33223441 -32.91826601 1.16193239 -30 -1 C-27.04391609 -1.5143586 -24.468013 -1.79286282 -21.5 -1.875 C-20.70207031 -1.9061792 -19.90414062 -1.9373584 -19.08203125 -1.96948242 C-5.89518691 -2.3264934 -5.89518691 -2.3264934 0 0 Z " fill="#ffffff" 008BFE" transform="translate(669,402)"/>
<path d="M0 0 C9.35876517 8.83376127 14.20729201 19.90830882 14.6875 32.75 C14.21577537 45.76959971 9.33656423 56.5469018 0 65.5 C-9.83155902 73.73947016 -21.71287138 76.85005006 -34.4375 76.125 C-46.80382717 74.55895857 -56.24532726 68.99081842 -64.20703125 59.53515625 C-71.82339994 48.6943395 -72.86695273 37.09880818 -71.8125 24.25 C-69.4250716 12.68120408 -62.29319114 3.0880418 -52.8125 -3.75 C-35.49380699 -13.85898526 -15.8624275 -12.38043122 0 0 Z " fill="#ffffff" 008BFE" transform="translate(482.8125,447.75)"/>
<path d="M0 0 C2.32461026 3.48691539 2.19508443 4.63985204 2.01171875 8.7265625 C1.96466797 9.8403125 1.91761719 10.9540625 1.86914062 12.1015625 C1.80919922 13.26429688 1.74925781 14.42703125 1.6875 15.625 C1.63916016 16.79546875 1.59082031 17.9659375 1.54101562 19.171875 C1.14303286 27.85696714 1.14303286 27.85696714 0 29 C-1.99253351 29.21341027 -3.98589756 29.42102096 -5.98217773 29.59594727 C-13.96407235 30.29992862 -20.73038172 31.4497213 -28 35 C-28.99 35.33 -29.98 35.66 -31 36 C-31.33 36.99 -31.66 37.98 -32 39 C-32.66 39 -33.32 39 -34 39 C-40.39159428 50.79986636 -40.15286693 62.56237438 -40.0625 75.69140625 C-40.05871338 76.95846909 -40.05492676 78.22553192 -40.05102539 79.5309906 C-40.03889554 83.54153085 -40.02042681 87.55199605 -40 91.5625 C-39.97316663 96.87629682 -39.95348909 102.19006274 -39.9375 107.50390625 C-39.92920166 108.72775528 -39.92090332 109.95160431 -39.91235352 111.21253967 C-39.90905029 112.33808762 -39.90574707 113.46363556 -39.90234375 114.62329102 C-39.89448853 116.11240746 -39.89448853 116.11240746 -39.88647461 117.63160706 C-40 120 -40 120 -41 122 C-45.1117256 122.02465746 -49.22342278 122.04283959 -53.33520508 122.05493164 C-54.73495228 122.0599708 -56.1346942 122.06680216 -57.53442383 122.07543945 C-59.54245777 122.0875232 -61.55052957 122.09269807 -63.55859375 122.09765625 C-64.76829834 122.10289307 -65.97800293 122.10812988 -67.22436523 122.11352539 C-70 122 -70 122 -71 121 C-71.09584998 119.45646869 -71.1218807 117.90854892 -71.12025452 116.36204529 C-71.12162918 115.35938629 -71.12300385 114.35672729 -71.12442017 113.32368469 C-71.12082489 112.21454208 -71.11722961 111.10539948 -71.11352539 109.96264648 C-71.11367142 108.80182556 -71.11381744 107.64100464 -71.1139679 106.44500732 C-71.11326817 102.58701748 -71.10547298 98.72907522 -71.09765625 94.87109375 C-71.09579228 92.20451272 -71.09431912 89.53793436 -71.09336853 86.87135315 C-71.09025548 80.5567112 -71.08204244 74.24208649 -71.07201904 67.92745215 C-71.0608571 60.74014367 -71.05534725 53.55283439 -71.05032361 46.3655194 C-71.0398598 31.57700411 -71.02226086 16.78850235 -71 2 C-68.18175808 0.59087904 -65.82748718 0.88816447 -62.6796875 0.90234375 C-61.42285156 0.90556641 -60.16601562 0.90878906 -58.87109375 0.91210938 C-57.55238281 0.92048828 -56.23367188 0.92886719 -54.875 0.9375 C-53.53515789 0.94251511 -52.195314 0.94707799 -50.85546875 0.95117188 C-47.57026794 0.96298914 -44.28515603 0.97946383 -41 1 C-40.04012607 4.59354938 -39.69756609 8.03477011 -39.4375 11.75 C-39.31181641 13.50570313 -39.31181641 13.50570313 -39.18359375 15.296875 C-39.12300781 16.18890625 -39.06242188 17.0809375 -39 18 C-38.61070312 17.49210937 -38.22140625 16.98421875 -37.8203125 16.4609375 C-28.85660357 5.43185784 -14.42676415 -1.31152401 0 0 Z " fill="#ffffff" 008BFE" transform="translate(956,446)"/>
<path d="M0 0 C3 1 3 1 3 1 Z " fill="#ffffff" 0A85F2" transform="translate(378,598)"/>
<path d="M0 0 C3 1 3 1 3 1 Z " fill="#ffffff" 0B84F0" transform="translate(354,598)"/>
<path d="" fill="#ffffff" 535354" transform="translate(0,0)"/>
<path d="" fill="#ffffff" 535353" transform="translate(0,0)"/>
<path d="" fill="#ffffff" 535354" transform="translate(0,0)"/>
<path d="" fill="#ffffff" 535354" transform="translate(0,0)"/>
<path d="M0 0 C2 1 2 1 2 1 Z " fill="#ffffff" 505050" transform="translate(1090,987)"/>
<path d="M0 0 C2 1 2 1 2 1 Z " fill="#ffffff" 4F5050" transform="translate(1090,979)"/>
<path d="M0 0 C2 1 2 1 2 1 Z " fill="#ffffff" 4C4B4E" transform="translate(1090,955)"/>
<path d="M0 0 C2 1 2 1 2 1 Z " fill="#ffffff" 4A4A4B" transform="translate(1090,939)"/>
<path d="M0 0 C2 1 2 1 2 1 Z " fill="#ffffff" 383839" transform="translate(1090,843)"/>
<path d="M0 0 C2 1 2 1 2 1 Z " fill="#ffffff" 323336" transform="translate(1090,827)"/>
<path d="M0 0 C2 1 2 1 2 1 Z " fill="#ffffff" 2B2E33" transform="translate(1090,795)"/>
<path d="M0 0 C2 1 2 1 2 1 Z " fill="#ffffff" 0D86F1" transform="translate(563,598)"/>
<path d="M0 0 C2 1 2 1 2 1 Z " fill="#ffffff" 0B88F3" transform="translate(528,598)"/>
<path d="M0 0 C2 1 2 1 2 1 Z " fill="#ffffff" 0D86F1" transform="translate(514,598)"/>
<path d="M0 0 C2 1 2 1 2 1 Z " fill="#ffffff" 0987F4" transform="translate(411,598)"/>
<path d="M0 0 C2 1 2 1 2 1 Z " fill="#ffffff" 0985F3" transform="translate(387,598)"/>
<path d="M0 0 C2 1 2 1 2 1 Z " fill="#ffffff" 068EFF" transform="translate(443,524)"/>
<path d="M0 0 C2 1 2 1 2 1 Z " fill="#ffffff" 058AFC" transform="translate(850,518)"/>
<path d="" fill="#ffffff" 068CFD" transform="translate(0,0)"/>
<path d="" fill="#ffffff" 0A8AF9" transform="translate(0,0)"/>
<path d="M0 0 C2 1 2 1 2 1 Z " fill="#ffffff" 0B8AF5" transform="translate(849,456)"/>
<path d="M0 0 C2 1 2 1 2 1 Z " fill="#ffffff" 1287EF" transform="translate(994,445)"/>
<path d="M0 0 C2 1 2 1 2 1 Z " fill="#ffffff" 1288EF" transform="translate(948,445)"/>
<path d="M0 0 C2 1 2 1 2 1 Z " fill="#ffffff" 0D86F3" transform="translate(1044,444)"/>
<path d="M0 0 C2 1 2 1 2 1 Z " fill="#ffffff" 0A87F2" transform="translate(391,385)"/>
<path d="" fill="#ffffff" 284564" transform="translate(0,0)"/>
<path d="M0 0 C2 1 2 1 2 1 Z " fill="#ffffff" 323539" transform="translate(948,213)"/>
<path d="M0 0 C2 1 2 1 2 1 Z " fill="#ffffff" 3B3A3B" transform="translate(1090,171)"/>
<path d="M0 0 C2 1 2 1 2 1 Z " fill="#ffffff" 3C3C3E" transform="translate(1090,147)"/>
<path d="M0 0 C2 1 2 1 2 1 Z " fill="#ffffff" 454445" transform="translate(1090,83)"/>
<path d="M0 0 C2 1 2 1 2 1 Z " fill="#ffffff" 484647" transform="translate(1090,67)"/>
<path d="M0 0 C2 1 2 1 2 1 Z " fill="#ffffff" 4B4B4A" transform="translate(1042,45)"/>
<path d="M0 0 C2 1 2 1 2 1 Z " fill="#ffffff" 4C4B4C" transform="translate(1090,35)"/>
<path d="" fill="#ffffff" 4C4D4C" transform="translate(0,0)"/>
<path d="M0 0 C2 1 2 1 2 1 Z " fill="#ffffff" 4D4D4C" transform="translate(1042,29)"/>
<path d="M0 0 C2 1 2 1 2 1 Z " fill="#ffffff" 4D4D4E" transform="translate(1090,27)"/>
<path d="" fill="#ffffff" 4C4D4C" transform="translate(0,0)"/>
<path d="" fill="#ffffff" 4E504F" transform="translate(0,0)"/>
<path d="" fill="#ffffff" 4E4F4E" transform="translate(0,0)"/>
<path d="" fill="#ffffff" 515151" transform="translate(0,0)"/>
<path d="" fill="#ffffff" 535454" transform="translate(0,0)"/>
<path d="" fill="#ffffff" 535354" transform="translate(0,0)"/>
<path d="" fill="#ffffff" 545453" transform="translate(0,0)"/>
<path d="" fill="#ffffff" 545556" transform="translate(0,0)"/>
<path d="" fill="#ffffff" 565555" transform="translate(0,0)"/>
<path d="" fill="#ffffff" 545353" transform="translate(0,0)"/>
<path d="" fill="#ffffff" 515353" transform="translate(0,0)"/>
<path d="" fill="#ffffff" 535351" transform="translate(0,0)"/>
<path d="" fill="#ffffff" 565356" transform="translate(0,0)"/>
<path d="" fill="#ffffff" 535455" transform="translate(0,0)"/>
<path d="" fill="#ffffff" 535352" transform="translate(0,0)"/>
<path d="" fill="#ffffff" 545354" transform="translate(0,0)"/>
<path d="" fill="#ffffff" 515253" transform="translate(0,0)"/>
<path d="" fill="#ffffff" 535554" transform="translate(0,0)"/>
<path d="" fill="#ffffff" 515251" transform="translate(0,0)"/>
<path d="" fill="#ffffff" 525353" transform="translate(0,0)"/>
<path d="" fill="#ffffff" 535455" transform="translate(0,0)"/>
<path d="" fill="#ffffff" 525456" transform="translate(0,0)"/>
<path d="" fill="#ffffff" 555455" transform="translate(0,0)"/>
<path d="" fill="#ffffff" 545354" transform="translate(0,0)"/>
<path d="" fill="#ffffff" 545253" transform="translate(0,0)"/>
<path d="" fill="#ffffff" 525353" transform="translate(0,0)"/>
<path d="" fill="#ffffff" 535355" transform="translate(0,0)"/>
<path d="" fill="#ffffff" 535555" transform="translate(0,0)"/>
<path d="" fill="#ffffff" 515253" transform="translate(0,0)"/>
<path d="" fill="#ffffff" 535253" transform="translate(0,0)"/>
<path d="" fill="#ffffff" 535150" transform="translate(0,0)"/>
<path d="" fill="#ffffff" 515251" transform="translate(0,0)"/>
<path d="" fill="#ffffff" 53504F" transform="translate(0,0)"/>
<path d="" fill="#ffffff" 505252" transform="translate(0,0)"/>
<path d="" fill="#ffffff" 545454" transform="translate(0,0)"/>
<path d="" fill="#ffffff" 535352" transform="translate(0,0)"/>
<path d="" fill="#ffffff" 535555" transform="translate(0,0)"/>
<path d="" fill="#ffffff" 545355" transform="translate(0,0)"/>
<path d="" fill="#ffffff" 515152" transform="translate(0,0)"/>
<path d="" fill="#ffffff" 535454" transform="translate(0,0)"/>
<path d="" fill="#ffffff" 535352" transform="translate(0,0)"/>
<path d="" fill="#ffffff" 525153" transform="translate(0,0)"/>
<path d="" fill="#ffffff" 515352" transform="translate(0,0)"/>
<path d="" fill="#ffffff" 515253" transform="translate(0,0)"/>
<path d="" fill="#ffffff" 515251" transform="translate(0,0)"/>
<path d="" fill="#ffffff" 535455" transform="translate(0,0)"/>
<path d="" fill="#ffffff" 4E5251" transform="translate(0,0)"/>
<path d="" fill="#ffffff" 535352" transform="translate(0,0)"/>
<path d="" fill="#ffffff" 535154" transform="translate(0,0)"/>
<path d="" fill="#ffffff" 525252" transform="translate(0,0)"/>
<path d="" fill="#ffffff" 535152" transform="translate(0,0)"/>
<path d="" fill="#ffffff" 525251" transform="translate(0,0)"/>
<path d="" fill="#ffffff" 4F5350" transform="translate(0,0)"/>
<path d="" fill="#ffffff" 505252" transform="translate(0,0)"/>
<path d="" fill="#ffffff" 515252" transform="translate(0,0)"/>
<path d="" fill="#ffffff" 52514F" transform="translate(0,0)"/>
<path d="" fill="#ffffff" 505151" transform="translate(0,0)"/>
<path d="" fill="#ffffff" 525252" transform="translate(0,0)"/>
<path d="" fill="#ffffff" 545454" transform="translate(0,0)"/>
<path d="" fill="#ffffff" 515351" transform="translate(0,0)"/>
<path d="" fill="#ffffff" 535352" transform="translate(0,0)"/>
<path d="" fill="#ffffff" 525354" transform="translate(0,0)"/>
<path d="" fill="#ffffff" 505050" transform="translate(0,0)"/>
<path d="" fill="#ffffff" 4F5151" transform="translate(0,0)"/>
<path d="" fill="#ffffff" 4F5150" transform="translate(0,0)"/>
<path d="" fill="#ffffff" 504F50" transform="translate(0,0)"/>
<path d="" fill="#ffffff" 515051" transform="translate(0,0)"/>
<path d="" fill="#ffffff" 525051" transform="translate(0,0)"/>
<path d="" fill="#ffffff" 505251" transform="translate(0,0)"/>
<path d="" fill="#ffffff" 504F51" transform="translate(0,0)"/>
<path d="" fill="#ffffff" 505151" transform="translate(0,0)"/>
<path d="" fill="#ffffff" 524F53" transform="translate(0,0)"/>
<path d="" fill="#ffffff" 4F5051" transform="translate(0,0)"/>
<path d="" fill="#ffffff" 505151" transform="translate(0,0)"/>
<path d="" fill="#ffffff" 504F4F" transform="translate(0,0)"/>
<path d="" fill="#ffffff" 50504E" transform="translate(0,0)"/>
<path d="" fill="#ffffff" 4E5150" transform="translate(0,0)"/>
<path d="" fill="#ffffff" 4F5151" transform="translate(0,0)"/>
<path d="" fill="#ffffff" 4F4F50" transform="translate(0,0)"/>
<path d="" fill="#ffffff" 505151" transform="translate(0,0)"/>
<path d="" fill="#ffffff" 525353" transform="translate(0,0)"/>
<path d="" fill="#ffffff" 505453" transform="translate(0,0)"/>
<path d="" fill="#ffffff" 515253" transform="translate(0,0)"/>
<path d="" fill="#ffffff" 525254" transform="translate(0,0)"/>
<path d="" fill="#ffffff" 505252" transform="translate(0,0)"/>
<path d="" fill="#ffffff" 505250" transform="translate(0,0)"/>
<path d="" fill="#ffffff" 525353" transform="translate(0,0)"/>
<path d="" fill="#ffffff" 525150" transform="translate(0,0)"/>
<path d="" fill="#ffffff" 4F5050" transform="translate(0,0)"/>
<path d="" fill="#ffffff" 4C4F50" transform="translate(0,0)"/>
<path d="" fill="#ffffff" 504F4E" transform="translate(0,0)"/>
<path d="" fill="#ffffff" 515052" transform="translate(0,0)"/>
<path d="" fill="#ffffff" 505254" transform="translate(0,0)"/>
<path d="" fill="#ffffff" 515050" transform="translate(0,0)"/>
<path d="" fill="#ffffff" 4E5150" transform="translate(0,0)"/>
<path d="" fill="#ffffff" 4E4F50" transform="translate(0,0)"/>
<path d="" fill="#ffffff" 515050" transform="translate(0,0)"/>
<path d="" fill="#ffffff" 515152" transform="translate(0,0)"/>
<path d="" fill="#ffffff" 4D4F4F" transform="translate(0,0)"/>
<path d="" fill="#ffffff" 4E514E" transform="translate(0,0)"/>
<path d="" fill="#ffffff" 4E5050" transform="translate(0,0)"/>
<path d="" fill="#ffffff" 4D5150" transform="translate(0,0)"/>
<path d="" fill="#ffffff" 4F4F4F" transform="translate(0,0)"/>
<path d="" fill="#ffffff" 505051" transform="translate(0,0)"/>
<path d="" fill="#ffffff" 515252" transform="translate(0,0)"/>
<path d="" fill="#ffffff" 51524E" transform="translate(0,0)"/>
<path d="" fill="#ffffff" 515352" transform="translate(0,0)"/>
<path d="" fill="#ffffff" 4E504E" transform="translate(0,0)"/>
<path d="" fill="#ffffff" 4D4E4E" transform="translate(0,0)"/>
<path d="" fill="#ffffff" 4F5050" transform="translate(0,0)"/>
<path d="" fill="#ffffff" 515353" transform="translate(0,0)"/>
<path d="" fill="#ffffff" 4E5050" transform="translate(0,0)"/>
<path d="" fill="#ffffff" 4E504F" transform="translate(0,0)"/>
<path d="" fill="#ffffff" 4D4D4E" transform="translate(0,0)"/>
<path d="" fill="#ffffff" 4F4F50" transform="translate(0,0)"/>
<path d="" fill="#ffffff" 4C4E4E" transform="translate(0,0)"/>
<path d="" fill="#ffffff" 4F4E4F" transform="translate(0,0)"/>
<path d="" fill="#ffffff" 4F4F50" transform="translate(0,0)"/>
<path d="" fill="#ffffff" 4E514E" transform="translate(0,0)"/>
<path d="" fill="#ffffff" 4C504D" transform="translate(0,0)"/>
<path d="" fill="#ffffff" 4D4F4E" transform="translate(0,0)"/>
<path d="" fill="#ffffff" 4A4C4D" transform="translate(0,0)"/>
<path d="" fill="#ffffff" 4E4D4F" transform="translate(0,0)"/>
<path d="" fill="#ffffff" 4E4D4E" transform="translate(0,0)"/>
<path d="" fill="#ffffff" 4D504E" transform="translate(0,0)"/>
<path d="" fill="#ffffff" 4B4D4C" transform="translate(0,0)"/>
<path d="" fill="#ffffff" 4B4B4C" transform="translate(0,0)"/>
<path d="" fill="#ffffff" 4F4E50" transform="translate(0,0)"/>
<path d="" fill="#ffffff" 4B4E4C" transform="translate(0,0)"/>
<path d="" fill="#ffffff" 505150" transform="translate(0,0)"/>
<path d="" fill="#ffffff" 4C4C4C" transform="translate(0,0)"/>
<path d="" fill="#ffffff" 4C4D4D" transform="translate(0,0)"/>
<path d="" fill="#ffffff" 4C4E4E" transform="translate(0,0)"/>
<path d="" fill="#ffffff" 4D4C4C" transform="translate(0,0)"/>
<path d="" fill="#ffffff" 4D4B4A" transform="translate(0,0)"/>
<path d="" fill="#ffffff" 4D4C4C" transform="translate(0,0)"/>
<path d="" fill="#ffffff" 4C4C4D" transform="translate(0,0)"/>
<path d="" fill="#ffffff" 4C4B4D" transform="translate(0,0)"/>
<path d="" fill="#ffffff" 4D4F4F" transform="translate(0,0)"/>
<path d="" fill="#ffffff" 515353" transform="translate(0,0)"/>
<path d="" fill="#ffffff" 515153" transform="translate(0,0)"/>
<path d="" fill="#ffffff" 4E4D4F" transform="translate(0,0)"/>
<path d="" fill="#ffffff" 4A4D4C" transform="translate(0,0)"/>
<path d="" fill="#ffffff" 4B4C4B" transform="translate(0,0)"/>
<path d="" fill="#ffffff" 4D4D4E" transform="translate(0,0)"/>
<path d="" fill="#ffffff" 4C4D4D" transform="translate(0,0)"/>
<path d="" fill="#ffffff" 4F5151" transform="translate(0,0)"/>
<path d="" fill="#ffffff" 4C4D4C" transform="translate(0,0)"/>
<path d="" fill="#ffffff" 4B494A" transform="translate(0,0)"/>
<path d="" fill="#ffffff" 4A4B4B" transform="translate(0,0)"/>
<path d="" fill="#ffffff" 4B4B4B" transform="translate(0,0)"/>
<path d="" fill="#ffffff" 4F5050" transform="translate(0,0)"/>
<path d="" fill="#ffffff" 494B4B" transform="translate(0,0)"/>
<path d="" fill="#ffffff" 4E4F50" transform="translate(0,0)"/>
<path d="" fill="#ffffff" 4B4C4C" transform="translate(0,0)"/>
<path d="" fill="#ffffff" 474949" transform="translate(0,0)"/>
<path d="" fill="#ffffff" 4C4C4C" transform="translate(0,0)"/>
<path d="" fill="#ffffff" 4B4D4C" transform="translate(0,0)"/>
<path d="" fill="#ffffff" 4A4C4C" transform="translate(0,0)"/>
<path d="" fill="#ffffff" 4A4B4C" transform="translate(0,0)"/>
<path d="" fill="#ffffff" 494A47" transform="translate(0,0)"/>
<path d="" fill="#ffffff" 47494C" transform="translate(0,0)"/>
<path d="" fill="#ffffff" 484A48" transform="translate(0,0)"/>
<path d="" fill="#ffffff" 4D4E4D" transform="translate(0,0)"/>
<path d="" fill="#ffffff" 4B4C4C" transform="translate(0,0)"/>
<path d="" fill="#ffffff" 4F5050" transform="translate(0,0)"/>
<path d="" fill="#ffffff" 49494A" transform="translate(0,0)"/>
<path d="" fill="#ffffff" 464948" transform="translate(0,0)"/>
<path d="" fill="#ffffff" 494B4B" transform="translate(0,0)"/>
<path d="" fill="#ffffff" 484B49" transform="translate(0,0)"/>
<path d="" fill="#ffffff" 4B4A49" transform="translate(0,0)"/>
<path d="" fill="#ffffff" 4A4B4A" transform="translate(0,0)"/>
<path d="" fill="#ffffff" 484A4C" transform="translate(0,0)"/>
<path d="" fill="#ffffff" 49494A" transform="translate(0,0)"/>
<path d="" fill="#ffffff" 47484A" transform="translate(0,0)"/>
<path d="" fill="#ffffff" 494A4A" transform="translate(0,0)"/>
<path d="" fill="#ffffff" 464846" transform="translate(0,0)"/>
<path d="" fill="#ffffff" 474745" transform="translate(0,0)"/>
<path d="" fill="#ffffff" 484A49" transform="translate(0,0)"/>
<path d="" fill="#ffffff" 4D4D50" transform="translate(0,0)"/>
<path d="" fill="#ffffff" 474949" transform="translate(0,0)"/>
<path d="" fill="#ffffff" 505050" transform="translate(0,0)"/>
<path d="" fill="#ffffff" 484949" transform="translate(0,0)"/>
<path d="" fill="#ffffff" 4E504D" transform="translate(0,0)"/>
<path d="" fill="#ffffff" 494849" transform="translate(0,0)"/>
<path d="" fill="#ffffff" 464948" transform="translate(0,0)"/>
<path d="" fill="#ffffff" 464848" transform="translate(0,0)"/>
<path d="" fill="#ffffff" 474647" transform="translate(0,0)"/>
<path d="" fill="#ffffff" 484A4B" transform="translate(0,0)"/>
<path d="" fill="#ffffff" 4D4E4E" transform="translate(0,0)"/>
<path d="" fill="#ffffff" 4E4E50" transform="translate(0,0)"/>
<path d="" fill="#ffffff" 474745" transform="translate(0,0)"/>
<path d="" fill="#ffffff" 4D4E4F" transform="translate(0,0)"/>
<path d="" fill="#ffffff" 4F5050" transform="translate(0,0)"/>
<path d="" fill="#ffffff" 484848" transform="translate(0,0)"/>
<path d="" fill="#ffffff" 434746" transform="translate(0,0)"/>
<path d="" fill="#ffffff" 474648" transform="translate(0,0)"/>
<path d="" fill="#ffffff" 474747" transform="translate(0,0)"/>
<path d="" fill="#ffffff" 464748" transform="translate(0,0)"/>
<path d="" fill="#ffffff" 464646" transform="translate(0,0)"/>
<path d="" fill="#ffffff" 474848" transform="translate(0,0)"/>
<path d="" fill="#ffffff" 444545" transform="translate(0,0)"/>
<path d="" fill="#ffffff" 444546" transform="translate(0,0)"/>
<path d="" fill="#ffffff" 4C4D4D" transform="translate(0,0)"/>
<path d="" fill="#ffffff" 4D4D50" transform="translate(0,0)"/>
<path d="" fill="#ffffff" 454746" transform="translate(0,0)"/>
<path d="" fill="#ffffff" 424645" transform="translate(0,0)"/>
<path d="" fill="#ffffff" 464547" transform="translate(0,0)"/>
<path d="" fill="#ffffff" 464546" transform="translate(0,0)"/>
<path d="" fill="#ffffff" 474646" transform="translate(0,0)"/>
<path d="" fill="#ffffff" 444645" transform="translate(0,0)"/>
<path d="" fill="#ffffff" 454745" transform="translate(0,0)"/>
<path d="" fill="#ffffff" 454243" transform="translate(0,0)"/>
<path d="" fill="#ffffff" 404342" transform="translate(0,0)"/>
<path d="" fill="#ffffff" 454345" transform="translate(0,0)"/>
<path d="" fill="#ffffff" 4C4C4E" transform="translate(0,0)"/>
<path d="" fill="#ffffff" 444545" transform="translate(0,0)"/>
<path d="" fill="#ffffff" 464746" transform="translate(0,0)"/>
<path d="" fill="#ffffff" 444444" transform="translate(0,0)"/>
<path d="" fill="#ffffff" 4B4C4C" transform="translate(0,0)"/>
<path d="" fill="#ffffff" 3F4142" transform="translate(0,0)"/>
<path d="" fill="#ffffff" 414344" transform="translate(0,0)"/>
<path d="" fill="#ffffff" 434544" transform="translate(0,0)"/>
<path d="" fill="#ffffff" 434344" transform="translate(0,0)"/>
<path d="" fill="#ffffff" 3F4142" transform="translate(0,0)"/>
<path d="" fill="#ffffff" 404040" transform="translate(0,0)"/>
<path d="" fill="#ffffff" 3F4241" transform="translate(0,0)"/>
<path d="" fill="#ffffff" 424544" transform="translate(0,0)"/>
<path d="" fill="#ffffff" 414041" transform="translate(0,0)"/>
<path d="" fill="#ffffff" 4A4C4C" transform="translate(0,0)"/>
<path d="" fill="#ffffff" 414141" transform="translate(0,0)"/>
<path d="" fill="#ffffff" 494B4B" transform="translate(0,0)"/>
<path d="" fill="#ffffff" 3D3F40" transform="translate(0,0)"/>
<path d="" fill="#ffffff" 404141" transform="translate(0,0)"/>
<path d="" fill="#ffffff" 3E3E40" transform="translate(0,0)"/>
<path d="" fill="#ffffff" 3F4343" transform="translate(0,0)"/>
<path d="" fill="#ffffff" 4B494C" transform="translate(0,0)"/>
<path d="" fill="#ffffff" 474847" transform="translate(0,0)"/>
<path d="" fill="#ffffff" 4A4B4B" transform="translate(0,0)"/>
<path d="" fill="#ffffff" 404142" transform="translate(0,0)"/>
<path d="" fill="#ffffff" 3A3F3D" transform="translate(0,0)"/>
<path d="" fill="#ffffff" 3F4040" transform="translate(0,0)"/>
<path d="" fill="#ffffff" 3B3E3F" transform="translate(0,0)"/>
<path d="" fill="#ffffff" 404141" transform="translate(0,0)"/>
<path d="" fill="#ffffff" 484748" transform="translate(0,0)"/>
<path d="" fill="#ffffff" 484A4B" transform="translate(0,0)"/>
<path d="" fill="#ffffff" 3D3E40" transform="translate(0,0)"/>
<path d="" fill="#ffffff" 3A3C3D" transform="translate(0,0)"/>
<path d="" fill="#ffffff" 3C3E41" transform="translate(0,0)"/>
<path d="" fill="#ffffff" 3C3E3D" transform="translate(0,0)"/>
<path d="" fill="#ffffff" 4A4A4A" transform="translate(0,0)"/>
<path d="" fill="#ffffff" 383D3C" transform="translate(0,0)"/>
<path d="" fill="#ffffff" 3D3F40" transform="translate(0,0)"/>
<path d="" fill="#ffffff" 3D3F3F" transform="translate(0,0)"/>
<path d="" fill="#ffffff" 3B3D3E" transform="translate(0,0)"/>
<path d="" fill="#ffffff" 484947" transform="translate(0,0)"/>
<path d="" fill="#ffffff" 393A3C" transform="translate(0,0)"/>
<path d="" fill="#ffffff" 3A3B3D" transform="translate(0,0)"/>
<path d="" fill="#ffffff" 424546" transform="translate(0,0)"/>
<path d="" fill="#ffffff" 3E3E40" transform="translate(0,0)"/>
<path d="" fill="#ffffff" 373B3B" transform="translate(0,0)"/>
<path d="" fill="#ffffff" 3B3C3F" transform="translate(0,0)"/>
<path d="" fill="#ffffff" 3B3C3D" transform="translate(0,0)"/>
<path d="" fill="#ffffff" 36393C" transform="translate(0,0)"/>
<path d="" fill="#ffffff" 373A3A" transform="translate(0,0)"/>
<path d="" fill="#ffffff" 454547" transform="translate(0,0)"/>
<path d="" fill="#ffffff" 3A3E3C" transform="translate(0,0)"/>
<path d="" fill="#ffffff" 474849" transform="translate(0,0)"/>
<path d="" fill="#ffffff" 38393B" transform="translate(0,0)"/>
<path d="" fill="#ffffff" 353839" transform="translate(0,0)"/>
<path d="" fill="#ffffff" 3A3A3E" transform="translate(0,0)"/>
<path d="" fill="#ffffff" 383A3A" transform="translate(0,0)"/>
<path d="" fill="#ffffff" 3B3C3C" transform="translate(0,0)"/>
<path d="" fill="#ffffff" 353838" transform="translate(0,0)"/>
<path d="" fill="#ffffff" 383A3C" transform="translate(0,0)"/>
<path d="" fill="#ffffff" 37383A" transform="translate(0,0)"/>
<path d="" fill="#ffffff" 333837" transform="translate(0,0)"/>
<path d="" fill="#ffffff" 37393E" transform="translate(0,0)"/>
<path d="" fill="#ffffff" 444345" transform="translate(0,0)"/>
<path d="" fill="#ffffff" 474749" transform="translate(0,0)"/>
<path d="" fill="#ffffff" 383B3B" transform="translate(0,0)"/>
<path d="" fill="#ffffff" 383839" transform="translate(0,0)"/>
<path d="" fill="#ffffff" 35383B" transform="translate(0,0)"/>
<path d="" fill="#ffffff" 474748" transform="translate(0,0)"/>
<path d="" fill="#ffffff" 3C3D3F" transform="translate(0,0)"/>
<path d="" fill="#ffffff" 464749" transform="translate(0,0)"/>
<path d="" fill="#ffffff" 323536" transform="translate(0,0)"/>
<path d="" fill="#ffffff" 36373C" transform="translate(0,0)"/>
<path d="" fill="#ffffff" 484549" transform="translate(0,0)"/>
<path d="" fill="#ffffff" 323637" transform="translate(0,0)"/>
<path d="" fill="#ffffff" 363939" transform="translate(0,0)"/>
<path d="" fill="#ffffff" 303335" transform="translate(0,0)"/>
<path d="" fill="#ffffff" 3B3D3D" transform="translate(0,0)"/>
<path d="" fill="#ffffff" 343638" transform="translate(0,0)"/>
<path d="" fill="#ffffff" 353738" transform="translate(0,0)"/>
<path d="" fill="#ffffff" 454747" transform="translate(0,0)"/>
<path d="" fill="#ffffff" 2E3234" transform="translate(0,0)"/>
<path d="" fill="#ffffff" 33363A" transform="translate(0,0)"/>
<path d="" fill="#ffffff" 434343" transform="translate(0,0)"/>
<path d="" fill="#ffffff" 444645" transform="translate(0,0)"/>
<path d="" fill="#ffffff" 2D3033" transform="translate(0,0)"/>
<path d="" fill="#ffffff" 313439" transform="translate(0,0)"/>
<path d="" fill="#ffffff" 343638" transform="translate(0,0)"/>
<path d="" fill="#ffffff" 444546" transform="translate(0,0)"/>
<path d="" fill="#ffffff" 2F3034" transform="translate(0,0)"/>
<path d="" fill="#ffffff" 2B2F31" transform="translate(0,0)"/>
<path d="" fill="#ffffff" 434445" transform="translate(0,0)"/>
<path d="" fill="#ffffff" 303234" transform="translate(0,0)"/>
<path d="" fill="#ffffff" 403F42" transform="translate(0,0)"/>
<path d="" fill="#ffffff" 323536" transform="translate(0,0)"/>
<path d="" fill="#ffffff" 35393A" transform="translate(0,0)"/>
<path d="" fill="#ffffff" 2F3134" transform="translate(0,0)"/>
<path d="" fill="#ffffff" 434645" transform="translate(0,0)"/>
<path d="" fill="#ffffff" 2D3034" transform="translate(0,0)"/>
<path d="" fill="#ffffff" 262D2F" transform="translate(0,0)"/>
<path d="" fill="#ffffff" 2F3035" transform="translate(0,0)"/>
<path d="" fill="#ffffff" 3F3E40" transform="translate(0,0)"/>
<path d="" fill="#ffffff" 2B3135" transform="translate(0,0)"/>
<path d="" fill="#ffffff" 323637" transform="translate(0,0)"/>
<path d="" fill="#ffffff" 272B2E" transform="translate(0,0)"/>
<path d="" fill="#ffffff" 2C3037" transform="translate(0,0)"/>
<path d="" fill="#ffffff" 2D2F34" transform="translate(0,0)"/>
<path d="" fill="#ffffff" 272B30" transform="translate(0,0)"/>
<path d="" fill="#ffffff" 3B3D3E" transform="translate(0,0)"/>
<path d="" fill="#ffffff" 444646" transform="translate(0,0)"/>
<path d="" fill="#ffffff" 2A2E32" transform="translate(0,0)"/>
<path d="" fill="#ffffff" 242C2F" transform="translate(0,0)"/>
<path d="" fill="#ffffff" 2B3037" transform="translate(0,0)"/>
<path d="" fill="#ffffff" 414345" transform="translate(0,0)"/>
<path d="" fill="#ffffff" 444245" transform="translate(0,0)"/>
<path d="" fill="#ffffff" 424444" transform="translate(0,0)"/>
<path d="" fill="#ffffff" 414442" transform="translate(0,0)"/>
<path d="" fill="#ffffff" 292D32" transform="translate(0,0)"/>
<path d="" fill="#ffffff" 393D3F" transform="translate(0,0)"/>
<path d="" fill="#ffffff" 404144" transform="translate(0,0)"/>
<path d="" fill="#ffffff" 4A4B4B" transform="translate(0,0)"/>
<path d="" fill="#ffffff" 26292C" transform="translate(0,0)"/>
<path d="" fill="#ffffff" 2A3139" transform="translate(0,0)"/>
<path d="" fill="#ffffff" 424243" transform="translate(0,0)"/>
<path d="" fill="#ffffff" 424343" transform="translate(0,0)"/>
<path d="" fill="#ffffff" 2A2E33" transform="translate(0,0)"/>
<path d="" fill="#ffffff" 252C32" transform="translate(0,0)"/>
<path d="" fill="#ffffff" 242A2F" transform="translate(0,0)"/>
<path d="" fill="#ffffff" 24292F" transform="translate(0,0)"/>
<path d="" fill="#ffffff" 303437" transform="translate(0,0)"/>
<path d="" fill="#ffffff" 293032" transform="translate(0,0)"/>
<path d="" fill="#ffffff" 404343" transform="translate(0,0)"/>
<path d="" fill="#ffffff" 282D35" transform="translate(0,0)"/>
<path d="" fill="#ffffff" 222A30" transform="translate(0,0)"/>
<path d="" fill="#ffffff" 2A3239" transform="translate(0,0)"/>
<path d="" fill="#ffffff" 2A2E34" transform="translate(0,0)"/>
<path d="" fill="#ffffff" 242C32" transform="translate(0,0)"/>
<path d="" fill="#ffffff" 454445" transform="translate(0,0)"/>
<path d="" fill="#ffffff" 444545" transform="translate(0,0)"/>
<path d="" fill="#ffffff" 222A30" transform="translate(0,0)"/>
<path d="" fill="#ffffff" 232C34" transform="translate(0,0)"/>
<path d="" fill="#ffffff" 404143" transform="translate(0,0)"/>
<path d="" fill="#ffffff" 232A31" transform="translate(0,0)"/>
<path d="" fill="#ffffff" 29313C" transform="translate(0,0)"/>
<path d="" fill="#ffffff" 3E4143" transform="translate(0,0)"/>
<path d="" fill="#ffffff" 414042" transform="translate(0,0)"/>
<path d="" fill="#ffffff" 2E3338" transform="translate(0,0)"/>
<path d="" fill="#ffffff" 212A31" transform="translate(0,0)"/>
<path d="" fill="#ffffff" 28323F" transform="translate(0,0)"/>
<path d="" fill="#ffffff" 3E4142" transform="translate(0,0)"/>
<path d="" fill="#ffffff" 3E4041" transform="translate(0,0)"/>
<path d="" fill="#ffffff" 1F2C35" transform="translate(0,0)"/>
<path d="" fill="#ffffff" 283440" transform="translate(0,0)"/>
<path d="" fill="#ffffff" 242C35" transform="translate(0,0)"/>
<path d="" fill="#ffffff" 2B343C" transform="translate(0,0)"/>
<path d="" fill="#ffffff" 212D36" transform="translate(0,0)"/>
<path d="" fill="#ffffff" 202C35" transform="translate(0,0)"/>
<path d="" fill="#ffffff" 283644" transform="translate(0,0)"/>
<path d="" fill="#ffffff" 26303C" transform="translate(0,0)"/>
<path d="" fill="#ffffff" 29343D" transform="translate(0,0)"/>
<path d="" fill="#ffffff" 3C3E42" transform="translate(0,0)"/>
<path d="" fill="#ffffff" 24313C" transform="translate(0,0)"/>
<path d="" fill="#ffffff" 3C3F41" transform="translate(0,0)"/>
<path d="" fill="#ffffff" 202D38" transform="translate(0,0)"/>
<path d="" fill="#ffffff" 253648" transform="translate(0,0)"/>
<path d="" fill="#ffffff" 3D3D40" transform="translate(0,0)"/>
<path d="" fill="#ffffff" 3C3F41" transform="translate(0,0)"/>
<path d="" fill="#ffffff" 243141" transform="translate(0,0)"/>
<path d="" fill="#ffffff" 202E3D" transform="translate(0,0)"/>
<path d="" fill="#ffffff" 3C3E40" transform="translate(0,0)"/>
<path d="" fill="#ffffff" 243241" transform="translate(0,0)"/>
<path d="" fill="#ffffff" 1F313F" transform="translate(0,0)"/>
<path d="" fill="#ffffff" 3B3E41" transform="translate(0,0)"/>
<path d="" fill="#ffffff" 243344" transform="translate(0,0)"/>
<path d="" fill="#ffffff" 3B3F3F" transform="translate(0,0)"/>
<path d="" fill="#ffffff" 3A3C41" transform="translate(0,0)"/>
<path d="" fill="#ffffff" 1F3343" transform="translate(0,0)"/>
<path d="" fill="#ffffff" 1F3142" transform="translate(0,0)"/>
<path d="" fill="#ffffff" 233648" transform="translate(0,0)"/>
<path d="" fill="#ffffff" 343A3F" transform="translate(0,0)"/>
<path d="" fill="#ffffff" 283847" transform="translate(0,0)"/>
<path d="" fill="#ffffff" 393C40" transform="translate(0,0)"/>
<path d="" fill="#ffffff" 203448" transform="translate(0,0)"/>
<path d="" fill="#ffffff" 363A3D" transform="translate(0,0)"/>
<path d="" fill="#ffffff" 393C41" transform="translate(0,0)"/>
<path d="" fill="#ffffff" 393D40" transform="translate(0,0)"/>
<path d="" fill="#ffffff" 383A41" transform="translate(0,0)"/>
<path d="" fill="#ffffff" 3A3D3F" transform="translate(0,0)"/>
<path d="" fill="#ffffff" 243950" transform="translate(0,0)"/>
<path d="" fill="#ffffff" 233B53" transform="translate(0,0)"/>
<path d="" fill="#ffffff" 21384F" transform="translate(0,0)"/>
<path d="" fill="#ffffff" 3C3D41" transform="translate(0,0)"/>
<path d="" fill="#ffffff" 1E3951" transform="translate(0,0)"/>
<path d="" fill="#ffffff" 254769" transform="translate(0,0)"/>
<path d="" fill="#ffffff" 343941" transform="translate(0,0)"/>
<path d="" fill="#ffffff" 383D41" transform="translate(0,0)"/>
<path d="" fill="#ffffff" 1E3B57" transform="translate(0,0)"/>
<path d="" fill="#ffffff" 244A71" transform="translate(0,0)"/>
<path d="" fill="#ffffff" 373B40" transform="translate(0,0)"/>
<path d="" fill="#ffffff" 393C42" transform="translate(0,0)"/>
<path d="" fill="#ffffff" 244F7A" transform="translate(0,0)"/>
<path d="" fill="#ffffff" 26435E" transform="translate(0,0)"/>
<path d="" fill="#ffffff" 393C40" transform="translate(0,0)"/>
<path d="" fill="#ffffff" 245483" transform="translate(0,0)"/>
<path d="" fill="#ffffff" 23486C" transform="translate(0,0)"/>
<path d="" fill="#ffffff" 224569" transform="translate(0,0)"/>
<path d="" fill="#ffffff" 363A3F" transform="translate(0,0)"/>
<path d="" fill="#ffffff" 383B3F" transform="translate(0,0)"/>
<path d="" fill="#ffffff" 23598E" transform="translate(0,0)"/>
<path d="" fill="#ffffff" 214870" transform="translate(0,0)"/>
<path d="" fill="#ffffff" 343A40" transform="translate(0,0)"/>
<path d="" fill="#ffffff" 204B74" transform="translate(0,0)"/>
<path d="" fill="#ffffff" 235F99" transform="translate(0,0)"/>
<path d="" fill="#ffffff" 343840" transform="translate(0,0)"/>
<path d="" fill="#ffffff" 2265A6" transform="translate(0,0)"/>
<path d="" fill="#ffffff" 215282" transform="translate(0,0)"/>
<path d="" fill="#ffffff" 21578B" transform="translate(0,0)"/>
<path d="" fill="#ffffff" 1E5B92" transform="translate(0,0)"/>
<path d="" fill="#ffffff" 323B41" transform="translate(0,0)"/>
<path d="" fill="#ffffff" 1E79CE" transform="translate(0,0)"/>
<path d="" fill="#ffffff" 323841" transform="translate(0,0)"/>
<path d="" fill="#ffffff" 313941" transform="translate(0,0)"/>
<path d="" fill="#ffffff" 313841" transform="translate(0,0)"/>
<path d="" fill="#ffffff" 1F69AE" transform="translate(0,0)"/>
<path d="" fill="#ffffff" 313742" transform="translate(0,0)"/>
<path d="" fill="#ffffff" 1986EA" transform="translate(0,0)"/>
<path d="" fill="#ffffff" 0C86F1" transform="translate(0,0)"/>
<path d="" fill="#ffffff" 0A85F3" transform="translate(0,0)"/>
<path d="" fill="#ffffff" 0A85F1" transform="translate(0,0)"/>
<path d="" fill="#ffffff" 0A88F3" transform="translate(0,0)"/>
<path d="" fill="#ffffff" 0988F0" transform="translate(0,0)"/>
<path d="" fill="#ffffff" 0B88F4" transform="translate(0,0)"/>
<path d="" fill="#ffffff" 0E87F3" transform="translate(0,0)"/>
<path d="" fill="#ffffff" 0A86F5" transform="translate(0,0)"/>
<path d="" fill="#ffffff" 0889F4" transform="translate(0,0)"/>
<path d="" fill="#ffffff" 0987F5" transform="translate(0,0)"/>
<path d="" fill="#ffffff" 0887F5" transform="translate(0,0)"/>
<path d="" fill="#ffffff" 0C85F5" transform="translate(0,0)"/>
<path d="" fill="#ffffff" 0B85F2" transform="translate(0,0)"/>
<path d="" fill="#ffffff" 0A88F4" transform="translate(0,0)"/>
<path d="" fill="#ffffff" 0C86F1" transform="translate(0,0)"/>
<path d="" fill="#ffffff" 0C87F2" transform="translate(0,0)"/>
<path d="" fill="#ffffff" 0E85F0" transform="translate(0,0)"/>
<path d="" fill="#ffffff" 313742" transform="translate(0,0)"/>
<path d="" fill="#ffffff" 1182E7" transform="translate(0,0)"/>
<path d="" fill="#ffffff" 2F3743" transform="translate(0,0)"/>
<path d="" fill="#ffffff" 2F3842" transform="translate(0,0)"/>
<path d="" fill="#ffffff" 2F3842" transform="translate(0,0)"/>
<path d="" fill="#ffffff" 2D3844" transform="translate(0,0)"/>
<path d="" fill="#ffffff" 2E3843" transform="translate(0,0)"/>
<path d="" fill="#ffffff" 1286EB" transform="translate(0,0)"/>
<path d="" fill="#ffffff" 1184EE" transform="translate(0,0)"/>
<path d="" fill="#ffffff" 1386ED" transform="translate(0,0)"/>
<path d="" fill="#ffffff" 0F86F0" transform="translate(0,0)"/>
<path d="" fill="#ffffff" 0F86ED" transform="translate(0,0)"/>
<path d="" fill="#ffffff" 1386ED" transform="translate(0,0)"/>
<path d="" fill="#ffffff" 118AF5" transform="translate(0,0)"/>
<path d="" fill="#ffffff" 167DD8" transform="translate(0,0)"/>
<path d="" fill="#ffffff" 2D3745" transform="translate(0,0)"/>
<path d="" fill="#ffffff" 0C85F1" transform="translate(0,0)"/>
<path d="" fill="#ffffff" 0D84F0" transform="translate(0,0)"/>
<path d="" fill="#ffffff" 1380E4" transform="translate(0,0)"/>
<path d="" fill="#ffffff" 0986F2" transform="translate(0,0)"/>
<path d="" fill="#ffffff" 0B89F6" transform="translate(0,0)"/>
<path d="" fill="#ffffff" 0A8AF8" transform="translate(0,0)"/>
<path d="" fill="#ffffff" 098CF7" transform="translate(0,0)"/>
<path d="" fill="#ffffff" 078DFE" transform="translate(0,0)"/>
<path d="" fill="#ffffff" 078AFC" transform="translate(0,0)"/>
<path d="" fill="#ffffff" 088BFD" transform="translate(0,0)"/>
<path d="" fill="#ffffff" 108DF9" transform="translate(0,0)"/>
<path d="" fill="#ffffff" 058DFD" transform="translate(0,0)"/>
<path d="" fill="#ffffff" 2E3947" transform="translate(0,0)"/>
<path d="" fill="#ffffff" 0A8FFF" transform="translate(0,0)"/>
<path d="" fill="#ffffff" 0B91FE" transform="translate(0,0)"/>
<path d="" fill="#ffffff" 058EFF" transform="translate(0,0)"/>
<path d="" fill="#ffffff" 0687F2" transform="translate(0,0)"/>
<path d="" fill="#ffffff" 098CFC" transform="translate(0,0)"/>
<path d="" fill="#ffffff" 098BFE" transform="translate(0,0)"/>
<path d="" fill="#ffffff" 2D3A48" transform="translate(0,0)"/>
<path d="" fill="#ffffff" 088CFD" transform="translate(0,0)"/>
<path d="" fill="#ffffff" 088BFB" transform="translate(0,0)"/>
<path d="" fill="#ffffff" 088DFD" transform="translate(0,0)"/>
<path d="" fill="#ffffff" 098EFD" transform="translate(0,0)"/>
<path d="" fill="#ffffff" 068EFD" transform="translate(0,0)"/>
<path d="" fill="#ffffff" 068EFF" transform="translate(0,0)"/>
<path d="" fill="#ffffff" 2E3B47" transform="translate(0,0)"/>
<path d="" fill="#ffffff" 048BFF" transform="translate(0,0)"/>
<path d="" fill="#ffffff" 0B8FFE" transform="translate(0,0)"/>
<path d="" fill="#ffffff" 0589FC" transform="translate(0,0)"/>
<path d="" fill="#ffffff" 038BFE" transform="translate(0,0)"/>
<path d="" fill="#ffffff" 038CFF" transform="translate(0,0)"/>
<path d="" fill="#ffffff" 2E3947" transform="translate(0,0)"/>
<path d="" fill="#ffffff" 0D8DFE" transform="translate(0,0)"/>
<path d="" fill="#ffffff" 058CFD" transform="translate(0,0)"/>
<path d="" fill="#ffffff" 088BFF" transform="translate(0,0)"/>
<path d="" fill="#ffffff" 048DFF" transform="translate(0,0)"/>
<path d="" fill="#ffffff" 2F3C4A" transform="translate(0,0)"/>
<path d="" fill="#ffffff" 0689FB" transform="translate(0,0)"/>
<path d="" fill="#ffffff" 038DFB" transform="translate(0,0)"/>
<path d="" fill="#ffffff" 2E3B4A" transform="translate(0,0)"/>
<path d="" fill="#ffffff" 2E3A48" transform="translate(0,0)"/>
<path d="" fill="#ffffff" 2E3A49" transform="translate(0,0)"/>
<path d="" fill="#ffffff" 088CFF" transform="translate(0,0)"/>
<path d="" fill="#ffffff" 078FFD" transform="translate(0,0)"/>
<path d="" fill="#ffffff" 068BFE" transform="translate(0,0)"/>
<path d="" fill="#ffffff" 088CFE" transform="translate(0,0)"/>
<path d="" fill="#ffffff" 048EFD" transform="translate(0,0)"/>
<path d="" fill="#ffffff" 088DFD" transform="translate(0,0)"/>
<path d="" fill="#ffffff" 2E3C49" transform="translate(0,0)"/>
<path d="" fill="#ffffff" 058FFE" transform="translate(0,0)"/>
<path d="" fill="#ffffff" 078EFF" transform="translate(0,0)"/>
<path d="" fill="#ffffff" 048EFE" transform="translate(0,0)"/>
<path d="" fill="#ffffff" 2E3A4A" transform="translate(0,0)"/>
<path d="" fill="#ffffff" 048EFF" transform="translate(0,0)"/>
<path d="" fill="#ffffff" 2C3C4A" transform="translate(0,0)"/>
<path d="" fill="#ffffff" 0A8CFE" transform="translate(0,0)"/>
<path d="" fill="#ffffff" 068BFC" transform="translate(0,0)"/>
<path d="" fill="#ffffff" 2E3B4A" transform="translate(0,0)"/>
<path d="" fill="#ffffff" 323843" transform="translate(0,0)"/>
<path d="" fill="#ffffff" 0C89FB" transform="translate(0,0)"/>
<path d="" fill="#ffffff" 088FFF" transform="translate(0,0)"/>
<path d="" fill="#ffffff" 098EFD" transform="translate(0,0)"/>
<path d="" fill="#ffffff" 098FFF" transform="translate(0,0)"/>
<path d="" fill="#ffffff" 0B8AF9" transform="translate(0,0)"/>
<path d="" fill="#ffffff" 0A8FFF" transform="translate(0,0)"/>
<path d="" fill="#ffffff" 2E3C4B" transform="translate(0,0)"/>
<path d="" fill="#ffffff" 068DFD" transform="translate(0,0)"/>
<path d="" fill="#ffffff" 2F3C4A" transform="translate(0,0)"/>
<path d="" fill="#ffffff" 0A8CFE" transform="translate(0,0)"/>
<path d="" fill="#ffffff" 0E84E8" transform="translate(0,0)"/>
<path d="" fill="#ffffff" 0A8FFE" transform="translate(0,0)"/>
<path d="" fill="#ffffff" 0589FD" transform="translate(0,0)"/>
<path d="" fill="#ffffff" 2E3B48" transform="translate(0,0)"/>
<path d="" fill="#ffffff" 1181E0" transform="translate(0,0)"/>
<path d="" fill="#ffffff" 088DFB" transform="translate(0,0)"/>
<path d="" fill="#ffffff" 058CFE" transform="translate(0,0)"/>
<path d="" fill="#ffffff" 0A8AF9" transform="translate(0,0)"/>
<path d="" fill="#ffffff" 0E82E7" transform="translate(0,0)"/>
<path d="" fill="#ffffff" 0A8AF2" transform="translate(0,0)"/>
<path d="" fill="#ffffff" 0587FD" transform="translate(0,0)"/>
<path d="" fill="#ffffff" 0A89F8" transform="translate(0,0)"/>
<path d="" fill="#ffffff" 0D8AF4" transform="translate(0,0)"/>
<path d="" fill="#ffffff" 0B87F0" transform="translate(0,0)"/>
<path d="" fill="#ffffff" 0689F9" transform="translate(0,0)"/>
<path d="" fill="#ffffff" 0B87F3" transform="translate(0,0)"/>
<path d="" fill="#ffffff" 0F88F0" transform="translate(0,0)"/>
<path d="" fill="#ffffff" 078BFD" transform="translate(0,0)"/>
<path d="" fill="#ffffff" 0D85EE" transform="translate(0,0)"/>
<path d="" fill="#ffffff" 0A88F2" transform="translate(0,0)"/>
<path d="" fill="#ffffff" 1088EF" transform="translate(0,0)"/>
<path d="" fill="#ffffff" 1187F1" transform="translate(0,0)"/>
<path d="" fill="#ffffff" 1088EF" transform="translate(0,0)"/>
<path d="" fill="#ffffff" 1383ED" transform="translate(0,0)"/>
<path d="" fill="#ffffff" 0A8AF2" transform="translate(0,0)"/>
<path d="" fill="#ffffff" 108AF2" transform="translate(0,0)"/>
<path d="" fill="#ffffff" 078FFF" transform="translate(0,0)"/>
<path d="" fill="#ffffff" 0A87F1" transform="translate(0,0)"/>
<path d="" fill="#ffffff" 2E3947" transform="translate(0,0)"/>
<path d="" fill="#ffffff" 303A45" transform="translate(0,0)"/>
<path d="" fill="#ffffff" 2F3942" transform="translate(0,0)"/>
<path d="" fill="#ffffff" 313945" transform="translate(0,0)"/>
<path d="" fill="#ffffff" 313943" transform="translate(0,0)"/>
<path d="" fill="#ffffff" 1E6AB2" transform="translate(0,0)"/>
<path d="" fill="#ffffff" 088AFD" transform="translate(0,0)"/>
<path d="" fill="#ffffff" 0A90FE" transform="translate(0,0)"/>
<path d="" fill="#ffffff" 0D8DF8" transform="translate(0,0)"/>
<path d="" fill="#ffffff" 068CFF" transform="translate(0,0)"/>
<path d="" fill="#ffffff" 1583E7" transform="translate(0,0)"/>
<path d="" fill="#ffffff" 1085F0" transform="translate(0,0)"/>
<path d="" fill="#ffffff" 313941" transform="translate(0,0)"/>
<path d="" fill="#ffffff" 303842" transform="translate(0,0)"/>
<path d="" fill="#ffffff" 0C89F3" transform="translate(0,0)"/>
<path d="" fill="#ffffff" 323842" transform="translate(0,0)"/>
<path d="" fill="#ffffff" 313941" transform="translate(0,0)"/>
<path d="" fill="#ffffff" 215B94" transform="translate(0,0)"/>
<path d="" fill="#ffffff" 0C88F3" transform="translate(0,0)"/>
<path d="" fill="#ffffff" 0E86ED" transform="translate(0,0)"/>
<path d="" fill="#ffffff" 0887F4" transform="translate(0,0)"/>
<path d="" fill="#ffffff" 333941" transform="translate(0,0)"/>
<path d="" fill="#ffffff" 323940" transform="translate(0,0)"/>
<path d="" fill="#ffffff" 215689" transform="translate(0,0)"/>
<path d="" fill="#ffffff" 225282" transform="translate(0,0)"/>
<path d="" fill="#ffffff" 32383F" transform="translate(0,0)"/>
<path d="" fill="#ffffff" 2F3B46" transform="translate(0,0)"/>
<path d="" fill="#ffffff" 343940" transform="translate(0,0)"/>
<path d="" fill="#ffffff" 21527F" transform="translate(0,0)"/>
<path d="" fill="#ffffff" 2077C8" transform="translate(0,0)"/>
<path d="" fill="#ffffff" 32373F" transform="translate(0,0)"/>
<path d="" fill="#ffffff" 2E3A4B" transform="translate(0,0)"/>
<path d="" fill="#ffffff" 2F3946" transform="translate(0,0)"/>
<path d="" fill="#ffffff" 33393F" transform="translate(0,0)"/>
<path d="" fill="#ffffff" 214D75" transform="translate(0,0)"/>
<path d="" fill="#ffffff" 33393D" transform="translate(0,0)"/>
<path d="" fill="#ffffff" 25496B" transform="translate(0,0)"/>
<path d="" fill="#ffffff" 35393E" transform="translate(0,0)"/>
<path d="" fill="#ffffff" 244668" transform="translate(0,0)"/>
<path d="" fill="#ffffff" 2365A4" transform="translate(0,0)"/>
<path d="" fill="#ffffff" 274562" transform="translate(0,0)"/>
<path d="" fill="#ffffff" 35393D" transform="translate(0,0)"/>
<path d="" fill="#ffffff" 254260" transform="translate(0,0)"/>
<path d="" fill="#ffffff" 25405A" transform="translate(0,0)"/>
<path d="" fill="#ffffff" 263F5A" transform="translate(0,0)"/>
<path d="" fill="#ffffff" 2A4156" transform="translate(0,0)"/>
<path d="" fill="#ffffff" 373A3D" transform="translate(0,0)"/>
<path d="" fill="#ffffff" 243E55" transform="translate(0,0)"/>
<path d="" fill="#ffffff" 3A3A3E" transform="translate(0,0)"/>
<path d="" fill="#ffffff" 283E54" transform="translate(0,0)"/>
<path d="" fill="#ffffff" 323940" transform="translate(0,0)"/>
<path d="" fill="#ffffff" 293E51" transform="translate(0,0)"/>
<path d="" fill="#ffffff" 313A42" transform="translate(0,0)"/>
<path d="" fill="#ffffff" 373A3D" transform="translate(0,0)"/>
<path d="" fill="#ffffff" 3B3D3E" transform="translate(0,0)"/>
<path d="" fill="#ffffff" 26527E" transform="translate(0,0)"/>
<path d="" fill="#ffffff" 37393E" transform="translate(0,0)"/>
<path d="" fill="#ffffff" 2D3B47" transform="translate(0,0)"/>
<path d="" fill="#ffffff" 293B50" transform="translate(0,0)"/>
<path d="" fill="#ffffff" 293D50" transform="translate(0,0)"/>
<path d="" fill="#ffffff" 30363E" transform="translate(0,0)"/>
<path d="" fill="#ffffff" 363A3D" transform="translate(0,0)"/>
<path d="" fill="#ffffff" 2B3C4E" transform="translate(0,0)"/>
<path d="" fill="#ffffff" 28394B" transform="translate(0,0)"/>
<path d="" fill="#ffffff" 274E76" transform="translate(0,0)"/>
<path d="" fill="#ffffff" 373B3E" transform="translate(0,0)"/>
<path d="" fill="#ffffff" 2A3B4B" transform="translate(0,0)"/>
<path d="" fill="#ffffff" 263B50" transform="translate(0,0)"/>
<path d="" fill="#ffffff" 2B3C4A" transform="translate(0,0)"/>
<path d="" fill="#ffffff" 273749" transform="translate(0,0)"/>
<path d="" fill="#ffffff" 37393E" transform="translate(0,0)"/>
<path d="" fill="#ffffff" 2A3A4B" transform="translate(0,0)"/>
<path d="" fill="#ffffff" 2A3646" transform="translate(0,0)"/>
<path d="" fill="#ffffff" 2D3943" transform="translate(0,0)"/>
<path d="" fill="#ffffff" 383B3E" transform="translate(0,0)"/>
<path d="" fill="#ffffff" 293745" transform="translate(0,0)"/>
<path d="" fill="#ffffff" 273543" transform="translate(0,0)"/>
<path d="" fill="#ffffff" 34373D" transform="translate(0,0)"/>
<path d="" fill="#ffffff" 2B3644" transform="translate(0,0)"/>
<path d="" fill="#ffffff" 383B3E" transform="translate(0,0)"/>
<path d="" fill="#ffffff" 393C3E" transform="translate(0,0)"/>
<path d="" fill="#ffffff" 293741" transform="translate(0,0)"/>
<path d="" fill="#ffffff" 2E3844" transform="translate(0,0)"/>
<path d="" fill="#ffffff" 2B3540" transform="translate(0,0)"/>
<path d="" fill="#ffffff" 2D3A43" transform="translate(0,0)"/>
<path d="" fill="#ffffff" 393A3D" transform="translate(0,0)"/>
<path d="" fill="#ffffff" 3A3A3D" transform="translate(0,0)"/>
<path d="" fill="#ffffff" 3D3E40" transform="translate(0,0)"/>
<path d="" fill="#ffffff" 2A3641" transform="translate(0,0)"/>
<path d="" fill="#ffffff" 2A425B" transform="translate(0,0)"/>
<path d="" fill="#ffffff" 2D3640" transform="translate(0,0)"/>
<path d="" fill="#ffffff" 3A3D3E" transform="translate(0,0)"/>
<path d="" fill="#ffffff" 2B353F" transform="translate(0,0)"/>
<path d="" fill="#ffffff" 2B4154" transform="translate(0,0)"/>
<path d="" fill="#ffffff" 31363B" transform="translate(0,0)"/>
<path d="" fill="#ffffff" 2F373E" transform="translate(0,0)"/>
<path d="" fill="#ffffff" 393C3E" transform="translate(0,0)"/>
<path d="" fill="#ffffff" 2F373F" transform="translate(0,0)"/>
<path d="" fill="#ffffff" 3B3D3E" transform="translate(0,0)"/>
<path d="" fill="#ffffff" 2B353D" transform="translate(0,0)"/>
<path d="" fill="#ffffff" 2B3E53" transform="translate(0,0)"/>
<path d="" fill="#ffffff" 37393C" transform="translate(0,0)"/>
<path d="" fill="#ffffff" 2F373E" transform="translate(0,0)"/>
<path d="" fill="#ffffff" 2A343E" transform="translate(0,0)"/>
<path d="" fill="#ffffff" 3A3D3F" transform="translate(0,0)"/>
<path d="" fill="#ffffff" 3B3D40" transform="translate(0,0)"/>
<path d="" fill="#ffffff" 2D363B" transform="translate(0,0)"/>
<path d="" fill="#ffffff" 2D3D4D" transform="translate(0,0)"/>
<path d="" fill="#ffffff" 31353C" transform="translate(0,0)"/>
<path d="" fill="#ffffff" 2F373D" transform="translate(0,0)"/>
<path d="" fill="#ffffff" 39393D" transform="translate(0,0)"/>
<path d="" fill="#ffffff" 32373B" transform="translate(0,0)"/>
<path d="" fill="#ffffff" 2F353B" transform="translate(0,0)"/>
<path d="" fill="#ffffff" 393A3D" transform="translate(0,0)"/>
<path d="" fill="#ffffff" 32383B" transform="translate(0,0)"/>
<path d="" fill="#ffffff" 2E353A" transform="translate(0,0)"/>
<path d="" fill="#ffffff" 32363C" transform="translate(0,0)"/>
<path d="" fill="#ffffff" 373739" transform="translate(0,0)"/>
<path d="" fill="#ffffff" 30353B" transform="translate(0,0)"/>
<path d="" fill="#ffffff" 2E353B" transform="translate(0,0)"/>
<path d="" fill="#ffffff" 2D3339" transform="translate(0,0)"/>
<path d="" fill="#ffffff" 2F3A48" transform="translate(0,0)"/>
<path d="" fill="#ffffff" 33373B" transform="translate(0,0)"/>
<path d="" fill="#ffffff" 31363A" transform="translate(0,0)"/>
<path d="" fill="#ffffff" 3E403F" transform="translate(0,0)"/>
<path d="" fill="#ffffff" 323639" transform="translate(0,0)"/>
<path d="" fill="#ffffff" 32343A" transform="translate(0,0)"/>
<path d="" fill="#ffffff" 37383B" transform="translate(0,0)"/>
<path d="" fill="#ffffff" 34393C" transform="translate(0,0)"/>
<path d="" fill="#ffffff" 2F3337" transform="translate(0,0)"/>
<path d="" fill="#ffffff" 3B3D3E" transform="translate(0,0)"/>
<path d="" fill="#ffffff" 30373A" transform="translate(0,0)"/>
<path d="" fill="#ffffff" 303A45" transform="translate(0,0)"/>
<path d="" fill="#ffffff" 343539" transform="translate(0,0)"/>
<path d="" fill="#ffffff" 32373B" transform="translate(0,0)"/>
<path d="" fill="#ffffff" 323639" transform="translate(0,0)"/>
<path d="" fill="#ffffff" 3B3D3F" transform="translate(0,0)"/>
<path d="" fill="#ffffff" 3F4041" transform="translate(0,0)"/>
<path d="" fill="#ffffff" 313435" transform="translate(0,0)"/>
<path d="" fill="#ffffff" 323942" transform="translate(0,0)"/>
<path d="" fill="#ffffff" 33363A" transform="translate(0,0)"/>
<path d="" fill="#ffffff" 363739" transform="translate(0,0)"/>
<path d="" fill="#ffffff" 35393A" transform="translate(0,0)"/>
<path d="" fill="#ffffff" 353739" transform="translate(0,0)"/>
<path d="" fill="#ffffff" 33373A" transform="translate(0,0)"/>
<path d="" fill="#ffffff" 323437" transform="translate(0,0)"/>
<path d="" fill="#ffffff" 36373A" transform="translate(0,0)"/>
<path d="" fill="#ffffff" 37393B" transform="translate(0,0)"/>
<path d="" fill="#ffffff" 343739" transform="translate(0,0)"/>
<path d="" fill="#ffffff" 3B3D3C" transform="translate(0,0)"/>
<path d="" fill="#ffffff" 424444" transform="translate(0,0)"/>
<path d="" fill="#ffffff" 333839" transform="translate(0,0)"/>
<path d="" fill="#ffffff" 33383F" transform="translate(0,0)"/>
<path d="" fill="#ffffff" 363839" transform="translate(0,0)"/>
<path d="" fill="#ffffff" 36393B" transform="translate(0,0)"/>
<path d="" fill="#ffffff" 353839" transform="translate(0,0)"/>
<path d="" fill="#ffffff" 333436" transform="translate(0,0)"/>
<path d="" fill="#ffffff" 414343" transform="translate(0,0)"/>
<path d="" fill="#ffffff" 343938" transform="translate(0,0)"/>
<path d="" fill="#ffffff" 38393B" transform="translate(0,0)"/>
<path d="" fill="#ffffff" 38373A" transform="translate(0,0)"/>
<path d="" fill="#ffffff" 32383C" transform="translate(0,0)"/>
<path d="" fill="#ffffff" 3A3C3C" transform="translate(0,0)"/>
<path d="" fill="#ffffff" 3D3F3E" transform="translate(0,0)"/>
<path d="" fill="#ffffff" 414243" transform="translate(0,0)"/>
<path d="" fill="#ffffff" 393A3C" transform="translate(0,0)"/>
<path d="" fill="#ffffff" 353739" transform="translate(0,0)"/>
<path d="" fill="#ffffff" 36383E" transform="translate(0,0)"/>
<path d="" fill="#ffffff" 414343" transform="translate(0,0)"/>
<path d="" fill="#ffffff" 39383A" transform="translate(0,0)"/>
<path d="" fill="#ffffff" 373838" transform="translate(0,0)"/>
<path d="" fill="#ffffff" 34393B" transform="translate(0,0)"/>
<path d="" fill="#ffffff" 3D3E3D" transform="translate(0,0)"/>
<path d="" fill="#ffffff" 424443" transform="translate(0,0)"/>
<path d="" fill="#ffffff" 353939" transform="translate(0,0)"/>
<path d="" fill="#ffffff" 37393C" transform="translate(0,0)"/>
<path d="" fill="#ffffff" 424244" transform="translate(0,0)"/>
<path d="" fill="#ffffff" 403F41" transform="translate(0,0)"/>
<path d="" fill="#ffffff" 3B3C3B" transform="translate(0,0)"/>
<path d="" fill="#ffffff" 3D3E3F" transform="translate(0,0)"/>
<path d="" fill="#ffffff" 434444" transform="translate(0,0)"/>
<path d="" fill="#ffffff" 363939" transform="translate(0,0)"/>
<path d="" fill="#ffffff" 37393D" transform="translate(0,0)"/>
<path d="" fill="#ffffff" 3B3B3B" transform="translate(0,0)"/>
<path d="" fill="#ffffff" 393B3B" transform="translate(0,0)"/>
<path d="" fill="#ffffff" 3F4140" transform="translate(0,0)"/>
<path d="" fill="#ffffff" 3B3A3B" transform="translate(0,0)"/>
<path d="" fill="#ffffff" 424342" transform="translate(0,0)"/>
<path d="" fill="#ffffff" 3E403F" transform="translate(0,0)"/>
<path d="" fill="#ffffff" 434445" transform="translate(0,0)"/>
<path d="" fill="#ffffff" 3A3C3C" transform="translate(0,0)"/>
<path d="" fill="#ffffff" 383A3B" transform="translate(0,0)"/>
<path d="" fill="#ffffff" 3A3A3C" transform="translate(0,0)"/>
<path d="" fill="#ffffff" 434544" transform="translate(0,0)"/>
<path d="" fill="#ffffff" 3A3B3B" transform="translate(0,0)"/>
<path d="" fill="#ffffff" 3C3C3B" transform="translate(0,0)"/>
<path d="" fill="#ffffff" 39393A" transform="translate(0,0)"/>
<path d="" fill="#ffffff" 3A3D3C" transform="translate(0,0)"/>
<path d="" fill="#ffffff" 3E3F3F" transform="translate(0,0)"/>
<path d="" fill="#ffffff" 3D3D3C" transform="translate(0,0)"/>
<path d="" fill="#ffffff" 3D3D3E" transform="translate(0,0)"/>
<path d="" fill="#ffffff" 393B3B" transform="translate(0,0)"/>
<path d="" fill="#ffffff" 3B3B3C" transform="translate(0,0)"/>
<path d="" fill="#ffffff" 3F3D3D" transform="translate(0,0)"/>
<path d="" fill="#ffffff" 3C3D3D" transform="translate(0,0)"/>
<path d="" fill="#ffffff" 3C3D3C" transform="translate(0,0)"/>
<path d="" fill="#ffffff" 3B3D3D" transform="translate(0,0)"/>
<path d="" fill="#ffffff" 3C3C3B" transform="translate(0,0)"/>
<path d="" fill="#ffffff" 3A3B3D" transform="translate(0,0)"/>
<path d="" fill="#ffffff" 3F423F" transform="translate(0,0)"/>
<path d="" fill="#ffffff" 444546" transform="translate(0,0)"/>
<path d="" fill="#ffffff" 3F3F3D" transform="translate(0,0)"/>
<path d="" fill="#ffffff" 454546" transform="translate(0,0)"/>
<path d="" fill="#ffffff" 393C3C" transform="translate(0,0)"/>
<path d="" fill="#ffffff" 3C3B3D" transform="translate(0,0)"/>
<path d="" fill="#ffffff" 444547" transform="translate(0,0)"/>
<path d="" fill="#ffffff" 3E3D3E" transform="translate(0,0)"/>
<path d="" fill="#ffffff" 40413F" transform="translate(0,0)"/>
<path d="" fill="#ffffff" 3E403F" transform="translate(0,0)"/>
<path d="" fill="#ffffff" 3A3B3D" transform="translate(0,0)"/>
<path d="" fill="#ffffff" 3B3C3C" transform="translate(0,0)"/>
<path d="" fill="#ffffff" 424142" transform="translate(0,0)"/>
<path d="" fill="#ffffff" 444344" transform="translate(0,0)"/>
<path d="" fill="#ffffff" 3F403F" transform="translate(0,0)"/>
<path d="" fill="#ffffff" 464646" transform="translate(0,0)"/>
<path d="" fill="#ffffff" 3A3D3D" transform="translate(0,0)"/>
<path d="" fill="#ffffff" 3E3C3E" transform="translate(0,0)"/>
<path d="" fill="#ffffff" 3F3F3F" transform="translate(0,0)"/>
<path d="" fill="#ffffff" 474747" transform="translate(0,0)"/>
<path d="" fill="#ffffff" 3E3E3E" transform="translate(0,0)"/>
<path d="" fill="#ffffff" 41423F" transform="translate(0,0)"/>
<path d="" fill="#ffffff" 474747" transform="translate(0,0)"/>
<path d="" fill="#ffffff" 3D403E" transform="translate(0,0)"/>
<path d="" fill="#ffffff" 3D3D3C" transform="translate(0,0)"/>
<path d="" fill="#ffffff" 3F3D40" transform="translate(0,0)"/>
<path d="" fill="#ffffff" 3E3F3F" transform="translate(0,0)"/>
<path d="" fill="#ffffff" 414142" transform="translate(0,0)"/>
<path d="" fill="#ffffff" 3D403E" transform="translate(0,0)"/>
<path d="" fill="#ffffff" 3E3F40" transform="translate(0,0)"/>
<path d="" fill="#ffffff" 404141" transform="translate(0,0)"/>
<path d="" fill="#ffffff" 414143" transform="translate(0,0)"/>
<path d="" fill="#ffffff" 404141" transform="translate(0,0)"/>
<path d="" fill="#ffffff" 434342" transform="translate(0,0)"/>
<path d="" fill="#ffffff" 424244" transform="translate(0,0)"/>
<path d="" fill="#ffffff" 3F4140" transform="translate(0,0)"/>
<path d="" fill="#ffffff" 454544" transform="translate(0,0)"/>
<path d="" fill="#ffffff" 444444" transform="translate(0,0)"/>
<path d="" fill="#ffffff" 484949" transform="translate(0,0)"/>
<path d="" fill="#ffffff" 3F4140" transform="translate(0,0)"/>
<path d="" fill="#ffffff" 414241" transform="translate(0,0)"/>
<path d="" fill="#ffffff" 444343" transform="translate(0,0)"/>
<path d="" fill="#ffffff" 434343" transform="translate(0,0)"/>
<path d="" fill="#ffffff" 444443" transform="translate(0,0)"/>
<path d="" fill="#ffffff" 434543" transform="translate(0,0)"/>
<path d="" fill="#ffffff" 40403F" transform="translate(0,0)"/>
<path d="" fill="#ffffff" 424140" transform="translate(0,0)"/>
<path d="" fill="#ffffff" 464746" transform="translate(0,0)"/>
<path d="" fill="#ffffff" 434446" transform="translate(0,0)"/>
<path d="" fill="#ffffff" 494949" transform="translate(0,0)"/>
<path d="" fill="#ffffff" 464544" transform="translate(0,0)"/>
<path d="" fill="#ffffff" 404343" transform="translate(0,0)"/>
<path d="" fill="#ffffff" 424243" transform="translate(0,0)"/>
<path d="" fill="#ffffff" 454644" transform="translate(0,0)"/>
<path d="" fill="#ffffff" 444545" transform="translate(0,0)"/>
<path d="" fill="#ffffff" 444242" transform="translate(0,0)"/>
<path d="" fill="#ffffff" 454744" transform="translate(0,0)"/>
<path d="" fill="#ffffff" 464848" transform="translate(0,0)"/>
<path d="" fill="#ffffff" 494A4A" transform="translate(0,0)"/>
<path d="" fill="#ffffff" 424341" transform="translate(0,0)"/>
<path d="" fill="#ffffff" 444344" transform="translate(0,0)"/>
<path d="" fill="#ffffff" 454546" transform="translate(0,0)"/>
<path d="" fill="#ffffff" 454645" transform="translate(0,0)"/>
<path d="" fill="#ffffff" 434540" transform="translate(0,0)"/>
<path d="" fill="#ffffff" 474645" transform="translate(0,0)"/>
<path d="" fill="#ffffff" 484848" transform="translate(0,0)"/>
<path d="" fill="#ffffff" 464847" transform="translate(0,0)"/>
<path d="" fill="#ffffff" 464744" transform="translate(0,0)"/>
<path d="" fill="#ffffff" 4A4D4A" transform="translate(0,0)"/>
<path d="" fill="#ffffff" 454747" transform="translate(0,0)"/>
<path d="" fill="#ffffff" 434544" transform="translate(0,0)"/>
<path d="" fill="#ffffff" 444546" transform="translate(0,0)"/>
<path d="" fill="#ffffff" 494A4B" transform="translate(0,0)"/>
<path d="" fill="#ffffff" 4B4B4B" transform="translate(0,0)"/>
<path d="" fill="#ffffff" 464644" transform="translate(0,0)"/>
<path d="" fill="#ffffff" 474647" transform="translate(0,0)"/>
<path d="" fill="#ffffff" 454544" transform="translate(0,0)"/>
<path d="" fill="#ffffff" 444645" transform="translate(0,0)"/>
<path d="" fill="#ffffff" 4A4A49" transform="translate(0,0)"/>
<path d="" fill="#ffffff" 4B4C4C" transform="translate(0,0)"/>
<path d="" fill="#ffffff" 474946" transform="translate(0,0)"/>
<path d="" fill="#ffffff" 4A4B4C" transform="translate(0,0)"/>
<path d="" fill="#ffffff" 454644" transform="translate(0,0)"/>
<path d="" fill="#ffffff" 454343" transform="translate(0,0)"/>
<path d="" fill="#ffffff" 464646" transform="translate(0,0)"/>
<path d="" fill="#ffffff" 4A4B4D" transform="translate(0,0)"/>
<path d="" fill="#ffffff" 464746" transform="translate(0,0)"/>
<path d="" fill="#ffffff" 4C4C4C" transform="translate(0,0)"/>
<path d="" fill="#ffffff" 484949" transform="translate(0,0)"/>
<path d="" fill="#ffffff" 484747" transform="translate(0,0)"/>
<path d="" fill="#ffffff" 454747" transform="translate(0,0)"/>
<path d="" fill="#ffffff" 474745" transform="translate(0,0)"/>
<path d="" fill="#ffffff" 49494A" transform="translate(0,0)"/>
<path d="" fill="#ffffff" 484949" transform="translate(0,0)"/>
<path d="" fill="#ffffff" 454443" transform="translate(0,0)"/>
<path d="" fill="#ffffff" 4B4C4A" transform="translate(0,0)"/>
<path d="" fill="#ffffff" 4B4C4D" transform="translate(0,0)"/>
<path d="" fill="#ffffff" 484A48" transform="translate(0,0)"/>
<path d="" fill="#ffffff" 4C4D4D" transform="translate(0,0)"/>
<path d="" fill="#ffffff" 444846" transform="translate(0,0)"/>
<path d="" fill="#ffffff" 484847" transform="translate(0,0)"/>
<path d="" fill="#ffffff" 484849" transform="translate(0,0)"/>
<path d="" fill="#ffffff" 484846" transform="translate(0,0)"/>
<path d="" fill="#ffffff" 484746" transform="translate(0,0)"/>
<path d="" fill="#ffffff" 4A4947" transform="translate(0,0)"/>
<path d="" fill="#ffffff" 494948" transform="translate(0,0)"/>
<path d="" fill="#ffffff" 494747" transform="translate(0,0)"/>
<path d="" fill="#ffffff" 484645" transform="translate(0,0)"/>
<path d="" fill="#ffffff" 474746" transform="translate(0,0)"/>
<path d="" fill="#ffffff" 4B4A4C" transform="translate(0,0)"/>
<path d="" fill="#ffffff" 4C4A4A" transform="translate(0,0)"/>
<path d="" fill="#ffffff" 4D4C4E" transform="translate(0,0)"/>
<path d="" fill="#ffffff" 4A4A4A" transform="translate(0,0)"/>
<path d="" fill="#ffffff" 474947" transform="translate(0,0)"/>
<path d="" fill="#ffffff" 494848" transform="translate(0,0)"/>
<path d="" fill="#ffffff" 4A4A4A" transform="translate(0,0)"/>
<path d="" fill="#ffffff" 4A4A49" transform="translate(0,0)"/>
<path d="" fill="#ffffff" 494849" transform="translate(0,0)"/>
<path d="" fill="#ffffff" 4A4949" transform="translate(0,0)"/>
<path d="" fill="#ffffff" 4D4D4D" transform="translate(0,0)"/>
<path d="" fill="#ffffff" 4B4C49" transform="translate(0,0)"/>
<path d="" fill="#ffffff" 494A49" transform="translate(0,0)"/>
<path d="" fill="#ffffff" 494848" transform="translate(0,0)"/>
<path d="" fill="#ffffff" 494746" transform="translate(0,0)"/>
<path d="" fill="#ffffff" 474748" transform="translate(0,0)"/>
<path d="" fill="#ffffff" 474949" transform="translate(0,0)"/>
<path d="" fill="#ffffff" 4C4D4D" transform="translate(0,0)"/>
<path d="" fill="#ffffff" 4E4E4F" transform="translate(0,0)"/>
<path d="" fill="#ffffff" 4E4E4E" transform="translate(0,0)"/>
<path d="" fill="#ffffff" 464948" transform="translate(0,0)"/>
<path d="" fill="#ffffff" 494949" transform="translate(0,0)"/>
<path d="" fill="#ffffff" 4D4D4F" transform="translate(0,0)"/>
<path d="" fill="#ffffff" 4C4C4D" transform="translate(0,0)"/>
<path d="" fill="#ffffff" 4C4B4B" transform="translate(0,0)"/>
<path d="" fill="#ffffff" 4B4A4A" transform="translate(0,0)"/>
<path d="" fill="#ffffff" 494B49" transform="translate(0,0)"/>
<path d="" fill="#ffffff" 4A4A49" transform="translate(0,0)"/>
<path d="" fill="#ffffff" 4B4A4A" transform="translate(0,0)"/>
<path d="" fill="#ffffff" 4C4B4A" transform="translate(0,0)"/>
<path d="" fill="#ffffff" 4A4948" transform="translate(0,0)"/>
<path d="" fill="#ffffff" 494848" transform="translate(0,0)"/>
<path d="" fill="#ffffff" 4B4D4C" transform="translate(0,0)"/>
<path d="" fill="#ffffff" 4C4E4E" transform="translate(0,0)"/>
<path d="" fill="#ffffff" 4D4D4D" transform="translate(0,0)"/>
<path d="" fill="#ffffff" 4E4F4F" transform="translate(0,0)"/>
<path d="" fill="#ffffff" 4F504F" transform="translate(0,0)"/>
<path d="" fill="#ffffff" 4B4C4C" transform="translate(0,0)"/>
<path d="" fill="#ffffff" 494A4A" transform="translate(0,0)"/>
<path d="" fill="#ffffff" 4B4A4C" transform="translate(0,0)"/>
<path d="" fill="#ffffff" 4D4D4C" transform="translate(0,0)"/>
<path d="" fill="#ffffff" 4B4B49" transform="translate(0,0)"/>
<path d="" fill="#ffffff" 4B4B4A" transform="translate(0,0)"/>
<path d="" fill="#ffffff" 4C4E4D" transform="translate(0,0)"/>
<path d="" fill="#ffffff" 494B49" transform="translate(0,0)"/>
<path d="" fill="#ffffff" 4E4F4E" transform="translate(0,0)"/>
<path d="" fill="#ffffff" 4E4E4E" transform="translate(0,0)"/>
<path d="" fill="#ffffff" 4F5050" transform="translate(0,0)"/>
<path d="" fill="#ffffff" 484D4B" transform="translate(0,0)"/>
<path d="" fill="#ffffff" 48494A" transform="translate(0,0)"/>
<path d="" fill="#ffffff" 4B4A48" transform="translate(0,0)"/>
<path d="" fill="#ffffff" 4D4C4D" transform="translate(0,0)"/>
<path d="" fill="#ffffff" 4E4F4F" transform="translate(0,0)"/>
<path d="" fill="#ffffff" 4D4B4B" transform="translate(0,0)"/>
<path d="" fill="#ffffff" 4D4C4B" transform="translate(0,0)"/>
<path d="" fill="#ffffff" 4B4B4C" transform="translate(0,0)"/>
<path d="" fill="#ffffff" 4E4D4E" transform="translate(0,0)"/>
<path d="" fill="#ffffff" 4D4D4C" transform="translate(0,0)"/>
<path d="" fill="#ffffff" 4C4E4E" transform="translate(0,0)"/>
<path d="" fill="#ffffff" 4B4B4C" transform="translate(0,0)"/>
<path d="" fill="#ffffff" 4A4A49" transform="translate(0,0)"/>
<path d="" fill="#ffffff" 4B4D4B" transform="translate(0,0)"/>
<path d="" fill="#ffffff" 4A4B4A" transform="translate(0,0)"/>
<path d="" fill="#ffffff" 4F4F50" transform="translate(0,0)"/>
<path d="" fill="#ffffff" 4A4B4B" transform="translate(0,0)"/>
<path d="" fill="#ffffff" 4D4C4D" transform="translate(0,0)"/>
<path d="" fill="#ffffff" 4E4E4F" transform="translate(0,0)"/>
<path d="" fill="#ffffff" 4A4A4A" transform="translate(0,0)"/>
<path d="" fill="#ffffff" 4E4B4D" transform="translate(0,0)"/>
<path d="" fill="#ffffff" 4D4D4C" transform="translate(0,0)"/>
<path d="" fill="#ffffff" 4E4D4E" transform="translate(0,0)"/>
<path d="" fill="#ffffff" 4D4D4B" transform="translate(0,0)"/>
<path d="" fill="#ffffff" 4F4D4C" transform="translate(0,0)"/>
<path d="" fill="#ffffff" 50504F" transform="translate(0,0)"/>
<path d="" fill="#ffffff" 4D4E4B" transform="translate(0,0)"/>
<path d="" fill="#ffffff" 4E4E4E" transform="translate(0,0)"/>
<path d="" fill="#ffffff" 4F4E4D" transform="translate(0,0)"/>
<path d="" fill="#ffffff" 4D4F4C" transform="translate(0,0)"/>
<path d="" fill="#ffffff" 4F504F" transform="translate(0,0)"/>
<path d="" fill="#ffffff" 4B4D4D" transform="translate(0,0)"/>
<path d="" fill="#ffffff" 4E4E4E" transform="translate(0,0)"/>
<path d="" fill="#ffffff" 504F50" transform="translate(0,0)"/>
<path d="" fill="#ffffff" 4F4F4E" transform="translate(0,0)"/>
<path d="" fill="#ffffff" 4F4F4F" transform="translate(0,0)"/>
<path d="" fill="#ffffff" 4F4D4D" transform="translate(0,0)"/>
<path d="" fill="#ffffff" 504F4F" transform="translate(0,0)"/>
<path d="" fill="#ffffff" 4E4F50" transform="translate(0,0)"/>
<path d="" fill="#ffffff" 4D4D4C" transform="translate(0,0)"/>
<path d="" fill="#ffffff" 504F4C" transform="translate(0,0)"/>
<path d="" fill="#ffffff" 4E4F4E" transform="translate(0,0)"/>
<path d="" fill="#ffffff" 4D514F" transform="translate(0,0)"/>
<path d="" fill="#ffffff" 515051" transform="translate(0,0)"/>
<path d="" fill="#ffffff" 4B4F4B" transform="translate(0,0)"/>
<path d="" fill="#ffffff" 505150" transform="translate(0,0)"/>
<path d="" fill="#ffffff" 4B4F4C" transform="translate(0,0)"/>
<path d="" fill="#ffffff" 4E4E50" transform="translate(0,0)"/>
<path d="" fill="#ffffff" 515150" transform="translate(0,0)"/>
<path d="" fill="#ffffff" 504F50" transform="translate(0,0)"/>
<path d="" fill="#ffffff" 4E4E4E" transform="translate(0,0)"/>
<path d="" fill="#ffffff" 4F4E4F" transform="translate(0,0)"/>
<path d="" fill="#ffffff" 4D504F" transform="translate(0,0)"/>
<path d="" fill="#ffffff" 4E4E4E" transform="translate(0,0)"/>
</svg>
