<?xml version="1.0" encoding="UTF-8"?>
<svg version="1.1" xmlns="http://www.w3.org/2000/svg" width="1024" height="1024">
<path d="M0 0 C8.39784532 4.20466674 16.73912665 8.42777836 24.43261719 13.83911133 C26.20806171 14.82264892 26.20806171 14.82264892 28.21826172 14.42114258 C30.35633996 13.60010185 32.1358853 12.62273882 34.06640625 11.390625 C34.79456543 10.93284668 35.52272461 10.47506836 36.27294922 10.00341797 C37.04268066 9.51502441 37.81241211 9.02663086 38.60546875 8.5234375 C57.36453881 -3.16434991 57.36453881 -3.16434991 66.23046875 -5.3515625 C67.65124825 -5.83192854 69.06636334 -6.3292517 70.4765625 -6.83984375 C82.93031745 -11.24392451 95.1865425 -14.30686775 108.23046875 -16.3515625 C109.32609131 -16.52727783 109.32609131 -16.52727783 110.44384766 -16.70654297 C130.02765409 -19.78956092 130.02765409 -19.78956092 136.29296875 -16.9765625 C138.23046875 -15.3515625 138.23046875 -15.3515625 139.23046875 -13.3515625 C139.46273335 -10.63894134 139.6498311 -7.94383124 139.79296875 -5.2265625 C139.83615234 -4.47246094 139.87933594 -3.71835937 139.92382812 -2.94140625 C140.02995195 -1.07834362 140.13071876 0.78502274 140.23046875 2.6484375 C140.96652344 2.62523437 141.70257813 2.60203125 142.4609375 2.578125 C143.43675781 2.56007813 144.41257812 2.54203125 145.41796875 2.5234375 C146.86236328 2.48863281 146.86236328 2.48863281 148.3359375 2.453125 C151.4217496 2.66134444 153.49398254 3.22111654 156.23046875 4.6484375 C158.68497851 8.33020213 158.48180773 10.11875099 158.48443604 14.5120697 C158.48755602 15.21418172 158.490676 15.91629374 158.49389052 16.63968188 C158.5018833 18.99807257 158.49554196 21.35620688 158.48925781 23.71459961 C158.49196713 25.40311331 158.49552773 27.09162583 158.49987793 28.78013611 C158.50901191 33.37101908 158.50545334 37.96181236 158.49911976 42.55269694 C158.49406416 47.35280653 158.49875006 52.15290831 158.50189209 56.95301819 C158.50553337 65.01581199 158.50072876 73.07856918 158.49121094 81.14135742 C158.48032977 90.46683753 158.48384886 99.79223017 158.49486375 109.11770815 C158.50393641 117.1186218 158.50522189 125.1195091 158.49998641 133.12042624 C158.49686612 137.90147019 158.49645891 142.68247301 158.50305939 147.46351433 C158.50883178 151.95899746 158.50483789 156.45436772 158.49327087 160.94983864 C158.49062356 162.60103035 158.4913906 164.25223154 158.4957962 165.90341949 C158.5012504 168.15501565 158.49441919 170.40624872 158.48443604 172.65782166 C158.48330496 174.54902693 158.48330496 174.54902693 158.48215103 176.47843838 C158.24088557 179.51723511 157.95109452 181.16935069 156.23046875 183.6484375 C153.18943531 185.67579313 152.6182638 185.89837934 149.20980835 185.8999939 C148.3941037 185.90537674 147.57839905 185.91075958 146.73797607 185.91630554 C145.84652893 185.91218155 144.95508179 185.90805756 144.03662109 185.90380859 C143.09478973 185.90742905 142.15295837 185.9110495 141.18258667 185.91477966 C139.13478947 185.92167877 137.08697387 185.92417814 135.0391655 185.92283249 C131.79345005 185.92186818 128.54806667 185.93480011 125.30239868 185.95181274 C116.07320772 185.99810222 106.84404908 186.02267521 97.61474609 186.02929688 C91.97013887 186.03432343 86.32587561 186.05863681 80.68138504 186.09462357 C78.53412571 186.10439991 76.38681892 186.10676538 74.23954391 186.10145187 C71.22621953 186.09434826 68.21391204 186.11173349 65.20068359 186.13427734 C64.32138184 186.12610489 63.44208008 186.11793243 62.53613281 186.10951233 C54.00360079 186.22246825 47.8849365 189.63924342 40.66796875 193.8984375 C33.25166398 197.60186612 26.26161189 197.87474978 18.23046875 196.6484375 C13.90630334 195.08882279 10.14995688 193.02441039 6.23046875 190.6484375 C1.39638955 188.0845398 -2.43202889 186.52687822 -7.90612793 186.51713562 C-8.72201889 186.51312744 -9.53790985 186.50911926 -10.37852478 186.50498962 C-11.70805931 186.5057827 -11.70805931 186.5057827 -13.06445312 186.5065918 C-14.0047084 186.50311737 -14.94496368 186.49964294 -15.91371155 186.49606323 C-17.95386668 186.48871606 -19.99402975 186.48336514 -22.03419495 186.47977257 C-25.26175421 186.47260412 -28.48916172 186.45693613 -31.7166748 186.43843079 C-40.89263883 186.38596783 -50.06851798 186.33795045 -59.24462891 186.32250977 C-64.85797184 186.3124447 -70.47093043 186.28316199 -76.0841217 186.24118996 C-78.22434079 186.22885847 -80.3646141 186.2237626 -82.50486755 186.22598839 C-85.49520117 186.22833379 -88.48442539 186.2062342 -91.47460938 186.1784668 C-92.36096573 186.18506821 -93.24732208 186.19166962 -94.16053772 186.19847107 C-97.95590416 186.14047397 -100.10093395 186.10523212 -103.28796387 183.92781067 C-106.12034668 179.57022461 -105.89617494 174.90502438 -105.90324402 169.83023071 C-105.90550958 169.15711141 -105.90777513 168.48399211 -105.91010934 167.79047525 C-105.91642342 165.54210261 -105.91562165 163.29379066 -105.91479492 161.04541016 C-105.91778802 159.43043439 -105.9211909 157.81545934 -105.92497253 156.20048523 C-105.93380114 151.81821583 -105.93615016 147.43596596 -105.93678832 143.05368853 C-105.93749944 140.31465356 -105.93963493 137.57562355 -105.94228554 134.83658981 C-105.951535 125.27777542 -105.9556209 115.71897497 -105.95483398 106.16015625 C-105.95423321 97.25504622 -105.96478601 88.34999676 -105.98057765 79.44490206 C-105.99365981 71.79464611 -105.9990176 64.14440994 -105.99837857 56.49414289 C-105.9981238 51.92708988 -106.00096387 47.36009071 -106.01155663 42.79304886 C-106.02124903 38.49698626 -106.02130895 34.20102888 -106.01403999 29.90496254 C-106.01299559 28.33081597 -106.01534846 26.75666282 -106.02140045 25.18252754 C-106.02914394 23.02843264 -106.02446027 20.87469897 -106.01676941 18.72061157 C-106.01731418 17.51679148 -106.01785894 16.31297138 -106.01842022 15.07267189 C-105.74695282 11.33780167 -105.03080038 8.17198969 -103.76953125 4.6484375 C-100.36289748 2.54209054 -96.90473029 2.30881333 -92.95703125 2.0234375 C-91.98121094 1.94867188 -91.00539062 1.87390625 -90 1.796875 C-89.26394531 1.74789063 -88.52789062 1.69890625 -87.76953125 1.6484375 C-87.73214844 0.61203125 -87.69476563 -0.424375 -87.65625 -1.4921875 C-87.59057337 -2.86201434 -87.52412661 -4.23180441 -87.45703125 -5.6015625 C-87.43447266 -6.28347656 -87.41191406 -6.96539062 -87.38867188 -7.66796875 C-87.16925489 -11.77705055 -86.79248004 -14.45068052 -83.76953125 -17.3515625 C-59.85257278 -25.32388199 -21.47856473 -10.48178194 0 0 Z M-69.76953125 -1.3515625 C-69.7928585 19.10142224 -69.81050957 39.55440429 -69.82134342 60.00739956 C-69.82650675 69.50339133 -69.83355014 78.99937485 -69.8449707 88.49536133 C-69.85491642 96.76896595 -69.86138441 105.04256461 -69.86361974 113.31617504 C-69.86492704 117.6997734 -69.8680141 122.08335466 -69.87526131 126.46694756 C-69.88201976 130.5880725 -69.88414857 134.70917323 -69.88263893 138.83030319 C-69.88291534 140.34730091 -69.8849215 141.8642994 -69.88873672 143.38129234 C-69.89367126 145.44351051 -69.89253045 147.50563576 -69.88978577 149.56785583 C-69.89070756 150.72470603 -69.89162935 151.88155622 -69.89257908 153.07346249 C-70.06209081 155.58006111 -70.06209081 155.58006111 -68.76953125 156.6484375 C-64.40346088 157.01578548 -60.02395754 157.02033659 -55.64453125 157.0859375 C-54.41992188 157.13169922 -53.1953125 157.17746094 -51.93359375 157.22460938 C-44.20688533 157.42701447 -44.20688533 157.42701447 -37.62890625 153.875 C-36.64178056 152.83059817 -35.68364616 151.75730461 -34.76953125 150.6484375 C-34.09664062 149.93558594 -33.42375 149.22273437 -32.73046875 148.48828125 C-31.94542969 147.54662109 -31.94542969 147.54662109 -31.14453125 146.5859375 C-30.56058594 145.90660156 -29.97664063 145.22726562 -29.375 144.52734375 C-28.84519531 143.90730469 -28.31539062 143.28726563 -27.76953125 142.6484375 C-20.49638065 134.39242871 -10.58940723 129.52750481 0.31640625 128.5390625 C5.09962106 128.71859335 9.43381891 130.23740824 13.98046875 131.6484375 C24.18629748 134.78869249 33.2034542 132.8006582 43.29296875 129.9609375 C53.82410765 127.29049266 62.76638492 129.56705021 72.23046875 134.6484375 C79.51904973 139.32699171 84.6080041 145.24171335 89.7109375 152.109375 C94.08172554 156.51404512 98.74180414 156.73038237 104.69140625 156.87890625 C106.66280849 156.87495818 108.63421454 156.86041713 110.60546875 156.8359375 C112.11947266 156.8349707 112.11947266 156.8349707 113.6640625 156.83398438 C118.2883043 157.23680927 118.2883043 157.23680927 122.23046875 155.6484375 C122.32723289 153.62349128 122.35233861 151.59511208 122.35072327 149.56785583 C122.35157769 148.92588369 122.35243212 148.28391154 122.35331243 147.6224857 C122.35496896 145.45589696 122.34944308 143.28938443 122.34399414 141.12280273 C122.34371228 139.57587689 122.34386998 138.02895091 122.34443665 136.48202515 C122.34472467 132.26939718 122.33882724 128.05679744 122.33186269 123.84417605 C122.32562987 119.44657962 122.32502541 115.04898261 122.32383728 110.65138245 C122.32072375 102.31803237 122.31251007 93.98469535 122.30248779 85.65135103 C122.29132732 76.16662496 122.28581637 66.68189828 122.28079236 57.19716728 C122.27032748 37.68091661 122.25272762 18.1646781 122.23046875 -1.3515625 C120.33048459 -1.20209278 118.43070178 -1.05006223 116.53100586 -0.89697266 C114.94406166 -0.7703978 114.94406166 -0.7703978 113.32505798 -0.64126587 C85.34855621 1.97778506 53.25920885 13.5489152 32.13671875 32.65234375 C29.05345018 34.26347794 26.64633189 34.01821475 23.23046875 33.6484375 C20.3359375 32.03125 20.3359375 32.03125 17.41796875 29.7734375 C-1.56468592 15.73861445 -23.81121616 6.13381221 -46.89453125 1.3984375 C-47.68102051 1.23520996 -48.46750977 1.07198242 -49.27783203 0.90380859 C-54.0403959 -0.01579812 -58.75058614 -0.54888672 -63.58935547 -0.90136719 C-64.74974335 -0.98698914 -65.91013123 -1.07261108 -67.10568237 -1.16082764 C-67.9847525 -1.22377014 -68.86382263 -1.28671265 -69.76953125 -1.3515625 Z " fill="#ECECEC" transform="translate(226.76953125,397.3515625)"/>
<path d="M0 0 C8.28382912 7.8395407 12.65032889 17.10089821 13.4921875 28.42578125 C13.56725525 29.31770172 13.642323 30.20962219 13.71966553 31.12857056 C14.56394015 42.34677705 14.55773153 53.591206 14.51855469 64.83496094 C14.50768459 68.55549885 14.51859515 72.27556898 14.53125 75.99609375 C14.52993066 78.38411564 14.52737296 80.77213724 14.5234375 83.16015625 C14.52748596 84.26120697 14.53153442 85.36225769 14.53570557 86.49667358 C14.50175036 92.05952411 14.36988748 96.94813088 12.2578125 102.13671875 C8.11871306 104.89611838 4.74887044 104.54133998 -0.1171875 104.57421875 C-0.96796875 104.60708984 -1.81875 104.63996094 -2.6953125 104.67382812 C-7.16142739 104.71208923 -9.11996451 104.61485647 -12.76171875 101.81640625 C-14.86062581 98.97646494 -15.87048976 96.54426445 -16.7421875 93.13671875 C-17.2990625 93.595625 -17.8559375 94.05453125 -18.4296875 94.52734375 C-28.04983485 102.26246222 -37.02139674 106.54084802 -49.5546875 106.44921875 C-50.34858887 106.4443042 -51.14249023 106.43938965 -51.96044922 106.43432617 C-62.88581769 106.21644451 -71.14889782 102.94954941 -79.4296875 95.82421875 C-87.83628811 86.05438561 -89.54722943 76.80271172 -88.7421875 64.13671875 C-87.63194967 56.02715546 -82.727617 50.46020823 -76.7421875 45.13671875 C-63.55988118 35.83808854 -45.08002402 36.08988086 -29.5625 35.53125 C-28.15871094 35.47517578 -28.15871094 35.47517578 -26.7265625 35.41796875 C-25.46924316 35.3725293 -25.46924316 35.3725293 -24.18652344 35.32617188 C-21.64154817 35.1289185 -19.23296809 34.68577971 -16.7421875 34.13671875 C-16.9135433 27.40710906 -18.17468439 22.24369073 -22.7421875 17.13671875 C-28.9772035 12.89160147 -36.44132512 13.41085266 -43.7421875 14.13671875 C-48.0753043 15.16352368 -50.73552811 16.70078566 -53.30859375 20.37109375 C-54.81906033 22.77957789 -54.81906033 22.77957789 -56.02734375 25.2109375 C-57.7421875 27.13671875 -57.7421875 27.13671875 -60.90625 27.92578125 C-65.005987 28.15122504 -68.96313282 28.10103385 -73.0546875 27.82421875 C-73.76947266 27.78876953 -74.48425781 27.75332031 -75.22070312 27.71679688 C-80.49518203 27.38372422 -80.49518203 27.38372422 -82.7421875 25.13671875 C-84.11248677 17.25749793 -79.58740362 10.38494778 -75.32421875 4.01953125 C-67.63499628 -5.67276598 -56.8696886 -9.1817293 -45.1171875 -11.61328125 C-28.49877357 -12.84427487 -13.03456448 -11.05282035 0 0 Z M-30.80078125 55.30078125 C-45.71950255 55.62477011 -45.71950255 55.62477011 -58.7421875 62.13671875 C-61.51691248 65.26947276 -61.96452391 67.57402617 -61.7421875 71.63671875 C-61.03853405 76.1839846 -59.51567824 78.36949221 -55.7421875 81.13671875 C-47.99796037 84.24981005 -38.61021365 84.73049242 -30.8046875 81.51171875 C-24.46182841 78.15720854 -19.18800681 74.06654014 -16.7421875 67.13671875 C-16.12842798 64.13497051 -15.61947078 61.20463667 -15.7421875 58.13671875 C-16.4021875 57.14671875 -17.0621875 56.15671875 -17.7421875 55.13671875 C-22.12173226 54.82938228 -26.42064025 55.12505044 -30.80078125 55.30078125 Z " fill="#EBEBEB" transform="translate(928.7421875,453.86328125)"/>
<path d="M0 0 C0.763125 0.845625 1.52625 1.69125 2.3125 2.5625 C2.79332031 3.06265625 3.27414062 3.5628125 3.76953125 4.078125 C13.18782826 14.28326707 16.53658152 26.94750372 16.625 40.5625 C16.63055908 41.29283447 16.63611816 42.02316895 16.6418457 42.77563477 C16.59141456 46.48210849 16.4938415 49.4793318 14.3125 52.5625 C11.33560242 54.05094879 8.6138618 53.72841605 5.29248047 53.76782227 C4.57042419 53.77772186 3.84836792 53.78762146 3.10443115 53.79782104 C0.71288352 53.82946031 -1.67868399 53.85420299 -4.0703125 53.87890625 C-5.72655764 53.89947369 -7.38279751 53.9204701 -9.03903198 53.94187927 C-13.40211724 53.99712167 -17.76525004 54.04652137 -22.12841797 54.09472656 C-26.57914469 54.14492577 -31.02980223 54.20062007 -35.48046875 54.25585938 C-44.21608736 54.36346747 -52.95176379 54.46490653 -61.6875 54.5625 C-61.22668191 56.16132203 -60.76086961 57.75870515 -60.29296875 59.35546875 C-60.03410889 60.24516357 -59.77524902 61.1348584 -59.50854492 62.05151367 C-57.50936771 68.16555994 -54.18055766 71.42966404 -48.7421875 74.52734375 C-41.24702456 78.30342394 -32.14369581 79.04255312 -24.0234375 76.83984375 C-19.29456705 74.88661465 -16.12723207 72.39534431 -12.6875 68.5625 C-9.66019218 65.56388704 -7.20684517 65.19715988 -2.99023438 65.20117188 C-1.94319336 65.2253418 -1.94319336 65.2253418 -0.875 65.25 C-0.18857422 65.24677734 0.49785156 65.24355469 1.20507812 65.24023438 C5.90631094 65.28915922 9.84712735 66.0973908 14.3125 67.5625 C15.80531878 72.81535608 14.39928163 75.36817583 11.88671875 80.0078125 C4.46697257 92.04879017 -7.42228141 99.48308039 -20.9453125 103.1796875 C-38.69608095 105.657715 -55.50870877 102.98212923 -70.25 92.5 C-83.26557997 81.85717177 -89.3273207 66.82561045 -91.6875 50.5625 C-93.05250631 33.45726466 -88.48948596 17.91648264 -77.6875 4.5625 C-77.06488281 3.79035156 -76.44226563 3.01820313 -75.80078125 2.22265625 C-68.13497884 -6.31923786 -56.14218031 -12.90352062 -44.65234375 -14.3203125 C-27.603185 -14.99419229 -12.99208851 -11.78352213 0 0 Z M-57.2109375 20.3984375 C-59.67991312 24.01698906 -61.6875 28.09687929 -61.6875 32.5625 C-45.1875 32.5625 -28.6875 32.5625 -11.6875 32.5625 C-13.70492539 23.48408575 -15.48615028 18.98008469 -22.3984375 13.109375 C-34.3931271 5.67161988 -48.93077274 10.3034421 -57.2109375 20.3984375 Z " fill="#ECECEC" transform="translate(608.6875,456.4375)"/>
<path d="M0 0 C8.87933916 6.0144622 16.05533799 15.72537478 18.25065613 26.35066223 C18.74046498 30.02199592 18.85017507 33.63064988 18.86450195 37.3269043 C18.87107315 38.07398651 18.87764435 38.82106873 18.88441467 39.59078979 C18.90400277 42.04360065 18.91577098 44.49635104 18.92578125 46.94921875 C18.92985678 47.78947916 18.9339323 48.62973957 18.93813133 49.49546242 C18.95891937 53.93390273 18.97325838 58.37231269 18.98266602 62.81079102 C18.99378044 67.39768315 19.02825803 71.98409685 19.06783772 76.5708189 C19.09392349 80.09921698 19.10235011 83.62749884 19.10594749 87.15598488 C19.11082586 88.84772831 19.12247531 90.53946614 19.14098549 92.23111534 C19.16523107 94.59156483 19.16444069 96.95074448 19.1574707 99.3112793 C19.17028076 100.01107407 19.18309082 100.71086884 19.19628906 101.43186951 C19.16166473 104.639805 19.09026344 106.21253955 16.80203247 108.55586243 C12.82055754 110.56895256 8.62561049 110.13693077 4.25 110.125 C3.30833984 110.15335938 2.36667969 110.18171875 1.39648438 110.2109375 C0.48318359 110.21351563 -0.43011719 110.21609375 -1.37109375 110.21875 C-2.19923584 110.22583984 -3.02737793 110.23292969 -3.88061523 110.24023438 C-7.49272783 109.32641812 -8.95665382 107.46090342 -11.3125 104.625 C-11.93154907 101.54071045 -11.93154907 101.54071045 -11.92431641 98.04980469 C-11.93427643 96.73784119 -11.94423645 95.42587769 -11.95449829 94.07415771 C-11.94109214 92.64839613 -11.92761169 91.22263524 -11.9140625 89.796875 C-11.9195679 88.32341338 -11.92769722 86.84995946 -11.93832397 85.37652588 C-11.96119034 81.50004601 -11.95700298 77.62413026 -11.94451904 73.74761963 C-11.92620918 67.55840781 -11.93638866 61.36953075 -11.97037888 55.18039703 C-11.97643249 53.03054496 -11.96328339 50.88142308 -11.94839478 48.73162842 C-11.94199107 40.81524065 -11.95799567 32.99218488 -16.96875 26.46875 C-22.50796019 22.43169851 -27.46732982 21.21619123 -34.3125 21.625 C-40.65859296 22.66164871 -45.33089953 24.35523467 -49.3125 29.625 C-55.1308102 38.84721957 -54.47100983 48.83919667 -54.55859375 59.42578125 C-54.58309348 61.43205896 -54.60760442 63.43833661 -54.63279057 65.44460583 C-54.69332691 70.36411116 -54.74451448 75.28369685 -54.78930664 80.20336914 C-54.81492739 82.97666705 -54.84571432 85.74981748 -54.88209534 88.522995 C-54.91594498 91.12935704 -54.9418472 93.73583665 -54.95909119 96.34236145 C-54.97573318 97.51755844 -54.99237518 98.69275543 -55.00952148 99.90356445 C-55.01982895 100.93866653 -55.03013641 101.97376862 -55.04075623 103.04023743 C-55.3125 105.625 -55.3125 105.625 -57.3125 108.625 C-61.75210869 110.10486956 -66.09927153 109.84997927 -70.75 109.875 C-71.70455078 109.895625 -72.65910156 109.91625 -73.64257812 109.9375 C-74.56361328 109.94265625 -75.48464844 109.9478125 -76.43359375 109.953125 C-77.2733374 109.9624707 -78.11308105 109.97181641 -78.97827148 109.98144531 C-81.85317347 109.54243716 -83.21510888 108.61145717 -85.3125 106.625 C-85.88671875 104.06640625 -85.88671875 104.06640625 -86 101.1875 C-86.15071478 97.36818224 -86.15071478 97.36818224 -86.82421875 93.625 C-87.44880007 91.06671491 -87.44465842 88.69321806 -87.4375 86.0625 C-87.44007813 85.11246094 -87.44265625 84.16242188 -87.4453125 83.18359375 C-87.3125 80.625 -87.3125 80.625 -86.3125 77.625 C-86.22217466 76.28685653 -86.18461625 74.94470328 -86.18310547 73.60351562 C-86.17995331 72.79837524 -86.17680115 71.99323486 -86.17355347 71.16369629 C-86.1755777 70.29498901 -86.17760193 69.42628174 -86.1796875 68.53125 C-86.17873077 67.62934937 -86.17777405 66.72744873 -86.17678833 65.79821777 C-86.17610737 63.88500906 -86.17795581 61.97179803 -86.18212891 60.05859375 C-86.18742858 57.16400787 -86.18220706 54.26958072 -86.17578125 51.375 C-86.1407154 38.99332992 -86.1407154 38.99332992 -87.19580078 26.66601562 C-87.32371106 24.42892369 -86.89015321 22.77845916 -86.3125 20.625 C-86.28763687 17.04826112 -86.33819478 13.4868359 -86.43945312 9.91210938 C-86.50258704 5.68956463 -86.36064515 2.44297092 -84.3125 -1.375 C-81.78810305 -3.89939695 -80.90193181 -3.63179544 -77.41015625 -3.640625 C-76.43755859 -3.64320313 -75.46496094 -3.64578125 -74.46289062 -3.6484375 C-73.44388672 -3.64070313 -72.42488281 -3.63296875 -71.375 -3.625 C-70.35986328 -3.63273437 -69.34472656 -3.64046875 -68.29882812 -3.6484375 C-67.32494141 -3.64585937 -66.35105469 -3.64328125 -65.34765625 -3.640625 C-64.4544165 -3.63836914 -63.56117676 -3.63611328 -62.64086914 -3.63378906 C-60.3125 -3.375 -60.3125 -3.375 -57.3125 -1.375 C-56.58203125 0.7890625 -56.58203125 0.7890625 -56.125 3.25 C-55.96644531 4.06726563 -55.80789063 4.88453125 -55.64453125 5.7265625 C-55.53496094 6.35304688 -55.42539062 6.97953125 -55.3125 7.625 C-54.85101562 7.17769531 -54.38953125 6.73039062 -53.9140625 6.26953125 C-39.32567621 -7.25211533 -17.46434173 -10.21438437 0 0 Z " fill="#ECECEC" transform="translate(807.3125,448.375)"/>
<path d="M0 0 C0.89396484 -0.020625 1.78792969 -0.04125 2.70898438 -0.0625 C7.66681853 -0.09194519 11.02828918 0.02263135 15.0625 3.25 C17.07844534 5.26594534 16.24768635 9.38235709 16.26782227 12.14916992 C16.27772186 12.97894852 16.28762146 13.80872711 16.29782104 14.66365051 C16.32964172 17.43589362 16.35432803 20.20815266 16.37890625 22.98046875 C16.39951226 24.924997 16.42050959 26.86952113 16.44187927 28.81404114 C16.48598565 32.91921604 16.52684511 37.02440593 16.56518555 41.12963867 C16.61349537 46.29888926 16.6672247 51.46806262 16.72316933 56.63723564 C17.08942718 90.61531826 17.08942718 90.61531826 17.05419922 103.76416016 C17.05249568 104.48108819 17.05079214 105.19801622 17.04903698 105.93666935 C17.03995634 109.19212518 17.02358926 112.44731893 16.9969635 115.7026825 C16.99143967 116.80409073 16.98591583 117.90549896 16.98022461 119.0402832 C16.97220322 119.98345901 16.96418182 120.92663483 16.95591736 121.89839172 C16.96229511 124.40430216 16.96229511 124.40430216 18.0625 127.25 C23.84215975 128.25189973 29.41593051 128.36533677 35.2734375 128.3125 C36.24100983 128.30871338 37.20858215 128.30492676 38.20547485 128.30102539 C42.31770133 128.28478381 46.42982569 128.25665655 50.54199219 128.22949219 C53.55663586 128.21130285 56.57126301 128.19927473 59.5859375 128.1875 C60.50184662 128.17920166 61.41775574 128.17090332 62.36141968 128.16235352 C77.87091355 128.10398091 77.87091355 128.10398091 81.10546875 131.21484375 C82.44642217 135.46758173 82.45938988 139.38034341 82.375 143.8125 C82.37822266 144.66263672 82.38144531 145.51277344 82.38476562 146.38867188 C82.32089071 153.79235523 82.32089071 153.79235523 80.0625 157.25 C76.23634244 158.52538585 72.61977613 158.42198733 68.63134766 158.44287109 C67.77087326 158.45104858 66.91039886 158.45922607 66.02384949 158.46765137 C63.17476089 158.49247581 60.32572194 158.50901193 57.4765625 158.5234375 C56.50365643 158.52876118 55.53075035 158.53408485 54.52836227 158.53956985 C49.38089536 158.56628587 44.23345261 158.58566759 39.0859375 158.60009766 C33.76707366 158.61676134 28.44882751 158.66155798 23.13019753 158.7124691 C19.04154741 158.74610088 14.95304487 158.75767047 10.86426926 158.76332474 C8.90342857 158.77004614 6.94259789 158.78529121 4.98189163 158.80921555 C2.23822627 158.84078919 -0.50375972 158.84091605 -3.24755859 158.83349609 C-4.05708481 158.84990143 -4.86661102 158.86630676 -5.70066833 158.88320923 C-9.6561867 158.83941895 -11.54437014 158.50531812 -14.93841553 156.30105591 C-17.70446988 152.07943016 -17.6523141 148.80083732 -17.61279297 143.84960938 C-17.62488297 142.90679108 -17.63697296 141.96397278 -17.64942932 140.99258423 C-17.68342185 137.8593332 -17.68183655 134.72716887 -17.6796875 131.59375 C-17.69538628 129.37697898 -17.71309392 127.16022138 -17.73269653 124.94348145 C-17.7690702 120.265973 -17.7893562 115.58877555 -17.796875 110.91113281 C-17.8063185 105.06113063 -17.84144791 99.21171054 -17.88737106 93.3618927 C-18.06063798 71.08180323 -18.05758888 48.79902588 -17.6815834 26.52088928 C-17.64932086 24.54320687 -17.62162688 22.56544413 -17.59872055 20.58763123 C-17.5651857 17.88147382 -17.51243499 15.17641313 -17.45361328 12.47070312 C-17.44681675 11.67505447 -17.44002022 10.87940582 -17.43301773 10.05964661 C-17.28519681 4.73499563 -17.28519681 4.73499563 -15.52403259 2.27838135 C-10.96409277 -0.67734555 -5.22349072 0.02999851 0 0 Z " fill="#ECECEC" transform="translate(427.9375,399.75)"/>
<path d="M0 0 C0.495 0.99 0.495 0.99 1 2 C2.31647119 2.69937532 3.65022151 3.36729133 5 4 C7.53309722 6.53309722 6.18555171 13.52994908 6.1875 16.9375 C6.19974609 18.06091797 6.21199219 19.18433594 6.22460938 20.34179688 C6.22654297 21.41365234 6.22847656 22.48550781 6.23046875 23.58984375 C6.23457764 24.57847412 6.23868652 25.56710449 6.24291992 26.58569336 C6 29 6 29 4 31 C0.33305088 31.46859593 -3.30932405 31.78613227 -6.99609375 32.03515625 C-13.9656299 32.64773571 -19.19597047 34.78286037 -24.6875 39.125 C-30.34209388 46.15503563 -33.08229714 53.47694246 -33.17358398 62.46118164 C-33.18707382 63.52901382 -33.20056366 64.59684601 -33.21446228 65.69703674 C-33.22490067 66.83986618 -33.23533905 67.98269562 -33.24609375 69.16015625 C-33.27901571 71.58659237 -33.31222762 74.01302458 -33.34570312 76.43945312 C-33.39321255 80.2601466 -33.43768759 84.08082234 -33.47680664 87.90161133 C-33.51644871 91.59212206 -33.56799321 95.28231811 -33.62109375 98.97265625 C-33.6295079 100.11750992 -33.63792206 101.26236359 -33.64659119 102.44190979 C-33.66323318 103.50658981 -33.67987518 104.57126984 -33.69702148 105.66821289 C-33.70732895 106.60355362 -33.71763641 107.53889435 -33.72825623 108.50257874 C-34.01521431 111.13982486 -34.57593154 112.77355589 -36 115 C-39.86236435 116.93118218 -44.56341181 116.31534465 -48.8125 116.375 C-50.31006836 116.43107422 -50.31006836 116.43107422 -51.83789062 116.48828125 C-53.28905273 116.50568359 -53.28905273 116.50568359 -54.76953125 116.5234375 C-56.09368042 116.5531665 -56.09368042 116.5531665 -57.44458008 116.58349609 C-61.30093961 115.70294777 -62.59596261 114.13009806 -65 111 C-65.73589101 107.61543139 -65.67319254 104.29396836 -65.63110352 100.84130859 C-65.63825882 99.82127243 -65.64541412 98.80123627 -65.65278625 97.75028992 C-65.66967961 94.3825487 -65.65026853 91.01613716 -65.62890625 87.6484375 C-65.62973475 85.30864349 -65.63219343 82.96884954 -65.63621521 80.62905884 C-65.6390735 75.72811339 -65.62436595 70.82762489 -65.59692383 65.92675781 C-65.56280397 59.636991 -65.56887181 53.34803936 -65.5875864 47.05823326 C-65.59814026 42.228436 -65.5892338 37.39882936 -65.57420158 32.56904984 C-65.56901001 30.2493509 -65.56951333 27.92963213 -65.57574654 25.60993576 C-65.58118055 22.37282017 -65.56088216 19.13688367 -65.53344727 15.89990234 C-65.53997314 14.93671585 -65.54649902 13.97352936 -65.55322266 12.9811554 C-65.45972124 6.511945 -65.45972124 6.511945 -63.11828613 3.90452576 C-60.56858845 2.81578369 -58.67498283 2.62734402 -55.90234375 2.63671875 C-54.93619141 2.63736328 -53.97003906 2.63800781 -52.97460938 2.63867188 C-51.47124023 2.6628418 -51.47124023 2.6628418 -49.9375 2.6875 C-48.93138672 2.68427734 -47.92527344 2.68105469 -46.88867188 2.67773438 C-39.40086753 2.73275498 -39.40086753 2.73275498 -36 5 C-35.26953125 7.8203125 -35.26953125 7.8203125 -34.8125 11.125 C-34.65394531 12.22070312 -34.49539063 13.31640625 -34.33203125 14.4453125 C-34.22246094 15.28835938 -34.11289062 16.13140625 -34 17 C-33.360625 16.319375 -32.72125 15.63875 -32.0625 14.9375 C-24.06112752 7.00393576 -16.96431581 1.86625998 -5.5 1.8125 C-3.66622088 1.8601601 -1.83254385 1.91753553 0 2 C0 1.34 0 0.68 0 0 Z " fill="#ECECEC" transform="translate(704,442)"/>
<path d="M0 0 C10.92064231 6.34101811 17.14689463 15.01982307 20.98828125 27.0546875 C22.77229197 37.41484615 20.71993968 48.59145059 14.625 57.25 C6.95454442 66.34304634 -1.93284837 72.95882607 -14.0625 74.17578125 C-24.9823151 74.48452602 -34.64639223 71.45758567 -42.6875 63.9375 C-50.48031921 56.36870434 -54.70158104 47.95466262 -54.98022461 37.04882812 C-55.0885475 24.79897987 -52.45521763 15.93902343 -43.6875 6.9375 C-31.34266234 -3.4337747 -14.96942601 -7.6228451 0 0 Z " fill="#ECECEC" transform="translate(270.6875,447.0625)"/>
<path d="M0 0 C0.33 0 0.66 0 1 0 C1.4726477 8.19256018 1.4726477 8.19256018 -0.5 11.5625 C-0.995 12.036875 -1.49 12.51125 -2 13 C-2.042721 11.33388095 -2.04063832 9.66617115 -2 8 C-1.67 7.67 -1.34 7.34 -1 7 C-0.63239269 4.67182036 -0.29758419 2.3381615 0 0 Z " fill="#F4F4F3" transform="translate(914,510)"/>
<path d="M0 0 C3 1 3 1 3 1 Z " fill="#EDF0EE" transform="translate(257,528)"/>
<path d="M0 0 C3 1 3 1 3 1 Z " fill="#EBECEA" transform="translate(892,511)"/>
<path d="M0 0 C3 1 3 1 3 1 Z " fill="#EDEEED" transform="translate(595,511)"/>
<path d="" fill="#EEEEEE" transform="translate(0,0)"/>
<path d="M0 0 C2 1 2 1 2 1 Z " fill="#E4E4E2" transform="translate(932,559)"/>
<path d="M0 0 C2 1 2 1 2 1 Z " fill="#E8E8E7" transform="translate(468,559)"/>
<path d="M0 0 C2 1 2 1 2 1 Z " fill="#E7E8E6" transform="translate(464,559)"/>
<path d="M0 0 C2 1 2 1 2 1 Z " fill="#E8E8E9" transform="translate(858,557)"/>
<path d="M0 0 C2 1 2 1 2 1 Z " fill="#EBECEB" transform="translate(522,531)"/>
<path d="M0 0 C2 1 2 1 2 1 Z " fill="#EDECEC" transform="translate(246,528)"/>
<path d="M0 0 C2 1 2 1 2 1 Z " fill="#ECEEED" transform="translate(284,524)"/>
<path d="M0 0 C2 1 2 1 2 1 Z " fill="#EBEBEC" transform="translate(604,511)"/>
<path d="M0 0 C2 1 2 1 2 1 Z " fill="#ECEBEB" transform="translate(588,511)"/>
<path d="M0 0 C2 1 2 1 2 1 Z " fill="#EEEDEC" transform="translate(583,511)"/>
<path d="M0 0 C2 1 2 1 2 1 Z " fill="#EEEBED" transform="translate(572,511)"/>
<path d="M0 0 C2 1 2 1 2 1 Z " fill="#EDEDEF" transform="translate(554,511)"/>
<path d="" fill="#EEEDEF" transform="translate(0,0)"/>
<path d="" fill="#EFEEEE" transform="translate(0,0)"/>
<path d="" fill="#EEEFEE" transform="translate(0,0)"/>
<path d="M0 0 C2 1 2 1 2 1 Z " fill="#EEEDED" transform="translate(164,398)"/>
<path d="" fill="#787978" transform="translate(0,0)"/>
<path d="" fill="#E7E8E8" transform="translate(0,0)"/>
<path d="" fill="#E4E3E3" transform="translate(0,0)"/>
<path d="" fill="#E5E4E3" transform="translate(0,0)"/>
<path d="" fill="#E5E7E4" transform="translate(0,0)"/>
<path d="" fill="#E7E7E6" transform="translate(0,0)"/>
<path d="" fill="#E6E7E7" transform="translate(0,0)"/>
<path d="" fill="#E8E8E8" transform="translate(0,0)"/>
<path d="" fill="#E9E8E7" transform="translate(0,0)"/>
<path d="" fill="#E7E7E8" transform="translate(0,0)"/>
<path d="" fill="#E8E9EA" transform="translate(0,0)"/>
<path d="" fill="#EAE8E8" transform="translate(0,0)"/>
<path d="" fill="#E7EAE8" transform="translate(0,0)"/>
<path d="" fill="#EAEBE8" transform="translate(0,0)"/>
<path d="" fill="#E8E7E9" transform="translate(0,0)"/>
<path d="" fill="#EAE9E8" transform="translate(0,0)"/>
<path d="" fill="#EEEFEE" transform="translate(0,0)"/>
<path d="" fill="#EDEDEB" transform="translate(0,0)"/>
<path d="" fill="#EDEDEB" transform="translate(0,0)"/>
<path d="" fill="#EAEAEA" transform="translate(0,0)"/>
<path d="" fill="#ECECEC" transform="translate(0,0)"/>
<path d="" fill="#EDEDEF" transform="translate(0,0)"/>
<path d="" fill="#EDEDEF" transform="translate(0,0)"/>
<path d="" fill="#E8E8E9" transform="translate(0,0)"/>
<path d="" fill="#EFEFEF" transform="translate(0,0)"/>
<path d="" fill="#E9E8EB" transform="translate(0,0)"/>
<path d="" fill="#ECF0ED" transform="translate(0,0)"/>
<path d="" fill="#F0F0EF" transform="translate(0,0)"/>
<path d="" fill="#EEEEEF" transform="translate(0,0)"/>
<path d="" fill="#EBEBE9" transform="translate(0,0)"/>
<path d="" fill="#EDEEEE" transform="translate(0,0)"/>
<path d="" fill="#EBEAEB" transform="translate(0,0)"/>
<path d="" fill="#EDEEEE" transform="translate(0,0)"/>
<path d="" fill="#EAECEC" transform="translate(0,0)"/>
<path d="" fill="#EFEEF0" transform="translate(0,0)"/>
<path d="" fill="#EDF0EE" transform="translate(0,0)"/>
<path d="" fill="#EDF0EF" transform="translate(0,0)"/>
<path d="" fill="#EBEDEB" transform="translate(0,0)"/>
<path d="" fill="#ECEBED" transform="translate(0,0)"/>
<path d="" fill="#EBECEB" transform="translate(0,0)"/>
<path d="" fill="#EEEFED" transform="translate(0,0)"/>
<path d="" fill="#ECEEED" transform="translate(0,0)"/>
<path d="" fill="#EEEBEC" transform="translate(0,0)"/>
<path d="" fill="#EEEEEE" transform="translate(0,0)"/>
<path d="" fill="#EDEEEE" transform="translate(0,0)"/>
<path d="" fill="#ECECED" transform="translate(0,0)"/>
<path d="" fill="#EEEFED" transform="translate(0,0)"/>
<path d="" fill="#EDEFEE" transform="translate(0,0)"/>
<path d="" fill="#EDEEEF" transform="translate(0,0)"/>
<path d="" fill="#EDEFEC" transform="translate(0,0)"/>
<path d="" fill="#EFEEEE" transform="translate(0,0)"/>
<path d="" fill="#ECEFED" transform="translate(0,0)"/>
<path d="" fill="#EEEEED" transform="translate(0,0)"/>
<path d="" fill="#EEEDED" transform="translate(0,0)"/>
<path d="" fill="#ECECEC" transform="translate(0,0)"/>
<path d="" fill="#EDECED" transform="translate(0,0)"/>
<path d="" fill="#EBECED" transform="translate(0,0)"/>
<path d="" fill="#E7E9E7" transform="translate(0,0)"/>
<path d="" fill="#EDEEEF" transform="translate(0,0)"/>
<path d="" fill="#F0EEEF" transform="translate(0,0)"/>
<path d="" fill="#ECEAEA" transform="translate(0,0)"/>
<path d="" fill="#E9E9E8" transform="translate(0,0)"/>
<path d="" fill="#EBEEEC" transform="translate(0,0)"/>
<path d="" fill="#ECEBEB" transform="translate(0,0)"/>
<path d="" fill="#EDEDEC" transform="translate(0,0)"/>
<path d="" fill="#EDEBEE" transform="translate(0,0)"/>
<path d="" fill="#EDEAEB" transform="translate(0,0)"/>
<path d="" fill="#EAEBEA" transform="translate(0,0)"/>
<path d="" fill="#EBECEB" transform="translate(0,0)"/>
<path d="" fill="#F2EFEF" transform="translate(0,0)"/>
<path d="" fill="#ECECEC" transform="translate(0,0)"/>
<path d="" fill="#EDEDEF" transform="translate(0,0)"/>
<path d="" fill="#ECECED" transform="translate(0,0)"/>
<path d="" fill="#F0F0EF" transform="translate(0,0)"/>
<path d="" fill="#EFEFF0" transform="translate(0,0)"/>
<path d="" fill="#EAEBEB" transform="translate(0,0)"/>
<path d="" fill="#EAE8E6" transform="translate(0,0)"/>
<path d="" fill="#EBEEEF" transform="translate(0,0)"/>
<path d="" fill="#EAECED" transform="translate(0,0)"/>
<path d="" fill="#EEEEEC" transform="translate(0,0)"/>
<path d="" fill="#EEEEEE" transform="translate(0,0)"/>
<path d="" fill="#EAE9E9" transform="translate(0,0)"/>
<path d="" fill="#E3E3E1" transform="translate(0,0)"/>
<path d="" fill="#E9EAE9" transform="translate(0,0)"/>
<path d="" fill="#EDEBEC" transform="translate(0,0)"/>
<path d="" fill="#EBECEC" transform="translate(0,0)"/>
<path d="" fill="#F1F0F0" transform="translate(0,0)"/>
<path d="" fill="#EDEDEC" transform="translate(0,0)"/>
<path d="" fill="#E7E8EA" transform="translate(0,0)"/>
<path d="" fill="#ECEEEC" transform="translate(0,0)"/>
<path d="" fill="#EDECF0" transform="translate(0,0)"/>
<path d="" fill="#E9E8EA" transform="translate(0,0)"/>
<path d="" fill="#E6EAE8" transform="translate(0,0)"/>
<path d="" fill="#EDF0EE" transform="translate(0,0)"/>
<path d="" fill="#E8EAE9" transform="translate(0,0)"/>
<path d="" fill="#E5E8E6" transform="translate(0,0)"/>
<path d="" fill="#E8E8EA" transform="translate(0,0)"/>
<path d="" fill="#EEF0EE" transform="translate(0,0)"/>
<path d="" fill="#ECECED" transform="translate(0,0)"/>
<path d="" fill="#EFEEEF" transform="translate(0,0)"/>
<path d="" fill="#EDEDF1" transform="translate(0,0)"/>
<path d="" fill="#ECEEEC" transform="translate(0,0)"/>
<path d="" fill="#EBEDEA" transform="translate(0,0)"/>
<path d="" fill="#EDEDED" transform="translate(0,0)"/>
<path d="" fill="#ECEDEC" transform="translate(0,0)"/>
<path d="" fill="#EAEBEA" transform="translate(0,0)"/>
<path d="" fill="#EDEFEF" transform="translate(0,0)"/>
<path d="" fill="#EBEBEA" transform="translate(0,0)"/>
<path d="" fill="#EBEDEC" transform="translate(0,0)"/>
<path d="" fill="#EDEAEB" transform="translate(0,0)"/>
<path d="" fill="#EFEDEC" transform="translate(0,0)"/>
<path d="" fill="#E8E9E9" transform="translate(0,0)"/>
<path d="" fill="#E7E8E9" transform="translate(0,0)"/>
<path d="" fill="#E7E8E7" transform="translate(0,0)"/>
<path d="" fill="#E5E8E7" transform="translate(0,0)"/>
<path d="" fill="#E1E2E2" transform="translate(0,0)"/>
<path d="" fill="#E6E6E8" transform="translate(0,0)"/>
<path d="" fill="#E0E1E1" transform="translate(0,0)"/>
<path d="" fill="#868687" transform="translate(0,0)"/>
<path d="" fill="#7E7E7D" transform="translate(0,0)"/>
</svg>
